<?xml version="1.0" encoding="UTF-8"?>
<svg width="71px" height="42px" viewBox="0 0 71 42" version="1.1" xmlns="http://www.w3.org/2000/svg">
    <title>Amazon_Web_Services_Logo</title>
    <g id="Landingpage" stroke="none" stroke-width="1" fill="none" fill-rule="evenodd">
        <g id="Layout_Landingpage-SPECS" transform="translate(-1462.000000, -706.000000)" fill="#FFFFFF">
            <g id="Header" transform="translate(-2575.000000, -291.000000)">
                <g id="Header-Box" transform="translate(2894.980783, 688.049974)">
                    <g id="Comp_bar" transform="translate(51.000000, 289.836584)">
                        <g id="Amazon_Web_Services_Logo" transform="translate(1091.955556, 19.163416)">
                            <path d="M19.5596729,14.5882979 C19.5596729,15.4148936 19.6510434,16.0851064 19.8109419,16.5765957 C19.993683,17.0680851 20.2221094,17.6042553 20.5419064,18.1851064 C20.6561196,18.3638298 20.7018049,18.5425532 20.7018049,18.6989362 C20.7018049,18.9223404 20.564749,19.1457447 20.2677947,19.3691489 L18.8287084,20.3074468 C18.6231246,20.4414894 18.4175409,20.5085106 18.2347998,20.5085106 C18.0063734,20.5085106 17.777947,20.3968085 17.5495206,20.1957447 C17.2297236,19.8606383 16.955612,19.5031915 16.7271856,19.1457447 C16.4987592,18.7659574 16.2703328,18.3414894 16.0190637,17.8276596 C14.2373378,19.8829787 11.9987592,20.9106383 9.30332769,20.9106383 C7.38454597,20.9106383 5.85408911,20.3744681 4.73479977,19.3021277 C3.61551043,18.2297872 3.04444444,16.8 3.04444444,15.012766 C3.04444444,13.1138298 3.72972363,11.5723404 5.12312465,10.4106383 C6.51652566,9.24893617 8.36677947,8.66808511 10.7195713,8.66808511 C11.4962211,8.66808511 12.2957135,8.73510638 13.1408911,8.84680851 C13.9860688,8.95851064 14.8540891,9.13723404 15.7677947,9.33829787 L15.7677947,7.70744681 C15.7677947,6.00957447 15.4023125,4.82553191 14.6941906,4.13297872 C13.9632262,3.44042553 12.7297236,3.10531915 10.9708404,3.10531915 C10.171348,3.10531915 9.34901297,3.19468085 8.50383531,3.39574468 C7.65865764,3.59680851 6.83632262,3.84255319 6.03683023,4.15531915 C5.671348,4.31170213 5.39723632,4.40106383 5.23733785,4.44574468 C5.07743937,4.49042553 4.96322617,4.51276596 4.87185561,4.51276596 C4.55205866,4.51276596 4.39216018,4.2893617 4.39216018,3.82021277 L4.39216018,2.72553191 C4.39216018,2.36808511 4.43784546,2.1 4.55205866,1.94361702 C4.66627186,1.78723404 4.87185561,1.63085106 5.19165257,1.47446809 C5.99114495,1.07234043 6.95053582,0.737234043 8.06982516,0.469148936 C9.1891145,0.178723404 10.3769318,0.0446808511 11.6332769,0.0446808511 C14.351551,0.0446808511 16.3388607,0.64787234 17.6180485,1.85425532 C18.8743937,3.0606383 19.5139876,4.89255319 19.5139876,7.35 L19.5139876,14.5882979 L19.5596729,14.5882979 Z M10.2855612,17.9840426 C11.0393683,17.9840426 11.816018,17.85 12.6383531,17.5819149 C13.4606881,17.3138298 14.1916526,16.8223404 14.8084038,16.1521277 C15.1738861,15.7276596 15.4479977,15.2585106 15.5850536,14.7223404 C15.7221094,14.1861702 15.81348,13.5382979 15.81348,12.7787234 L15.81348,11.8404255 C15.1510434,11.6840426 14.4429216,11.55 13.7119571,11.4606383 C12.9809927,11.3712766 12.2728708,11.3265957 11.564749,11.3265957 C10.0342922,11.3265957 8.91500282,11.6170213 8.16119571,12.2202128 C7.40738861,12.8234043 7.04190637,13.6723404 7.04190637,14.7893617 C7.04190637,15.8393617 7.31601805,16.6212766 7.88708404,17.1574468 C8.43530739,17.7159574 9.23479977,17.9840426 10.2855612,17.9840426 Z M28.6282008,20.3968085 C28.2170333,20.3968085 27.9429216,20.3297872 27.7601805,20.1734043 C27.5774394,20.0393617 27.4175409,19.7265957 27.2804851,19.3021277 L21.9124647,2.03297872 C21.7754089,1.58617021 21.706881,1.29574468 21.706881,1.1393617 C21.706881,0.781914894 21.8896221,0.580851064 22.2551043,0.580851064 L24.493683,0.580851064 C24.9276932,0.580851064 25.2246475,0.64787234 25.384546,0.804255319 C25.5672871,0.938297872 25.7043429,1.25106383 25.8413988,1.67553191 L29.6789622,16.4648936 L33.242414,1.67553191 C33.3566272,1.2287234 33.493683,0.938297872 33.6764241,0.804255319 C33.8591653,0.670212766 34.1789622,0.580851064 34.5901297,0.580851064 L36.4175409,0.580851064 C36.851551,0.580851064 37.1485054,0.64787234 37.3312465,0.804255319 C37.5139876,0.938297872 37.6738861,1.25106383 37.7652566,1.67553191 L41.3743937,16.643617 L45.3261703,1.67553191 C45.4632262,1.2287234 45.6231246,0.938297872 45.7830231,0.804255319 C45.9657642,0.670212766 46.2627186,0.580851064 46.6738861,0.580851064 L48.7982516,0.580851064 C49.1637338,0.580851064 49.3693175,0.759574468 49.3693175,1.1393617 C49.3693175,1.25106383 49.3464749,1.36276596 49.3236323,1.49680851 C49.3007896,1.63085106 49.2551043,1.80957447 49.1637338,2.05531915 L43.6586576,19.3244681 C43.5216018,19.7712766 43.3617033,20.0617021 43.1789622,20.1957447 C42.9962211,20.3297872 42.6992668,20.4191489 42.3109419,20.4191489 L40.3464749,20.4191489 C39.9124647,20.4191489 39.6155104,20.3521277 39.4327693,20.1957447 C39.2500282,20.0393617 39.0901297,19.7489362 38.9987592,19.3021277 L35.45815,4.89255319 L31.9403835,19.2797872 C31.8261703,19.7265957 31.6891145,20.0170213 31.5063734,20.1734043 C31.3236323,20.3297872 31.0038353,20.3968085 30.5926678,20.3968085 L28.6282008,20.3968085 Z M57.9809927,21 C56.7931754,21 55.6053582,20.8659574 54.4632262,20.5978723 C53.3210942,20.3297872 52.4302312,20.0393617 51.8363226,19.7042553 C51.4708404,19.5031915 51.2195713,19.2797872 51.1282008,19.0787234 C51.0368302,18.8776596 50.991145,18.6542553 50.991145,18.4531915 L50.991145,17.3138298 C50.991145,16.8446809 51.1738861,16.6212766 51.5165257,16.6212766 C51.6535815,16.6212766 51.7906373,16.643617 51.9276932,16.6882979 C52.064749,16.7329787 52.2703328,16.8223404 52.4987592,16.9117021 C53.2754089,17.2468085 54.1205866,17.5148936 55.0114495,17.693617 C55.9251551,17.8723404 56.816018,17.9617021 57.7297236,17.9617021 C59.1688099,17.9617021 60.2880993,17.7159574 61.064749,17.2244681 C61.8413988,16.7329787 62.2525663,16.0180851 62.2525663,15.1021277 C62.2525663,14.4765957 62.0469825,13.962766 61.635815,13.5382979 C61.2246475,13.1138298 60.4479977,12.7340426 59.3287084,12.3765957 L56.0165257,11.3712766 C54.349013,10.8574468 53.1155104,10.0978723 52.3617033,9.09255319 C51.6078962,8.10957447 51.2195713,7.01489362 51.2195713,5.85319149 C51.2195713,4.91489362 51.4251551,4.08829787 51.8363226,3.37340426 C52.2474901,2.65851064 52.7957135,2.03297872 53.4809927,1.54148936 C54.1662719,1.02765957 54.9429216,0.64787234 55.8566272,0.379787234 C56.7703328,0.111702128 57.7297236,0 58.7347998,0 C59.2373378,0 59.7627186,0.0223404255 60.2652566,0.0893617021 C60.7906373,0.156382979 61.2703328,0.245744681 61.7500282,0.335106383 C62.206881,0.446808511 62.6408911,0.558510638 63.0520587,0.692553191 C63.4632262,0.826595745 63.7830231,0.960638298 64.0114495,1.09468085 C64.3312465,1.27340426 64.5596729,1.45212766 64.6967287,1.65319149 C64.8337845,1.83191489 64.9023125,2.07765957 64.9023125,2.39042553 L64.9023125,3.44042553 C64.9023125,3.90957447 64.7195713,4.15531915 64.3769318,4.15531915 C64.1941906,4.15531915 63.8972363,4.06595745 63.5089114,3.88723404 C62.206881,3.30638298 60.7449521,3.01595745 59.1231246,3.01595745 C57.8210942,3.01595745 56.7931754,3.21702128 56.0850536,3.64148936 C55.3769318,4.06595745 55.0114495,4.71382979 55.0114495,5.62978723 C55.0114495,6.25531915 55.2398759,6.79148936 55.6967287,7.21595745 C56.1535815,7.64042553 56.9987592,8.06489362 58.2094191,8.44468085 L61.4530739,9.45 C63.0977439,9.96382979 64.2855612,10.6787234 64.993683,11.5946809 C65.7018049,12.5106383 66.0444444,13.5606383 66.0444444,14.7223404 C66.0444444,15.6829787 65.8388607,16.5542553 65.4505358,17.3138298 C65.0393683,18.0734043 64.491145,18.743617 63.7830231,19.2797872 C63.0749013,19.8382979 62.2297236,20.2404255 61.2474901,20.5308511 C60.2195713,20.843617 59.1459673,21 57.9809927,21 Z" id="Shape" fill-rule="nonzero"></path>
                            <g id="Group" transform="translate(0.044444, 26.000000)">
                                <path d="M62.2599338,6.77205882 C54.7430464,12.1323529 43.8218543,14.9779412 34.431457,14.9779412 C21.2711921,14.9779412 9.41324503,10.2794118 0.456953642,2.47058824 C-0.251324503,1.85294118 0.388410596,1.01470588 1.23377483,1.5 C10.9211921,6.92647059 22.8705298,10.2132353 35.2311258,10.2132353 C43.5705298,10.2132353 52.7324503,8.53676471 61.163245,5.09558824 C62.4198675,4.54411765 63.4937086,5.88970588 62.2599338,6.77205882 Z" id="Path"></path>
                                <path d="M65.3900662,3.33088235 C64.4304636,2.13970588 59.0384106,2.75735294 56.5937086,3.04411765 C55.8625828,3.13235294 55.7483444,2.51470588 56.4109272,2.05147059 C60.7062914,-0.860294118 67.7662252,-0.0220588235 68.5887417,0.948529412 C69.4112583,1.94117647 68.3602649,8.75735294 64.3390728,12.0220588 C63.7221854,12.5294118 63.1281457,12.2647059 63.4023179,11.6029412 C64.3162252,9.41911765 66.3496689,4.5 65.3900662,3.33088235 Z" id="Path"></path>
                            </g>
                        </g>
                    </g>
                </g>
            </g>
        </g>
    </g>
</svg>