<?xml version="1.0" encoding="UTF-8"?>
<svg width="105px" height="66px" viewBox="0 0 105 66" version="1.1" xmlns="http://www.w3.org/2000/svg">
    <title>CC+1_logo</title>
    <defs>
        <path d="M85.8599949,0 L85.8599949,38.8799977 L19.439,38.879 L19.4399988,64.7999961 L0,64.7999961 L0,0 L85.8599949,0 Z" id="path-1"></path>
    </defs>
    <g id="Landingpage" stroke="none" stroke-width="1" fill="none" fill-rule="evenodd">
        <g id="Layout_Landingpage-SPECS" transform="translate(-1040.000000, -687.000000)">
            <g id="Header" transform="translate(-2575.000000, -291.000000)">
                <g id="Header-Box" transform="translate(2894.980783, 688.049974)">
                    <g id="Comp_bar" transform="translate(51.000000, 289.836584)">
                        <g id="CC+1_logo" transform="translate(670.000000, 0.163416)">
                            <g id="cloud">
                                <mask id="mask-2" fill="white">
                                    <use xlink:href="#path-1"></use>
                                </mask>
                                <g id="Combined-Shape"></g>
                                <g id="Group" mask="url(#mask-2)">
                                    <g transform="translate(0.810000, 0.810000)" id="Cloud_Logo_V4">
                                        <ellipse id="Oval-Copy-13" stroke="#F0AB00" stroke-width="1.86261646" transform="translate(49.467381, 11.521730) rotate(-90.000000) translate(-49.467381, -11.521730) " cx="49.4673808" cy="11.5217301" rx="2.23080697" ry="2.24014507"></ellipse>
                                        <ellipse id="Oval-Copy-14" stroke="#F0AB00" stroke-width="1.86261646" transform="translate(79.796681, 34.783267) rotate(-90.000000) translate(-79.796681, -34.783267) " cx="79.7966813" cy="34.7832672" rx="2.23080697" ry="2.24014507"></ellipse>
                                        <path d="M48.884125,14.3277648 C53.5020578,14.3277648 57.7061462,16.0668 60.8482977,18.9159954 C64.0034223,21.7769542 66.0880702,25.7577399 66.4364326,30.2158531 C66.4752789,30.7129828 66.491875,31.2076028 66.4875733,31.6981895 C66.973702,31.6533468 67.4668507,31.6303681 67.9659779,31.6302744 C72.1791161,31.6294843 75.9668887,33.2594372 78.7027206,35.906145 C81.4313072,38.5458436 83.1110755,42.1968814 83.1110755,46.2323049 C83.1110755,50.261062 81.4372767,53.9067348 78.7362314,56.546322 C76.0222608,59.1985404 72.2721537,60.8360768 68.1315657,60.8360768 L68.1315657,60.8360768 L11.5882945,60.8360768 C8.76182797,60.573078 6.23947424,59.2899965 4.42605943,57.367486 C2.63241637,55.4659367 1.53391944,52.9369248 1.53391944,50.1576893 C1.53391944,47.5495295 2.50119586,45.1613699 4.10330483,43.3098524 C5.74351758,41.4142993 8.04735125,40.0795571 10.6661039,39.6382892 C11.0738455,39.5695835 11.4814723,39.5238438 11.8871061,39.4997799 C11.8878943,39.0862101 11.9053171,38.670132 11.9399154,38.2522645 C12.2797585,34.1477433 14.225769,30.4860555 17.1603126,27.8551074 C20.0864525,25.2316935 23.9955829,23.6323797 28.2879053,23.6323797 C29.4938546,23.6323797 30.6695156,23.7584532 31.8016456,23.9981022 C32.1762353,24.0773953 32.5501436,24.1699867 32.9228941,24.2759281 C33.0887878,23.9284995 33.2664807,23.5863644 33.4558224,23.2501864 C34.9794842,20.544911 37.2240518,18.2847618 39.9344088,16.7159889 C42.5575168,15.1977163 45.6172258,14.3277648 48.884125,14.3277648 Z" id="Combined-Shape" stroke="#F0AB00" stroke-width="3.06783887" transform="translate(42.322497, 37.581921) scale(-1, 1) translate(-42.322497, -37.581921) "></path>
                                        <path d="M80.8766589,32.2636328 C81.7581676,29.8523278 82.2390649,27.2489845 82.2390649,24.5336524 C82.2390649,12.0680553 72.1038594,1.96269219 59.6014499,1.96269219 C52.5347537,1.96269219 46.2243348,5.19116646 42.0729341,10.2495046" id="Oval" stroke="#F0AB00" stroke-width="3.06783887" stroke-linecap="round"></path>
                                        <path d="M72.0952952,35.3002831 C74.5997949,32.4136453 76.1148792,28.6500613 76.1148792,24.5336524 C76.1148792,15.4403907 68.7215651,8.06884567 59.6014499,8.06884567 C56.7986246,8.06884567 54.1588917,8.7650712 51.8467274,9.99353035" id="Oval" stroke="#F0AB00" stroke-width="3.06783887" stroke-linecap="round"></path>
                                        <path d="M69.4803447,24.5336524 C69.4803447,19.0937541 65.0574129,14.6838453 59.6014499,14.6838453 C57.7753765,14.6838453 56.0650228,15.1778411 54.5974833,16.0391122" id="Oval" stroke="#F0AB00" stroke-width="3.06783887" stroke-linecap="round"></path>
                                    </g>
                                </g>
                            </g>
                            <g id="CC-+1" transform="translate(24.385889, 39.191398)" fill-rule="nonzero">
                                <path d="M11.0140137,24.4014697 C12.627334,24.4014697 14.0105493,24.1946338 15.1636597,23.7809619 C16.31677,23.36729 17.3018262,22.7933203 18.1188281,22.0590527 C18.9358301,21.3247852 19.5925342,20.4560742 20.0889404,19.4529199 C20.5853467,18.4497656 20.9835059,17.3535352 21.283418,16.1642285 L21.283418,16.1642285 L15.2800049,14.8301367 C14.918042,16.2986719 14.4293921,17.4130005 13.8140552,18.1731226 C13.1987183,18.9332446 12.2757129,19.3133057 11.0450391,19.3133057 C9.48342773,19.3133057 8.30963379,18.6669434 7.52365723,17.3742188 C6.73768066,16.0814941 6.34469238,14.3544141 6.34469238,12.1929785 C6.34469238,9.99017578 6.72216797,8.28119385 7.47711914,7.06603271 C8.23207031,5.85087158 9.40069336,5.24329102 10.9829883,5.24329102 C11.6034961,5.24329102 12.1309277,5.34929443 12.5652832,5.56130127 C12.9996387,5.77330811 13.364187,6.05770752 13.6589282,6.41449951 C13.9536694,6.7712915 14.2018726,7.19530518 14.4035376,7.68654053 C14.6052026,8.17777588 14.7887695,8.70779297 14.9542383,9.2765918 L14.9542383,9.2765918 L20.9576514,7.49263184 C20.7094482,6.45845215 20.3526562,5.48115234 19.8872754,4.56073242 C19.4218945,3.6403125 18.8013867,2.84657959 18.025752,2.17953369 C17.2501172,1.51248779 16.2909155,0.982470703 15.148147,0.589482422 C14.0053784,0.196494141 12.627334,2.20268248e-13 11.0140137,2.20268248e-13 C9.51445312,2.20268248e-13 8.09762695,0.23269043 6.76353516,0.698071289 C5.42944336,1.16345215 4.26340576,1.88737793 3.26542236,2.86984863 C2.26743896,3.85231934 1.47370605,5.11143311 0.884223633,6.64718994 C0.294741211,8.18294678 -3.62376795e-13,10.031543 -3.62376795e-13,12.1929785 C-3.62376795e-13,14.3544141 0.284399414,16.2030103 0.853198242,17.7387671 C1.42199707,19.2745239 2.20021729,20.5362231 3.18785889,21.5238647 C4.17550049,22.5115063 5.34153809,23.2380176 6.68597168,23.7033984 C8.03040527,24.1687793 9.47308594,24.4014697 11.0140137,24.4014697 Z M33.1720312,24.4014697 C34.7853515,24.4014697 36.1685669,24.1946338 37.3216772,23.7809619 C38.4747876,23.36729 39.4598437,22.7933203 40.2768457,22.0590527 C41.0938476,21.3247852 41.7505517,20.4560742 42.246958,19.4529199 C42.7433642,18.4497656 43.1415234,17.3535352 43.4414355,16.1642285 L43.4414355,16.1642285 L37.4380224,14.8301367 C37.0760595,16.2986719 36.5874096,17.4130005 35.9720727,18.1731226 C35.3567358,18.9332446 34.4337304,19.3133057 33.2030566,19.3133057 C31.6414453,19.3133057 30.4676513,18.6669434 29.6816748,17.3742188 C28.8956982,16.0814941 28.5027099,14.3544141 28.5027099,12.1929785 C28.5027099,9.99017578 28.8801855,8.28119385 29.6351367,7.06603271 C30.3900878,5.85087158 31.5587109,5.24329102 33.1410058,5.24329102 C33.7615136,5.24329102 34.2889453,5.34929443 34.7233007,5.56130127 C35.1576562,5.77330811 35.5222045,6.05770752 35.8169458,6.41449951 C36.111687,6.7712915 36.3598901,7.19530518 36.5615551,7.68654053 C36.7632202,8.17777588 36.9467871,8.70779297 37.1122558,9.2765918 L37.1122558,9.2765918 L43.1156689,7.49263184 C42.8674658,6.45845215 42.5106738,5.48115234 42.0452929,4.56073242 C41.5799121,3.6403125 40.9594043,2.84657959 40.1837695,2.17953369 C39.4081347,1.51248779 38.4489331,0.982470703 37.3061645,0.589482422 C36.163396,0.196494141 34.7853515,2.20268248e-13 33.1720312,2.20268248e-13 C31.6724707,2.20268248e-13 30.2556445,0.23269043 28.9215527,0.698071289 C27.5874609,1.16345215 26.4214233,1.88737793 25.4234399,2.86984863 C24.4254565,3.85231934 23.6317236,5.11143311 23.0422412,6.64718994 C22.4527587,8.18294678 22.1580175,10.031543 22.1580175,12.1929785 C22.1580175,14.3544141 22.4424169,16.2030103 23.0112158,17.7387671 C23.5800146,19.2745239 24.3582348,20.5362231 25.3458764,21.5238647 C26.333518,22.5115063 27.4995556,23.2380176 28.8439892,23.7033984 C30.1884228,24.1687793 31.6311035,24.4014697 33.1720312,24.4014697 Z" id="CC" fill="#FFFFFF"></path>
                                <path d="M56.5188137,21.0352148 L56.5188137,14.9852637 L62.2119729,14.9852637 L62.2119729,10.0987646 L56.5188137,10.0987646 L56.5188137,4.06432617 L51.5702639,4.06432617 L51.5702639,10.0987646 L45.8771047,10.0987646 L45.8771047,14.9852637 L51.5702639,14.9852637 L51.5702639,21.0352148 L56.5188137,21.0352148 Z M78.0501712,23.9516016 L78.0501712,19.0651025 L74.4667385,19.0651025 L74.4667385,0.434355469 L68.4167874,0.434355469 C67.4032913,1.39614258 65.9968069,1.90806152 64.1973342,1.9701123 L64.1973342,1.9701123 L64.1973342,7.15135254 C64.8798928,7.15135254 65.5908914,7.04534912 66.3303298,6.83334229 C67.0697683,6.62133545 67.723887,6.36537598 68.2926858,6.06546387 L68.2926858,6.06546387 L68.2926858,19.0651025 L64.1352835,19.0651025 L64.1352835,23.9516016 L78.0501712,23.9516016 Z" id="+1" fill="#F0AB00"></path>
                            </g>
                        </g>
                    </g>
                </g>
            </g>
        </g>
    </g>
</svg>