<?xml version="1.0" encoding="UTF-8"?>
<svg width="127px" height="37px" viewBox="0 0 127 37" version="1.1" xmlns="http://www.w3.org/2000/svg">
    <title>Microsoft_Azure_Logo</title>
    <g id="Landingpage" stroke="none" stroke-width="1" fill="none" fill-rule="evenodd">
        <g id="Layout_Landingpage-SPECS" transform="translate(-1272.000000, -705.000000)" fill="#FFFFFF" fill-rule="nonzero">
            <g id="Header" transform="translate(-2575.000000, -291.000000)">
                <g id="Header-Box" transform="translate(2894.980783, 688.049974)">
                    <g id="Comp_bar" transform="translate(51.000000, 289.836584)">
                        <g id="Microsoft_Azure_Logo" transform="translate(902.000000, 18.163416)">
                            <path d="M21.6809675,34.0774693 C27.7020473,33.0226184 32.6751153,32.1497294 32.7322319,32.1377169 L32.8360813,32.1158752 L27.1515884,25.4102014 C24.0251197,21.7220802 21.4670983,18.6902267 21.4670983,18.6727496 C21.4670983,18.63966 27.3368173,2.60924093 27.3698149,2.55217026 C27.3808476,2.53314243 31.3753697,9.37260885 37.0527985,19.1315285 C42.3681114,28.2680039 46.7503291,35.8010607 46.7910605,35.8716514 L46.8651206,36 L28.7993334,35.997689 L10.7335496,35.9953874 L21.6809675,34.0774759 L21.6809675,34.0774693 Z M90.9611468,32.4557402 C88.2111795,32.280886 86.611787,30.7279279 86.187957,27.821137 C86.0752139,27.047883 86.0747829,27.0278205 86.0632453,22.0078726 L86.0520782,17.1494025 L87.2691427,17.1494025 L88.4862034,17.1494025 L88.4957877,21.8487952 C88.5044267,26.0842272 88.5098469,26.5808257 88.5506773,26.8787762 C88.7163853,28.0879801 89.0462817,28.9011429 89.6079306,29.4848172 C90.0574293,29.9519411 90.5836385,30.2254542 91.3120515,30.3705886 C91.6556992,30.439058 92.6332941,30.4391951 92.9466041,30.3708704 C93.6850722,30.2097018 94.276947,29.8909994 94.7990707,29.3733849 C95.3941823,28.7834117 95.8344339,27.9463629 96.0474562,26.9998264 L96.1192514,26.6808092 L96.1272463,21.9416465 L96.1352411,17.202485 L97.3777849,17.202485 L98.6203315,17.202485 L98.6203315,24.6525805 L98.6203315,32.1026753 L97.3905851,32.1026753 L96.1608387,32.1026753 L96.1608387,30.9206472 C96.1608387,30.1174978 96.151963,29.7415521 96.1331581,29.7477692 C96.1179366,29.7528046 96.0547785,29.8486236 95.9928072,29.9607069 C95.5690312,30.7271839 94.8629744,31.4281234 94.0892987,31.8504168 C93.1619141,32.3566069 92.2318676,32.5365969 90.9611496,32.4557966 L90.9611468,32.4557402 Z M118.873544,32.4437005 C117.902803,32.3713362 116.880667,32.0403479 116.045236,31.5278429 C114.284411,30.4476368 113.242537,28.6671066 112.93748,26.2167779 C112.831917,25.3688722 112.819229,24.2299179 112.907319,23.5094288 C113.104145,21.899545 113.742025,20.3191481 114.650367,19.1908873 C114.883225,18.9016529 115.411481,18.3777611 115.703113,18.1468418 C116.49064,17.5232599 117.411811,17.087201 118.389842,16.8750111 C118.95969,16.7513793 119.963201,16.693331 120.568632,16.7489781 C122.089521,16.88877 123.483433,17.5989413 124.430841,18.716697 C125.393393,19.8523238 125.922464,21.43917 125.990028,23.393166 C126.000617,23.6993881 126.003184,24.2362722 125.99574,24.5862417 L125.982194,25.2225485 L120.65552,25.2292372 L115.328846,25.2359259 L115.328846,25.4716664 C115.328846,26.1893109 115.504772,27.0066861 115.808909,27.7021215 C116.071182,28.3018281 116.522651,28.9566942 116.892297,29.2736015 C117.650225,29.9233928 118.577828,30.3123298 119.592859,30.405928 C119.96922,30.4406306 120.928382,30.4040962 121.357277,30.33874 C122.580942,30.1522407 123.744307,29.6762542 124.683793,28.9777102 C124.794326,28.8955233 124.900105,28.8187371 124.918856,28.8070769 C124.946296,28.7900131 124.952781,29.0047404 124.952086,29.9073577 L124.951234,31.0288413 L124.699508,31.1832413 C123.636716,31.8351219 122.419178,32.2537036 121.130054,32.4103968 C120.745341,32.4571569 119.33364,32.4779878 118.873559,32.4436911 L118.873544,32.4437005 Z M123.50933,22.985026 C123.50933,21.7829233 122.998528,20.4475362 122.275686,19.7599168 C121.759823,19.2691897 121.136214,18.9692899 120.394863,18.8554132 C120.044129,18.8015369 119.304923,18.822287 118.93514,18.8963883 C118.153434,19.0530363 117.50686,19.3938502 116.942919,19.9465026 C116.349406,20.5281345 115.904422,21.2345754 115.624572,22.0394665 C115.523941,22.3288964 115.406241,22.8040693 115.369707,23.0683835 L115.352301,23.1943197 L119.430814,23.1943197 L123.50933,23.1943197 L123.50933,22.985026 Z M51.2539739,32.0694777 C51.2602134,32.05125 53.0690262,27.3386412 55.2735609,21.5970139 L59.2818051,11.1575328 L60.5696759,11.1575328 L61.8575439,11.1575328 L61.9643989,11.4292892 C62.2909364,12.2597526 69.9886204,32.0799824 69.9886204,32.0902795 C69.9886204,32.0970622 69.3720762,32.1024214 68.6185222,32.1024214 L67.248424,32.1021379 L66.1389789,29.1727311 L65.0295339,26.2433253 L60.5623916,26.2432717 L56.0952483,26.2432191 L56.0564279,26.3426418 C56.0350787,26.3973241 55.561073,27.7154633 55.0030782,29.2718419 L53.9885479,32.1016156 L52.6155893,32.1020853 C51.5288329,32.1024214 51.2449968,32.0956408 51.2539739,32.0694082 L51.2539739,32.0694777 Z M64.2141582,24.0077738 C64.2141582,24.003133 63.4675447,21.9957793 62.5550167,19.546996 C60.8478343,14.9657451 60.752334,14.6901024 60.6174517,13.9546106 C60.5542025,13.6097253 60.5221996,13.6001412 60.484658,13.9148417 C60.4578223,14.1397863 60.3414644,14.6431299 60.2517603,14.9223284 C60.2072508,15.0608577 59.4384696,17.1534477 58.543356,19.5725278 C57.6482442,21.9916082 56.9158793,23.981062 56.9158793,23.9935358 C56.9158793,24.0060105 58.5579929,24.0162164 60.5650192,24.0162164 C62.5720455,24.0162164 64.2141582,24.0124211 64.2141582,24.007771 L64.2141582,24.0077738 Z M70.8173627,31.7210921 L70.8173627,31.3395643 L75.2680001,25.2718544 L79.7186374,19.2041436 L75.6890546,19.1908873 L71.6594718,19.177631 L71.6524716,18.1635166 L71.6454714,17.1494025 L77.4737196,17.1494025 L83.3019669,17.1494025 L83.3019669,17.4919243 L83.3019669,17.8344457 L78.8508189,23.935246 C76.4026876,27.290687 74.399671,30.0416914 74.399671,30.0485906 C74.399671,30.055486 76.3786273,30.0611339 78.7973512,30.0611339 L83.1950323,30.0611339 L83.1950323,31.0818759 L83.1950323,32.1026189 L77.0061966,32.1026189 L70.8173627,32.1026189 L70.8173627,31.7210921 Z M103.476937,32.0849426 C103.467134,32.0752233 103.459114,28.7107497 103.459114,24.6083352 L103.459114,17.1494025 L104.675494,17.1494025 L105.891874,17.1494025 L105.891874,18.6871444 C105.891874,19.5329027 105.902244,20.2248866 105.914921,20.2248866 C105.927598,20.2248866 105.986799,20.0864447 106.046479,19.9172384 C106.319962,19.1418707 106.794235,18.4173712 107.405262,17.84156 C107.955706,17.3228391 108.584816,17.0126413 109.327144,16.8939303 C109.535667,16.8605833 109.712108,16.8542168 110.129153,16.8649902 C110.652912,16.8785199 110.926742,16.9164888 111.245282,17.01975 L111.345532,17.0522486 L111.345532,18.3044086 L111.345532,19.5565679 L111.058146,19.4138985 C110.550493,19.1618806 110.049591,19.0621488 109.447445,19.0932007 C109.055559,19.1134107 108.798337,19.163316 108.485035,19.2799274 C107.84041,19.5198568 107.317527,19.9433508 106.952161,20.5214308 C106.423239,21.3582907 106.046007,22.4339904 105.934744,23.4226594 C105.914777,23.6000838 105.903003,25.0450723 105.898314,27.8937126 L105.891389,32.1026189 L104.693074,32.1026189 C104.034002,32.1026189 103.48674,32.0946619 103.476939,32.0849426 L103.476937,32.0849426 Z M0,32.0325619 C0,32.0231206 2.6785055,27.4118528 5.95223433,21.7852963 L11.9044677,11.5551944 L18.8411076,5.78203706 C22.6562596,2.60680123 25.7880215,0.00499895089 25.8005774,0.000123463439 C25.8131332,-0.00449022873 25.7629458,0.120781785 25.6890495,0.278637919 C25.6151533,0.436494053 22.2256567,7.64655422 18.1568348,16.3009932 L10.7589787,32.0363365 L5.37948933,32.0430253 C2.42077086,32.0467078 0,32.0419919 0,32.0325581 L0,32.0325619 Z" id="path21"></path>
                        </g>
                    </g>
                </g>
            </g>
        </g>
    </g>
</svg>