<svg xmlns="http://www.w3.org/2000/svg" width="65" height="33"><defs><linearGradient x1="50%" y1="0%" x2="50%" y2="100%" id="A"><stop stop-color="#00b8f1" offset="0%"/><stop stop-color="#01b6f0" offset="2%"/><stop stop-color="#0d90d9" offset="31%"/><stop stop-color="#1775c8" offset="58%"/><stop stop-color="#1c65bf" offset="82%"/><stop stop-color="#1e5fbb" offset="100%"/></linearGradient></defs><g fill-rule="evenodd"><path fill="url(#A)" d="M0 32h32.178L63.671 0H0v32" transform="translate(.981 .05)"/><path d="M38.617 5.867h-6.255v15.265l-5.463-15.27h-5.417L16.82 18.629c-.499-3.218-3.734-4.33-6.292-5.164-1.685-.555-3.474-1.373-3.451-2.277.014-.74.96-1.423 2.832-1.325 1.259.068 2.368.172 4.577 1.265l2.172-3.883c-2.023-1.052-4.805-1.718-7.09-1.721h-.014c-2.662 0-4.88.886-6.255 2.345a5.49 5.49 0 0 0-1.496 3.745c-.035 1.969.669 3.369 2.148 4.476 1.248.939 2.844 1.548 4.252 1.996 1.736.552 3.154 1.033 3.137 2.056-.01.377-.156.737-.411 1.009-.433.459-1.098.633-2.017.648-1.77.038-3.081-.247-5.178-1.517l-1.93 3.94c2.161 1.259 4.602 1.925 7.087 1.933h.325c2.194-.04 3.965-.682 5.38-1.852.082-.065.154-.133.23-.202l-.635 1.716h5.674l.954-2.977c1.077.367 2.205.55 3.34.542 1.106.006 2.206-.168 3.26-.514l.924 2.948h9.265v-6.168h2.02c4.885 0 7.774-2.554 7.774-6.832 0-4.762-2.807-6.949-8.783-6.949zm-14.453 13.07c-.683.004-1.362-.118-2.003-.361l1.983-6.42h.034l1.949 6.439a5.79 5.79 0 0 1-1.963.342h0zm14.82-3.69h-1.377v-5.181h1.377c1.838 0 3.303.633 3.303 2.553 0 1.993-1.465 2.621-3.303 2.621v.008z" fill="#fff"/></g></svg>