<svg xmlns="http://www.w3.org/2000/svg" width="105" height="75"  fill="none" fill-rule="evenodd"><g stroke="#19232f" stroke-width="3"><path d="M74.5 38h23.01"/><circle cx="98.5" cy="38.5" r="4" fill="#1c2837"/></g><circle stroke="#fff" stroke-width="3" fill="#1c2837" cx="37.5" cy="37.5" r="35.5"/><g fill-rule="nonzero"><path d="M38 16c-12.131 0-22 9.869-22 22s9.869 22 22 22 22-9.869 22-22-9.869-22-22-22zm0 43.043c-11.603 0-21.043-9.441-21.043-21.043S26.397 16.957 38 16.957 59.043 26.397 59.043 38 49.603 59.043 38 59.043zm0-36.348c-8.439 0-15.304 6.865-15.304 15.304S29.561 53.304 38 53.304 53.304 46.439 53.304 38 46.439 22.696 38 22.696zm0 29.652A14.37 14.37 0 0 1 23.652 38 14.37 14.37 0 0 1 38 23.652 14.37 14.37 0 0 1 52.348 38 14.37 14.37 0 0 1 38 52.348zm0-22.957A8.62 8.62 0 0 0 29.391 38 8.62 8.62 0 0 0 38 46.609 8.62 8.62 0 0 0 46.609 38 8.62 8.62 0 0 0 38 29.391zm0 16.261c-4.218 0-7.652-3.434-7.652-7.652s3.434-7.652 7.652-7.652 7.652 3.434 7.652 7.652-3.434 7.652-7.652 7.652zm0-9.565c-1.055 0-1.913.858-1.913 1.913s.858 1.913 1.913 1.913 1.913-.858 1.913-1.913-.858-1.913-1.913-1.913zm0 2.87c-.528 0-.957-.428-.957-.957s.428-.957.957-.957.957.428.957.957-.428.957-.957.957z" fill="#fff"/><path d="M61.189 32.062a23.67 23.67 0 0 0-2.377-5.891l-.011.007a23.2 23.2 0 0 0-3.771-5.034c-1.538-1.576-3.031-2.752-4.912-3.865l.007-.009a22.48 22.48 0 0 0-5.749-2.436c-2.11-.581-4.089-.834-6.146-.834l-.005 24.344-.025.016.014.007-.014.023.025-.016.005.002v.014l.005-.009L58.809 50.57a23.67 23.67 0 0 0 2.377-5.891c.567-2.16.814-4.211.814-6.32s-.247-4.137-.811-6.298z" fill="#0095db"/><g fill="#fbba00"><path d="M38.199 38.36l20.613 12.21a23.67 23.67 0 0 0 2.377-5.891A24.55 24.55 0 0 0 62 38.36H38.199z"/><path d="M61.189 32.062a23.67 23.67 0 0 0-2.377-5.891L38.199 38.36H62c0-2.108-.247-4.137-.811-6.298z" opacity=".7"/><path d="M55.029 21.144a22.74 22.74 0 0 0-4.93-3.877L38.197 38.39l20.613-12.196a23.13 23.13 0 0 0-3.781-5.05z" opacity=".4"/></g></g></svg>