<svg width="78" height="55" viewBox="0 0 78 55" fill="none" xmlns="http://www.w3.org/2000/svg">
<path d="M77.0301 14.5104C76.9933 14.4834 76.9567 14.458 76.9204 14.4344C73.6606 12.3156 69.7756 11.0857 65.605 11.0857C64.0689 11.0857 62.5715 11.2525 61.1298 11.5692C57.3177 4.66667 50.0285 0 41.6627 0C29.9051 0 20.2738 9.21809 19.4338 20.9059L19.2168 20.9044L18.899 20.907C8.43246 21.0784 0 29.6972 0 40.3044C0 45.9318 2.60352 50.9996 6.61343 54.5433H12.5922C7.50621 52.0259 4 46.7092 4 40.5575C4 31.9763 10.8226 25.0199 19.2386 25.0199C20.4421 25.0199 21.6129 25.1622 22.7354 25.4318C22.6456 24.6615 22.5994 23.8774 22.5994 23.0822C22.5994 12.2912 31.1081 3.54329 41.604 3.54329C49.6518 3.54329 56.5313 8.68626 59.3023 15.95C61.1889 15.2366 63.2297 14.8468 65.3597 14.8468C69.5681 14.8468 73.4279 16.3682 76.4389 18.9011C76.6353 19.0663 76.8325 19.3127 77.0301 19.6316V14.5104Z" fill="#F0AB00"/>
</svg>
