<svg xmlns="http://www.w3.org/2000/svg" width="24" height="24" viewBox="0 0 24 24">
  <defs>
    <filter id="filter-1" color-interpolation-filters="auto">
      <feColorMatrix in="SourceGraphic" values="0 0 0 0 0.588235 0 0 0 0 0.588235 0 0 0 0 0.588235 0 0 0 1.000000 0"/>
    </filter>
  </defs>
  <g id="WHOIS-App" fill="none" fill-rule="evenodd" stroke="none" stroke-width="1">
    <g id="WHOIS-App-Search" transform="translate(-1178 -603)">
      <g id="Searchform" transform="translate(651 488)">
        <g id="search_black_24dp-(1)" filter="url(#filter-1)" transform="translate(0 101)">
          <g transform="translate(527 14)">
            <polygon id="Path" points="0 0 24 0 24 24 0 24"/>
            <path id="Shape" fill="#000810" fill-rule="nonzero" d="M15.5,14 L14.71,14 L14.43,13.73 C15.41,12.59 16,11.11 16,9.5 C16,5.91 13.09,3 9.5,3 C5.91,3 3,5.91 3,9.5 C3,13.09 5.91,16 9.5,16 C11.11,16 12.59,15.41 13.73,14.43 L14,14.71 L14,15.5 L19,20.49 L20.49,19 L15.5,14 Z M9.5,14 C7.01,14 5,11.99 5,9.5 C5,7.01 7.01,5 9.5,5 C11.99,5 14,7.01 14,9.5 C14,11.99 11.99,14 9.5,14 Z"/>
          </g>
        </g>
      </g>
    </g>
  </g>
</svg>
