<!--
  ~ SPDX-FileCopyrightText: 2024 SAP SE or an SAP affiliate company and Juno contributors
  ~ SPDX-License-Identifier: Apache-2.0
-->

<svg height="40" viewBox="0 0 82 40" fill="none" xmlns="http://www.w3.org/2000/svg">
<title>SAP Logo</title>
<path fill-rule="evenodd" clip-rule="evenodd" d="M0 40H41.2286L81.5789 0H0V40Z" fill="url(#paint0_linear_250_2398)"/>
<path fill-rule="evenodd" clip-rule="evenodd" d="M48.2209 7.27111H40.2071V26.3527L33.2079 7.26518H26.268L20.2932 23.2232C19.6537 19.2001 15.5086 17.8103 12.2321 16.7684C10.0727 16.0745 7.78107 15.0524 7.81068 13.9216C7.82844 12.9964 9.04038 12.1423 11.4386 12.2649C13.0512 12.3499 14.4724 12.4804 17.3028 13.8465L20.0859 8.99304C17.4943 7.67836 13.9296 6.84606 11.0024 6.84211H10.9846C7.57382 6.84211 4.73151 7.9492 2.97085 9.77394C1.75165 11.0275 1.06473 12.7054 1.05426 14.4554C1.00886 16.9167 1.9109 18.6663 3.80578 20.0502C5.40458 21.2245 7.44947 21.9856 9.25355 22.5451C11.4781 23.2351 13.294 23.8361 13.2723 25.1152C13.2597 25.5867 13.0718 26.0365 12.7453 26.3765C12.1906 26.9498 11.3379 27.1673 10.1615 27.187C7.89358 27.2345 6.21385 26.8786 3.52747 25.2911L1.05426 30.2157C3.82299 31.7897 6.95026 32.6218 10.1339 32.6316H10.5504C13.3611 32.5822 15.631 31.7795 17.443 30.3166C17.5476 30.2355 17.6403 30.1505 17.7371 30.0635L16.9238 32.2085H24.1935L25.4153 28.4879C26.7952 28.9464 28.2407 29.1754 29.6945 29.166C31.1118 29.1729 32.5213 28.9561 33.8711 28.5235L35.0554 32.2085H46.9261V24.4984H49.5137C55.7728 24.4984 59.4737 21.3056 59.4737 15.9579C59.4737 10.0052 55.8774 7.27111 48.2209 7.27111ZM29.7024 23.6087C28.827 23.614 27.9578 23.4613 27.1364 23.158L29.6768 15.1335H29.7202L32.2171 23.1817C31.4089 23.4649 30.5587 23.6093 29.7024 23.6087ZM48.6907 18.9965H46.9261V12.5199H48.6907C51.0454 12.5199 52.9225 13.3107 52.9225 15.7108C52.9225 18.2017 51.0454 18.9866 48.6907 18.9866V18.9965Z" fill="white"/>
<defs>
<linearGradient id="paint0_linear_250_2398" x1="0" y1="0" x2="0" y2="40" gradientUnits="userSpaceOnUse">
<stop stop-color="#00B8F1"/>
<stop offset="0.02" stop-color="#01B6F0"/>
<stop offset="0.31" stop-color="#0D90D9"/>
<stop offset="0.58" stop-color="#1775C8"/>
<stop offset="0.82" stop-color="#1C65BF"/>
<stop offset="1" stop-color="#1E5FBB"/>
</linearGradient>
</defs>
</svg>
