<svg data-name="Layer 1" xmlns="http://www.w3.org/2000/svg" viewBox="0 0 412.38 204" role="img"><title>SAP Logo</title><defs><linearGradient id="a" x1="206.19" x2="206.19" y2="204" gradientUnits="userSpaceOnUse"><stop offset="0" stop-color="#00b8f1"/><stop offset=".02" stop-color="#01b6f0"/><stop offset=".31" stop-color="#0d90d9"/><stop offset=".58" stop-color="#1775c8"/><stop offset=".82" stop-color="#1c65bf"/><stop offset="1" stop-color="#1e5fbb"/></linearGradient></defs><path style="fill:url(#a);fill-rule:evenodd" d="M0 204h208.41L412.38 0H0v204"/><path d="M244.73 38.36h-40.6v96.52l-35.46-96.55h-35.16l-30.27 80.72C100 98.7 79 91.67 62.4 86.4 51.46 82.89 39.85 77.72 40 72c.09-4.68 6.23-9 18.38-8.38 8.17.43 15.37 1.09 29.71 8l14.1-24.55C89.06 40.42 71 36.21 56.17 36.19h-.09c-17.28 0-31.68 5.6-40.6 14.83A34.23 34.23 0 0 0 5.77 74.7C5.54 87.15 10.11 96 19.71 103c8.1 5.94 18.46 9.79 27.6 12.62 11.27 3.49 20.47 6.53 20.36 13A9.57 9.57 0 0 1 65 135c-2.81 2.9-7.13 4-13.09 4.1-11.49.24-20-1.56-33.61-9.59L5.77 154.42a93.77 93.77 0 0 0 46 12.22h2.11c14.24-.25 25.74-4.31 34.92-11.71.53-.41 1-.84 1.49-1.28l-4.12 10.85H123l6.19-18.82a67.46 67.46 0 0 0 21.68 3.43 68.33 68.33 0 0 0 21.16-3.25l6 18.64h60.14v-39h13.11c31.71 0 50.46-16.15 50.46-43.2 0-30.11-18.22-43.94-57.01-43.94ZM150.91 121a36.93 36.93 0 0 1-13-2.28l12.87-40.59h.22l12.65 40.71a38.5 38.5 0 0 1-12.74 2.16Zm96.2-23.33h-8.94V64.91h8.94c11.93 0 21.44 4 21.44 16.14 0 12.6-9.51 16.57-21.44 16.57" style="fill:#fff;fill-rule:evenodd"/></svg>