<!--
  ~ SPDX-FileCopyrightText: 2024 SAP SE or an SAP affiliate company and Juno contributors
  ~ SPDX-License-Identifier: Apache-2.0
-->

<svg width="531" height="259" viewBox="0 0 531 259" fill="rgba(36, 42, 49, 1)" xmlns="http://www.w3.org/2000/svg">
<path fill-rule="evenodd" clip-rule="evenodd" d="M367.093 9.3186C367.055 9.18866 367.021 9.05655 366.991 8.92235C366.164 5.23367 368.674 1.3659 372.597 0.283451C376.52 -0.798997 380.372 1.31378 381.199 5.00246C382.026 8.69115 379.517 12.5589 375.593 13.6414C373.399 14.2468 371.227 13.8527 369.594 12.7423L279.437 52.8447L321.576 66.6153C322.015 67.7546 322.997 68.474 323.707 68.8435C324.769 69.3955 326.067 69.6643 327.367 69.6643C328.215 69.6643 329.062 69.5499 329.843 69.3171L330.777 69.6221L350.063 60.8338V65.3885L336.524 71.5581L344.713 74.3298L338.984 76.7662L330.257 73.8127L330.236 73.8058L277.756 56.6556C274.287 55.522 274.04 50.7094 277.374 49.2262L367.093 9.3186ZM374.686 9.59721C372.687 10.1489 371.251 8.99927 370.987 7.82003C370.722 6.64079 371.504 4.87929 373.504 4.32761C375.504 3.77592 376.939 4.92554 377.204 6.10479C377.468 7.28403 376.686 9.04552 374.686 9.59721Z" fill="#242A31"/>
<path fill-rule="evenodd" clip-rule="evenodd" d="M362.103 59.9026V55.3479L461.896 9.8753C461.071 6.18767 463.58 2.32201 467.502 1.23991C471.425 0.157458 475.277 2.27023 476.104 5.95892C476.931 9.6476 474.422 13.5154 470.498 14.5978C468.128 15.2518 465.784 14.7394 464.117 13.4177L362.103 59.9026ZM465.892 8.77649C466.156 9.95573 467.592 11.1053 469.591 10.5537C471.591 10.002 472.373 8.24048 472.109 7.06124C471.844 5.882 470.409 4.73238 468.409 5.28406C466.41 5.83575 465.627 7.59724 465.892 8.77649Z" fill="#242A31"/>
<path fill-rule="evenodd" clip-rule="evenodd" d="M377.088 89.6623V85.2868L389.386 89.4488L440.622 67.4903C439.845 63.8244 442.347 60.0018 446.244 58.9267C450.167 57.8442 454.019 59.957 454.846 63.6457C455.673 67.3344 453.164 71.2021 449.24 72.2846C446.845 72.9454 444.477 72.4154 442.807 71.063L421.312 80.2754L446.833 88.2349L503.664 63.5383C503.577 63.2948 503.504 63.043 503.446 62.7833C502.618 59.0946 505.128 55.2268 509.051 54.1444C512.975 53.0619 516.826 55.1747 517.653 58.8634C518.481 62.5521 515.971 66.4199 512.048 67.5023C510.025 68.0604 508.021 67.7692 506.442 66.8505L448.43 92.0597C447.553 92.4409 446.568 92.4939 445.655 92.2092L415.448 82.7883L395.264 91.4385L466.328 115.49L515.726 93.3469C515.712 93.2928 515.699 93.2383 515.687 93.1835C514.86 89.4948 517.369 85.627 521.293 84.5446C525.216 83.4621 529.067 85.5749 529.895 89.2636C530.722 92.9523 528.212 96.8201 524.289 97.9025C521.99 98.5367 519.716 98.074 518.061 96.8401L467.851 119.345C466.961 119.712 465.968 119.744 465.056 119.435L389.56 93.8834L377.088 98.7552V94.3467L383.681 91.8937L377.088 89.6623ZM448.333 68.2404C446.334 68.7921 444.898 67.6425 444.634 66.4633C444.369 65.284 445.152 63.5225 447.151 62.9708C449.151 62.4191 450.586 63.5688 450.851 64.748C451.115 65.9273 450.333 67.6888 448.333 68.2404ZM511.141 63.4582C509.141 64.0098 507.706 62.8602 507.441 61.681C507.177 60.5017 507.959 58.7402 509.959 58.1886C511.958 57.6369 513.394 58.7865 513.658 59.9657C513.923 61.145 513.14 62.9065 511.141 63.4582ZM519.682 92.0812C519.947 93.2604 521.382 94.41 523.382 93.8584C525.381 93.3067 526.164 91.5452 525.899 90.3659C525.635 89.1867 524.199 88.0371 522.2 88.5888C520.2 89.1404 519.418 90.9019 519.682 92.0812Z" fill="#242A31"/>
<path fill-rule="evenodd" clip-rule="evenodd" d="M311.069 118.91V124.544L266.265 142.046L392.512 184.773C395.799 185.886 396.193 190.375 393.151 192.043L289.486 248.874C289.627 249.212 289.741 249.567 289.825 249.939C290.652 253.627 288.142 257.495 284.219 258.578C280.296 259.66 276.445 257.547 275.617 253.859C274.79 250.17 277.299 246.302 281.223 245.22C283.143 244.69 285.047 244.926 286.586 245.737L390.84 188.583L328.36 167.437L175.343 241.222C175.348 241.241 175.353 241.261 175.357 241.281L175.363 241.306L175.369 241.331C176.196 245.019 173.686 248.887 169.763 249.969C165.84 251.052 161.988 248.939 161.161 245.25C160.334 241.562 162.843 237.694 166.767 236.612C169.095 235.969 171.398 236.452 173.059 237.722L322.753 165.54L260.561 144.491L122.932 203.474C122.99 203.655 123.04 203.84 123.083 204.029C123.91 207.717 121.4 211.585 117.477 212.668C113.554 213.75 109.702 211.637 108.875 207.949C108.048 204.26 110.557 200.392 114.481 199.31C116.619 198.72 118.736 199.079 120.353 200.125L120.333 200.079L295.311 125.088L239.612 105.041L14.3274 195.261C14.3364 195.297 14.3452 195.333 14.3537 195.37C14.3577 195.387 14.3616 195.404 14.3654 195.421C15.1928 199.109 12.683 202.977 8.7597 204.059C4.83637 205.142 0.985135 203.029 0.157734 199.34C-0.669668 195.652 1.84008 191.784 5.76342 190.702C8.0492 190.071 10.3105 190.525 11.9636 191.743L238.19 101.148C239.08 100.808 240.063 100.798 240.96 101.121L300.897 122.694L311.069 118.91ZM283.312 254.534C281.312 255.085 279.877 253.936 279.612 252.756C279.348 251.577 280.13 249.816 282.13 249.264C284.13 248.712 285.565 249.862 285.829 251.041C286.094 252.22 285.312 253.982 283.312 254.534ZM165.156 244.148C165.421 245.327 166.856 246.477 168.856 245.925C170.855 245.374 171.638 243.612 171.373 242.433C171.109 241.254 169.673 240.104 167.674 240.656C165.674 241.207 164.892 242.969 165.156 244.148ZM116.57 208.623C114.57 209.175 113.135 208.025 112.87 206.846C112.606 205.667 113.388 203.906 115.388 203.354C117.387 202.802 118.823 203.952 119.087 205.131C119.352 206.31 118.569 208.072 116.57 208.623ZM4.1531 198.238C4.41762 199.417 5.85298 200.567 7.85257 200.015C9.85215 199.464 10.6345 197.702 10.37 196.523C10.1055 195.344 8.67014 194.194 6.67055 194.746C4.67097 195.297 3.88859 197.059 4.1531 198.238Z" fill="#242A31"/>
<path fill-rule="evenodd" clip-rule="evenodd" d="M333.151 42.123C331.531 44.373 330.956 47.1808 330.956 48.9994V65.3676C330.956 66.3985 329.349 67.2341 327.367 67.2341C325.384 67.2341 323.777 66.3985 323.777 65.3676V48.9994C323.777 46.032 324.638 41.6608 327.325 37.9283C330.145 34.0128 334.812 31.0519 341.725 31.0519C348.638 31.0519 353.305 34.0128 356.124 37.9283C358.812 41.6608 359.672 46.032 359.672 48.9994V70.7487C359.76 70.7566 359.847 70.7751 359.931 70.8044L373.933 75.6802C374.15 75.7559 374.332 75.8963 374.459 76.0754L374.658 76.1447L374.534 76.1975C374.613 76.3491 374.658 76.5208 374.658 76.7002V126.693C374.658 127.127 374.399 127.518 374 127.687L328.988 146.791C328.871 146.841 328.746 146.869 328.62 146.875V147.159L313.499 142.341V90.4556L313.663 90.3859C313.778 90.2018 313.948 90.0525 314.156 89.9639L350.228 74.6255C350.726 74.7249 351.245 74.774 351.763 74.774C352.007 74.774 352.251 74.7631 352.493 74.7412V48.9994C352.493 47.1808 351.918 44.373 350.298 42.123C348.81 40.0561 346.298 38.2309 341.725 38.2309C337.152 38.2309 334.64 40.0561 333.151 42.123ZM373.453 76.6568L373.578 76.7002V126.693L328.62 145.774V95.7209L373.453 76.6568ZM332.72 89.7449C335.031 89.7449 336.905 88.8382 336.905 87.7197C336.905 86.6013 335.031 85.6946 332.72 85.6946C330.408 85.6946 328.534 86.6013 328.534 87.7197C328.534 88.8382 330.408 89.7449 332.72 89.7449Z" fill="#242A31"/>
</svg>
