<!--
  ~ SPDX-FileCopyrightText: 2024 SAP SE or an SAP affiliate company and Juno contributors
  ~ SPDX-License-Identifier: Apache-2.0
-->

<svg width="103" height="95" viewBox="0 0 103 95" fill="none" xmlns="http://www.w3.org/2000/svg">
<path fill-rule="evenodd" clip-rule="evenodd" d="M0 7C0 3.13401 3.13401 0 7 0H96C99.866 0 103 3.13401 103 7V75C103 78.866 99.866 82 96 82H43.5933V77.9664C45.0553 76.3028 46.1529 74.4709 46.854 72.4719C47.6141 70.3046 48 68.0989 48 65.8639C48 60.5883 46.1786 56.0621 42.5256 52.4352C38.8726 48.8084 34.3136 47 29 47C23.6864 47 19.1274 48.8084 15.4744 52.4352C11.8214 56.0621 10 60.5883 10 65.8639C10 68.0989 10.3859 70.3046 11.146 72.4719C11.8472 74.4709 12.9447 76.3028 14.4067 77.9664V82H7C3.13401 82 0 78.866 0 75V7ZM89 23H14V30H89V23ZM44 38H89V45H44V38ZM89 53H60V60H89V53Z"/>
<path d="M26.1293 67.3133C25.7207 67.7152 25.2128 67.9161 24.6057 67.9161C23.9986 67.9161 23.4907 67.7152 23.0821 67.3133C22.6735 66.9114 22.4692 66.412 22.4692 65.8149C22.4692 65.2178 22.6735 64.7184 23.0821 64.3165C23.4907 63.9146 23.9986 63.7137 24.6057 63.7137C25.2128 63.7137 25.7207 63.9146 26.1293 64.3165C26.5379 64.7184 26.7422 65.2178 26.7422 65.8149C26.7422 66.412 26.5379 66.9114 26.1293 67.3133Z"/>
<path fill-rule="evenodd" clip-rule="evenodd" d="M17.9833 76.4175V94.8333L29.1746 91.0871L40.3659 94.8333V76.4175C41.7885 74.9316 42.808 73.3035 43.4245 71.5331C44.041 69.7628 44.3492 67.9766 44.3492 66.1746C44.3492 61.8751 42.895 58.2712 39.9865 55.3627C37.078 52.4542 33.4741 51 29.1746 51C24.8751 51 21.2712 52.4542 18.3627 55.3627C15.4542 58.2712 14 61.8751 14 66.1746C14 67.9766 14.3082 69.7628 14.9247 71.5331C15.5412 73.3035 16.5607 74.9316 17.9833 76.4175ZM29.1746 88.2419L20.8286 90.85V78.7411C22.0931 79.6579 23.4525 80.3218 24.9067 80.7327C26.361 81.1437 27.7836 81.3492 29.1746 81.3492C30.5656 81.3492 31.9882 81.1437 33.4425 80.7327C34.8967 80.3218 36.2561 79.6579 37.5206 78.7411V90.85L29.1746 88.2419ZM21.5935 68.7773C22.4108 69.581 23.4148 69.9829 24.6057 69.9829C25.563 69.9829 26.427 69.7073 27.1975 69.1562C27.9681 68.605 28.4818 67.8817 28.7386 66.9861H36.4792V69.9829H38.5807V66.9861H39.9817V64.9193H28.7386C28.4584 63.9778 27.9447 63.197 27.1975 62.577C26.4503 61.957 25.5864 61.6469 24.6057 61.6469C23.4148 61.6469 22.4108 62.0488 21.5935 62.8526C20.7763 63.6563 20.3677 64.6437 20.3677 65.8149C20.3677 66.9861 20.7763 67.9735 21.5935 68.7773Z"/>
</svg>
