<svg width="135" height="75" xmlns="http://www.w3.org/2000/svg" xmlns:xlink="http://www.w3.org/1999/xlink"><defs><path d="M85.86 0v38.88l-66.421-.001.001 25.921H0V0h85.86z" id="a"/></defs><g fill="none" fill-rule="evenodd"><path d="M.98.05h134v74H.98z"/><g transform="translate(17.98 4.05)"><mask id="b" fill="#fff"><use xlink:href="#a"/></mask><g mask="url(#b)"><g transform="translate(.81 .81)" stroke="#F0AB00"><ellipse stroke-width="1.863" transform="rotate(-90 49.467 11.522)" cx="49.467" cy="11.522" rx="2.231" ry="2.24"/><ellipse stroke-width="1.863" transform="rotate(-90 79.797 34.783)" cx="79.797" cy="34.783" rx="2.231" ry="2.24"/><path d="M35.76 14.328c-4.617 0-8.821 1.739-11.963 4.588-3.155 2.861-5.24 6.842-5.588 11.3-.04.497-.056.992-.052 1.482-.486-.045-.979-.068-1.478-.068-4.213 0-8 1.63-10.737 4.276-2.728 2.64-4.408 6.29-4.408 10.326 0 4.03 1.674 7.675 4.375 10.314 2.714 2.653 6.464 4.29 10.604 4.29h56.544a11.268 11.268 0 007.162-3.469c1.794-1.901 2.892-4.43 2.892-7.21 0-2.607-.967-4.996-2.57-6.847a11.116 11.116 0 00-6.562-3.672 11.417 11.417 0 00-1.221-.138c0-.414-.018-.83-.053-1.248-.34-4.104-2.286-7.766-5.22-10.397-2.926-2.623-6.836-4.223-11.128-4.223a16.955 16.955 0 00-4.635.644c-.166-.348-.343-.69-.533-1.026a17.487 17.487 0 00-6.478-6.534 17.815 17.815 0 00-8.95-2.388z" stroke-width="3.068"/><path d="M80.877 32.264a22.469 22.469 0 001.362-7.73c0-12.466-10.135-22.571-22.638-22.571a22.618 22.618 0 00-17.528 8.287" stroke-width="3.068" stroke-linecap="round"/><path d="M72.095 35.3a16.373 16.373 0 004.02-10.766c0-9.094-7.393-16.465-16.514-16.465a16.48 16.48 0 00-7.754 1.925" stroke-width="3.068" stroke-linecap="round"/><path d="M69.48 24.534c0-5.44-4.423-9.85-9.879-9.85a9.855 9.855 0 00-5.004 1.355" stroke-width="3.068" stroke-linecap="round"/></g></g></g><g fill-rule="nonzero"><path d="M53.38 67.643c1.614 0 2.997-.207 4.15-.62 1.153-.414 2.138-.988 2.956-1.723a8.592 8.592 0 001.97-2.606c.496-1.003.894-2.1 1.194-3.288l-6.003-1.334c-.362 1.468-.85 2.582-1.466 3.342-.616.76-1.539 1.14-2.77 1.14-1.56 0-2.735-.646-3.52-1.938-.787-1.293-1.18-3.02-1.18-5.182 0-2.202.378-3.911 1.133-5.127.755-1.215 1.923-1.822 3.506-1.822.62 0 1.148.106 1.582.318.434.212.799.496 1.094.853.294.357.543.78.744 1.272.202.491.385 1.021.55 1.59l6.004-1.784a13.407 13.407 0 00-1.07-2.932 7.679 7.679 0 00-1.862-2.381c-.775-.667-1.734-1.197-2.877-1.59-1.143-.393-2.521-.59-4.134-.59-1.5 0-2.917.233-4.25.698a9.28 9.28 0 00-3.499 2.172c-.998.983-1.792 2.242-2.381 3.778-.59 1.535-.884 3.384-.884 5.545 0 2.162.284 4.01.853 5.546.569 1.536 1.347 2.798 2.335 3.785a9.079 9.079 0 003.498 2.18c1.344.465 2.787.698 4.328.698zm22.159 0c1.613 0 2.996-.207 4.15-.62 1.152-.414 2.138-.988 2.955-1.723a8.592 8.592 0 001.97-2.606c.496-1.003.894-2.1 1.194-3.288l-6.003-1.334c-.362 1.468-.85 2.582-1.466 3.342-.616.76-1.539 1.14-2.77 1.14-1.56 0-2.735-.646-3.52-1.938-.787-1.293-1.18-3.02-1.18-5.182 0-2.202.378-3.911 1.133-5.127.755-1.215 1.923-1.822 3.506-1.822.62 0 1.148.106 1.582.318.434.212.799.496 1.094.853.294.357.543.78.744 1.272.202.491.385 1.021.55 1.59l6.004-1.784a13.407 13.407 0 00-1.07-2.932 7.679 7.679 0 00-1.862-2.381c-.775-.667-1.734-1.197-2.877-1.59-1.143-.393-2.521-.59-4.134-.59-1.5 0-2.917.233-4.25.698a9.28 9.28 0 00-3.499 2.172c-.998.983-1.792 2.242-2.381 3.778-.59 1.535-.884 3.384-.884 5.545 0 2.162.284 4.01.853 5.546.569 1.536 1.347 2.798 2.335 3.785a9.079 9.079 0 003.498 2.18c1.344.465 2.787.698 4.328.698z" fill="#FFF"/><path d="M98.885 64.277v-6.05h5.694V53.34h-5.694v-6.034h-4.948v6.034h-5.693v4.887h5.693v6.05h4.948zm21.532 2.916v-4.887h-3.584v-18.63h-6.05c-1.013.962-2.42 1.473-4.219 1.535v5.182c.683 0 1.394-.106 2.133-.318.74-.212 1.394-.468 1.962-.768v13h-4.157v4.886h13.915z" fill="#F0AB00"/></g></g></svg>