<?xml version="1.0" encoding="UTF-8"?>
<svg width="270px" height="91px" viewBox="0 0 270 91" version="1.1" xmlns="http://www.w3.org/2000/svg">
    <title>CCplusOne_logo</title>
    <defs>
        <path d="M91.0189466,0 L91.0189466,41.1480251 L20.608,41.148 L20.6080634,68.7827202 L0,68.7827202 L0,0 L91.0189466,0 Z" id="path-1"></path>
        <rect id="path-3" x="0" y="0" width="29.9092472" height="26.6203951"></rect>
    </defs>
    <g id="Landingpage" stroke="none" stroke-width="1" fill="none" fill-rule="evenodd">
        <g id="Layout_Landingpage-SPECS" transform="translate(-348.000000, -149.000000)">
            <g id="Header" transform="translate(-2575.000000, -291.000000)">
                <g id="CCplusOne_logo" transform="translate(2923.980783, 440.049974)">
                    <g id="Group-5-Copy-2">
                        <g id="Group-2" transform="translate(0.732899, 0.733850)">
                            <mask id="mask-2" fill="white">
                                <use xlink:href="#path-1"></use>
                            </mask>
                            <g id="Combined-Shape"></g>
                            <g id="Group" mask="url(#mask-2)">
                                <g transform="translate(0.858669, 0.859784)" id="Cloud_Logo_V4">
                                    <ellipse id="Oval-Copy-13" stroke="#F0AB00" stroke-width="1.7543248" transform="translate(53.519777, 11.535505) rotate(-90.000000) translate(-53.519777, -11.535505) " cx="53.5197769" cy="11.5355045" rx="2.4793222" ry="2.48472972"></ellipse>
                                    <ellipse id="Oval-Copy-14" stroke="#F0AB00" stroke-width="1.7543248" transform="translate(84.588297, 36.921331) rotate(-90.000000) translate(-84.588297, -36.921331) " cx="84.5882973" cy="36.9213306" rx="2.4793222" ry="2.48472972"></ellipse>
                                    <path d="M51.8195097,15.0249976 C56.7616059,15.0249976 61.260599,16.8889904 64.6232319,19.9422236 C68.0018566,23.0099773 70.2335495,27.2787112 70.606535,32.0588882 C70.6428227,32.5239518 70.6609792,32.9869619 70.6619537,33.4469463 C71.1183194,33.4101474 71.5803127,33.3913346 72.0471924,33.3912385 C76.5627517,33.3903089 80.6219375,35.1403933 83.5539919,37.9807049 C86.4814051,40.8165204 88.2830035,44.7390082 88.2830035,49.0741197 C88.2830035,53.4018677 86.487917,57.3184207 83.590186,60.1540126 C80.680997,63.0008167 76.6612854,64.7590272 72.222717,64.7590272 L72.222717,64.7590272 L12.2758351,64.7590272 C9.23096296,64.4774542 6.51377321,63.0938168 4.56064909,61.0204176 C2.62784453,58.9685892 1.44473807,56.2395209 1.44473807,53.2407902 C1.44473807,50.4263059 2.4867878,47.8490275 4.21344396,45.8510114 C5.97894179,43.8080494 8.45857262,42.369167 11.2774127,41.8937026 C11.6593601,41.8292781 12.0412261,41.7836058 12.4217521,41.7555987 C12.4264259,41.3681783 12.4447008,40.978783 12.47696,40.5879243 C12.8404638,36.1836398 14.9250976,32.2537787 18.0701328,29.4302504 C21.2035671,26.617137 25.3897309,24.90155 29.9865321,24.90155 C31.27747,24.90155 32.5359863,25.0366932 33.7479141,25.2935406 C34.1000862,25.3681775 34.4516854,25.4538036 34.8024455,25.5504056 C34.9608482,25.2251966 35.1289528,24.9043977 35.3066501,24.5884881 C36.9376824,21.6888455 39.3404203,19.2659571 42.2420378,17.5843023 C45.0491243,15.9574337 48.3234179,15.0249976 51.8195097,15.0249976 Z" id="Combined-Shape" stroke="#F0AB00" stroke-width="2.88947615" transform="translate(44.863871, 39.892012) scale(-1, 1) translate(-44.863871, -39.892012) "></path>
                                    <g id="Group" transform="translate(54.717693, 6.095685)">
                                        <mask id="mask-4" fill="white">
                                            <use xlink:href="#path-3"></use>
                                        </mask>
                                        <g id="Rectangle"></g>
                                        <path d="M25.6256009,23.4081048 C25.8484025,22.2739154 25.9677185,21.1064491 25.9677185,19.9460062 C25.9677185,10.2937985 18.1304521,2.4691381 8.46269397,2.4691381 C5.87133429,2.4691381 3.41148849,3.03131027 1.19883359,4.04016364" id="Oval" stroke="#F0AB00" stroke-width="2.88947615" stroke-linecap="round" mask="url(#mask-4)"></path>
                                    </g>
                                    <path d="M73.5707592,24.7291253 C72.9240814,19.5744025 68.5187042,15.5864342 63.1803865,15.5864342 C61.2446614,15.5864342 59.4316046,16.110795 57.8759427,17.0250069" id="Oval" stroke="#F0AB00" stroke-width="2.88947615" stroke-linecap="round"></path>
                                    <path d="M85.7331252,34.246819 C86.6675665,31.6872955 87.1773406,28.9239295 87.1773406,26.0416909 C87.1773406,12.8098564 76.4335383,2.08333527 63.1803865,2.08333527 C55.6893506,2.08333527 49.0000049,5.51025792 44.5993216,10.8795227" id="Oval" stroke="#F0AB00" stroke-width="2.88947615" stroke-linecap="round"></path>
                                </g>
                            </g>
                        </g>
                        <path d="M35.3228509,68.4612362 C36.5001671,68.4612362 37.5095648,68.3101023 38.351044,68.0078345 C39.1925232,67.7055666 39.9113653,67.28617 40.5075703,66.7496446 C41.1037753,66.2131192 41.5830033,65.5783568 41.9452545,64.8453573 C42.3075056,64.1123578 42.5980612,63.311348 42.8169213,62.442328 L42.8169213,62.442328 L38.4359466,61.4675143 C38.1718051,62.5405651 37.8152142,63.354799 37.3661737,63.9102162 C36.9171332,64.4656333 36.2435725,64.7433419 35.3454916,64.7433419 C34.2059099,64.7433419 33.3493369,64.2710484 32.7757726,63.3264614 C32.2022083,62.3818744 31.9154262,61.1199063 31.9154262,59.5405568 C31.9154262,57.9309806 32.190888,56.6822367 32.7418116,55.7943249 C33.2927352,54.9064131 34.1455347,54.4624573 35.3002102,54.4624573 C35.7530241,54.4624573 36.137916,54.5399134 36.4548857,54.6948257 C36.7718554,54.8497379 37.0378836,55.0575471 37.2529702,55.3182531 C37.4680568,55.5789591 37.6491824,55.8887836 37.7963469,56.2477266 C37.9435115,56.6066697 38.0774689,56.9939504 38.1982193,57.4095686 L38.1982193,57.4095686 L42.579194,56.1060386 C42.3980684,55.350369 42.1377004,54.6362613 41.79809,53.9637153 C41.4584795,53.2911694 41.0056656,52.711193 40.4396482,52.2237861 C39.8736308,51.7363793 39.1736559,51.3490986 38.3397236,51.0619442 C37.5057913,50.7747897 36.5001671,50.6312125 35.3228509,50.6312125 C34.2285506,50.6312125 33.1946255,50.8012382 32.2210756,51.1412895 C31.2475256,51.4813408 30.3966128,52.0103095 29.6683371,52.7281956 C28.9400614,53.4460817 28.3608369,54.3661094 27.9306637,55.4882787 C27.5004904,56.610448 27.2854038,57.9612074 27.2854038,59.5405568 C27.2854038,61.1199063 27.4929435,62.4706656 27.908023,63.5928349 C28.3231024,64.7150043 28.8910065,65.6369212 29.6117353,66.3585856 C30.3324642,67.08025 31.183377,67.6111079 32.1644738,67.9511592 C33.1455706,68.2912105 34.198363,68.4612362 35.3228509,68.4612362 Z M52.9033513,68.4612362 C53.9372764,68.4612362 54.9579945,68.2912105 55.9655055,67.9511592 C56.9730164,67.6111079 57.8748708,67.08025 58.6710686,66.3585856 C59.4672664,65.6369212 60.1087528,64.7150043 60.5955278,63.5928349 C61.0823028,62.4706656 61.3256902,61.1199063 61.3256902,59.5405568 C61.3256902,57.9612074 61.0823028,56.610448 60.5955278,55.4882787 C60.1087528,54.3661094 59.4672664,53.4460817 58.6710686,52.7281956 C57.8748708,52.0103095 56.9730164,51.4813408 55.9655055,51.1412895 C54.9579945,50.8012382 53.9372764,50.6312125 52.9033513,50.6312125 C51.8694262,50.6312125 50.8468214,50.8012382 49.835537,51.1412895 C48.8242526,51.4813408 47.9205115,52.0103095 47.1243137,52.7281956 C46.3281159,53.4460817 45.6866295,54.3661094 45.1998545,55.4882787 C44.7130796,56.610448 44.4696921,57.9612074 44.4696921,59.5405568 C44.4696921,61.1199063 44.7130796,62.4706656 45.1998545,63.5928349 C45.6866295,64.7150043 46.3281159,65.6369212 47.1243137,66.3585856 C47.9205115,67.08025 48.8242526,67.6111079 49.835537,67.9511592 C50.8468214,68.2912105 51.8694262,68.4612362 52.9033513,68.4612362 Z M52.9033513,64.7433419 C51.6807537,64.7433419 50.7411649,64.2710484 50.0845847,63.3264614 C49.4280045,62.3818744 49.0997144,61.1199063 49.0997144,59.5405568 C49.0997144,57.946094 49.4280045,56.7011284 50.0845847,55.8056599 C50.7411649,54.9101915 51.6807537,54.4624573 52.9033513,54.4624573 C54.1108551,54.4624573 55.0428971,54.9101915 55.6994773,55.8056599 C56.3560575,56.7011284 56.6843476,57.946094 56.6843476,59.5405568 C56.6843476,61.1199063 56.3560575,62.3818744 55.6994773,63.3264614 C55.0428971,64.2710484 54.1108551,64.7433419 52.9033513,64.7433419 Z M67.9480938,68.1325199 L67.9480938,58.5204029 L67.9933752,58.5204029 L74.559177,68.1325199 L78.8495889,68.1325199 L78.8495889,50.9485937 L74.6044584,50.9485937 L74.6044584,60.5833808 L74.559177,60.5833808 L68.2763839,50.9485937 L63.7029633,50.9485937 L63.7029633,68.1325199 L67.9480938,68.1325199 Z M90.9284002,68.2005302 L96.7696998,50.9485937 L92.4566472,50.9485937 L88.8341359,62.1249468 L88.7888545,62.1249468 L85.358789,50.9485937 L80.672165,50.9485937 L86.5247849,68.2005302 L90.9284002,68.2005302 Z M111.225784,68.1325199 L111.225784,64.3919555 L103.233619,64.3919555 L103.233619,61.2181433 L108.656065,61.2181433 L108.656065,57.5909293 L103.233619,57.5909293 L103.233619,54.8025086 L110.840892,54.8025086 L110.840892,50.9485937 L98.5922758,50.9485937 L98.5922758,68.1325199 L111.225784,68.1325199 Z M118.097235,68.1325199 L118.097235,62.170287 L119.365114,62.170287 L122.681976,68.1325199 L127.595007,68.1325199 L123.961176,61.5581946 C125.085664,61.1728031 125.930916,60.5814917 126.496934,59.7842603 C127.062951,58.9870289 127.34596,57.9083105 127.34596,56.5481053 C127.34596,55.512838 127.183701,54.6381504 126.859185,53.9240427 C126.534668,53.2099349 126.06676,52.6337369 125.455462,52.1954485 C124.844163,51.7571602 124.098907,51.439779 123.219693,51.2433049 C122.340479,51.0468308 121.349949,50.9485937 120.248102,50.9485937 L120.248102,50.9485937 L113.546456,50.9485937 L113.546456,68.1325199 L118.097235,68.1325199 Z M120.089617,58.6337533 L118.097235,58.6337533 L118.097235,54.7118282 L120.089617,54.7118282 C121.048073,54.7118282 121.744274,54.8554054 122.178221,55.1425599 C122.612168,55.4297143 122.829141,55.9360129 122.829141,56.6614557 C122.829141,57.3944552 122.612168,57.9064214 122.178221,58.1973542 C121.744274,58.4882869 121.048073,58.6337533 120.089617,58.6337533 L120.089617,58.6337533 Z M137.092779,68.4612362 C137.741813,68.4612362 138.317264,68.3629992 138.819132,68.1665251 C139.321001,67.970051 139.753061,67.7376826 140.115312,67.4694199 C140.477563,67.2011572 140.766232,66.9196703 140.981319,66.6249591 C141.196405,66.330248 141.334136,66.0733203 141.394512,65.8541762 L141.394512,65.8541762 L141.451113,65.8541762 L141.451113,68.1325199 L145.084945,68.1325199 L145.084945,59.2911859 L138.179533,59.2911859 L138.179533,62.6803639 L140.68133,62.6803639 C140.432282,63.3151264 140.05305,63.8176466 139.543635,64.1879247 C139.034219,64.5582028 138.409713,64.7433419 137.670117,64.7433419 C137.360694,64.7433419 137.00033,64.6885558 136.589024,64.5789837 C136.177718,64.4694117 135.787166,64.2332649 135.417368,63.8705435 C135.04757,63.5078221 134.7306,62.9750751 134.466459,62.2723024 C134.202317,61.5695296 134.070246,60.6136076 134.070246,59.4045363 C134.070246,58.4448359 134.166469,57.6476045 134.358915,57.0128421 C134.551361,56.3780796 134.806069,55.871781 135.123039,55.4939462 C135.440009,55.1161115 135.804146,54.8497379 136.215452,54.6948257 C136.626758,54.5399134 137.039951,54.4624573 137.45503,54.4624573 C138.119158,54.4624573 138.702155,54.6778231 139.204024,55.1085548 C139.705893,55.5392864 140.130406,56.306291 140.477563,57.4095686 L140.477563,57.4095686 L144.711374,56.219389 C144.401951,55.0934414 144.003852,54.1696353 143.517077,53.4479709 C143.030302,52.7263064 142.473718,52.1576651 141.847326,51.7420468 C141.220933,51.3264285 140.537939,51.0373849 139.798343,50.8749159 C139.058746,50.712447 138.285189,50.6312125 137.477671,50.6312125 C136.194698,50.6312125 135.055117,50.8390216 134.058926,51.2546399 C133.062735,51.6702582 132.221256,52.2615696 131.534488,53.0285742 C130.847721,53.7955789 130.323211,54.7250524 129.96096,55.816995 C129.598709,56.9089375 129.417583,58.1274547 129.417583,59.4725466 C129.417583,60.7722982 129.559088,61.9681454 129.842096,63.0600879 C130.125105,64.1520304 130.576032,65.1003958 131.194878,65.9051839 C131.813724,66.709972 132.606148,67.3371777 133.572151,67.7868011 C134.538154,68.2364245 135.711697,68.4612362 137.092779,68.4612362 Z M160.842869,68.1325199 L160.842869,64.3919555 L152.850704,64.3919555 L152.850704,61.2181433 L158.27315,61.2181433 L158.27315,57.5909293 L152.850704,57.5909293 L152.850704,54.8025086 L160.457978,54.8025086 L160.457978,50.9485937 L148.209361,50.9485937 L148.209361,68.1325199 L160.842869,68.1325199 Z M168.801074,68.1325199 C170.053859,68.1325199 171.251929,67.9964994 172.395285,67.7244584 C173.53864,67.4524173 174.542377,66.9839022 175.406497,66.3189129 C176.270617,65.6539237 176.959272,64.7603444 177.472461,63.6381751 C177.98565,62.5160058 178.242244,61.1123496 178.242244,59.4272064 C178.242244,57.8025168 177.989423,56.4442007 177.483781,55.3522582 C176.978139,54.2603157 176.293258,53.3894065 175.429138,52.7395306 C174.565018,52.0896548 173.56128,51.6286964 172.417925,51.3566553 C171.27457,51.0846143 170.068953,50.9485937 168.801074,50.9485937 L168.801074,50.9485937 L163.163541,50.9485937 L163.163541,68.1325199 L168.801074,68.1325199 Z M169.061442,64.3919555 L167.782243,64.3919555 L167.782243,54.8025086 L169.00484,54.8025086 C169.887827,54.8025086 170.62365,54.8969673 171.212308,55.0858847 C171.800966,55.2748021 172.272647,55.5619565 172.627352,55.947348 C172.982056,56.3327395 173.23299,56.8201464 173.380155,57.4095686 C173.527319,57.9989909 173.600902,58.6866502 173.600902,59.4725466 C173.600902,60.3415666 173.527319,61.0896795 173.380155,61.7168852 C173.23299,62.344091 172.985829,62.8541679 172.638672,63.2471161 C172.291515,63.6400643 171.82738,63.9291079 171.246269,64.114247 C170.665158,64.299386 169.936882,64.3919555 169.061442,64.3919555 L169.061442,64.3919555 Z M194.486944,68.4612362 C195.66426,68.4612362 196.673658,68.3101023 197.515137,68.0078345 C198.356616,67.7055666 199.075458,67.28617 199.671663,66.7496446 C200.267868,66.2131192 200.747096,65.5783568 201.109347,64.8453573 C201.471598,64.1123578 201.762154,63.311348 201.981014,62.442328 L201.981014,62.442328 L197.600039,61.4675143 C197.335898,62.5405651 196.979307,63.354799 196.530266,63.9102162 C196.081226,64.4656333 195.407665,64.7433419 194.509584,64.7433419 C193.370003,64.7433419 192.51343,64.2710484 191.939865,63.3264614 C191.366301,62.3818744 191.079519,61.1199063 191.079519,59.5405568 C191.079519,57.9309806 191.354981,56.6822367 191.905904,55.7943249 C192.456828,54.9064131 193.309627,54.4624573 194.464303,54.4624573 C194.917117,54.4624573 195.302009,54.5399134 195.618978,54.6948257 C195.935948,54.8497379 196.201976,55.0575471 196.417063,55.3182531 C196.63215,55.5789591 196.813275,55.8887836 196.96044,56.2477266 C197.107604,56.6066697 197.241562,56.9939504 197.362312,57.4095686 L197.362312,57.4095686 L201.743287,56.1060386 C201.562161,55.350369 201.301793,54.6362613 200.962183,53.9637153 C200.622572,53.2911694 200.169758,52.711193 199.603741,52.2237861 C199.037724,51.7363793 198.337749,51.3490986 197.503816,51.0619442 C196.669884,50.7747897 195.66426,50.6312125 194.486944,50.6312125 C193.392643,50.6312125 192.358718,50.8012382 191.385168,51.1412895 C190.411618,51.4813408 189.560706,52.0103095 188.83243,52.7281956 C188.104154,53.4460817 187.52493,54.3661094 187.094756,55.4882787 C186.664583,56.610448 186.449497,57.9612074 186.449497,59.5405568 C186.449497,61.1199063 186.657036,62.4706656 187.072116,63.5928349 C187.487195,64.7150043 188.055099,65.6369212 188.775828,66.3585856 C189.496557,67.08025 190.34747,67.6111079 191.328567,67.9511592 C192.309663,68.2912105 193.362456,68.4612362 194.486944,68.4612362 Z M216.289934,68.1325199 L216.289934,64.3919555 L209.078872,64.3919555 L209.078872,50.9485937 L204.43753,50.9485937 L204.43753,68.1325199 L216.289934,68.1325199 Z M225.866948,68.4612362 C226.900873,68.4612362 227.921591,68.2912105 228.929102,67.9511592 C229.936613,67.6111079 230.838468,67.08025 231.634666,66.3585856 C232.430863,65.6369212 233.07235,64.7150043 233.559125,63.5928349 C234.0459,62.4706656 234.289287,61.1199063 234.289287,59.5405568 C234.289287,57.9612074 234.0459,56.610448 233.559125,55.4882787 C233.07235,54.3661094 232.430863,53.4460817 231.634666,52.7281956 C230.838468,52.0103095 229.936613,51.4813408 228.929102,51.1412895 C227.921591,50.8012382 226.900873,50.6312125 225.866948,50.6312125 C224.833023,50.6312125 223.810418,50.8012382 222.799134,51.1412895 C221.78785,51.4813408 220.884108,52.0103095 220.087911,52.7281956 C219.291713,53.4460817 218.650226,54.3661094 218.163451,55.4882787 C217.676677,56.610448 217.433289,57.9612074 217.433289,59.5405568 C217.433289,61.1199063 217.676677,62.4706656 218.163451,63.5928349 C218.650226,64.7150043 219.291713,65.6369212 220.087911,66.3585856 C220.884108,67.08025 221.78785,67.6111079 222.799134,67.9511592 C223.810418,68.2912105 224.833023,68.4612362 225.866948,68.4612362 Z M225.866948,64.7433419 C224.644351,64.7433419 223.704762,64.2710484 223.048182,63.3264614 C222.391601,62.3818744 222.063311,61.1199063 222.063311,59.5405568 C222.063311,57.946094 222.391601,56.7011284 223.048182,55.8056599 C223.704762,54.9101915 224.644351,54.4624573 225.866948,54.4624573 C227.074452,54.4624573 228.006494,54.9101915 228.663074,55.8056599 C229.319654,56.7011284 229.647945,57.946094 229.647945,59.5405568 C229.647945,61.1199063 229.319654,62.3818744 228.663074,63.3264614 C228.006494,64.2710484 227.074452,64.7433419 225.866948,64.7433419 Z M243.538012,68.3932259 C246.036035,68.3932259 247.856724,67.7697985 249.000079,66.5229437 C250.143435,65.2760889 250.715112,63.5153788 250.715112,61.2408134 L250.715112,61.2408134 L250.715112,50.9485937 L246.175653,50.9485937 L246.175653,61.2181433 C246.175653,62.4045445 245.973773,63.2735645 245.570014,63.8252033 C245.166255,64.3768421 244.504015,64.6526615 243.583293,64.6526615 C242.655024,64.6526615 241.985237,64.3768421 241.573931,63.8252033 C241.162625,63.2735645 240.956972,62.4045445 240.956972,61.2181433 L240.956972,61.2181433 L240.956972,50.9485937 L236.32695,50.9485937 L236.32695,61.2408134 C236.32695,63.5153788 236.902401,65.2760889 238.053303,66.5229437 C239.204205,67.7697985 241.032441,68.3932259 243.538012,68.3932259 Z M259.205373,68.1325199 C260.458158,68.1325199 261.656228,67.9964994 262.799584,67.7244584 C263.942939,67.4524173 264.946676,66.9839022 265.810796,66.3189129 C266.674916,65.6539237 267.363571,64.7603444 267.87676,63.6381751 C268.389949,62.5160058 268.646543,61.1123496 268.646543,59.4272064 C268.646543,57.8025168 268.393722,56.4442007 267.88808,55.3522582 C267.382438,54.2603157 266.697557,53.3894065 265.833437,52.7395306 C264.969317,52.0896548 263.965579,51.6286964 262.822224,51.3566553 C261.678869,51.0846143 260.473252,50.9485937 259.205373,50.9485937 L259.205373,50.9485937 L253.56784,50.9485937 L253.56784,68.1325199 L259.205373,68.1325199 Z M259.465741,64.3919555 L258.186542,64.3919555 L258.186542,54.8025086 L259.409139,54.8025086 C260.292127,54.8025086 261.027949,54.8969673 261.616607,55.0858847 C262.205265,55.2748021 262.676947,55.5619565 263.031651,55.947348 C263.386355,56.3327395 263.637289,56.8201464 263.784454,57.4095686 C263.931618,57.9989909 264.005201,58.6866502 264.005201,59.4725466 C264.005201,60.3415666 263.931618,61.0896795 263.784454,61.7168852 C263.637289,62.344091 263.390128,62.8541679 263.042971,63.2471161 C262.695814,63.6400643 262.231679,63.9291079 261.650568,64.114247 C261.069457,64.299386 260.341181,64.3919555 259.465741,64.3919555 L259.465741,64.3919555 Z" id="CONVERGEDCLOUD" fill="#FFFFFF" fill-rule="nonzero"></path>
                    </g>
                    <path d="M31.557068,89.6865861 L31.557068,83.8614113 L33.8675503,83.8614113 C34.6771146,83.8614113 35.4813057,83.7911634 36.2801236,83.6506675 C37.0789415,83.5101716 37.7989522,83.245391 38.4401558,82.8563255 C39.0813594,82.46726 39.5953969,81.9286925 39.9822684,81.240623 C40.3691398,80.5525535 40.5625756,79.6573427 40.5625756,78.5549905 C40.5625756,77.474253 40.3798863,76.5952532 40.0145077,75.9179911 C39.6491291,75.240729 39.1583755,74.7057639 38.5422469,74.313096 C37.9261183,73.9204281 37.216854,73.6538462 36.4144539,73.5133503 C35.6120539,73.3728544 34.7809967,73.3026065 33.9212824,73.3026065 L33.9212824,73.3026065 L28,73.3026065 L28,89.6865861 L31.557068,89.6865861 Z M34.0072538,81.0731087 L31.557068,81.0731087 L31.557068,76.2530197 L34.0072538,76.2530197 C35.1320467,76.2530197 35.9219093,76.4601611 36.3768414,76.8744437 C36.8317736,77.2887264 37.0592397,77.8777283 37.0592397,78.6414495 C37.0592397,79.4411952 36.8281915,80.0464081 36.366095,80.4570884 C35.9039986,80.8677686 35.1177182,81.0731087 34.0072538,81.0731087 L34.0072538,81.0731087 Z M45.9316962,89.6865861 L45.9316962,73.3026065 L42.4068675,73.3026065 L42.4068675,89.6865861 L45.9316962,89.6865861 Z M51.805899,89.9351558 C52.3217276,89.9351558 52.7891973,89.8685103 53.208308,89.7352193 C53.6274187,89.6019284 54.0053348,89.4344141 54.3420563,89.2326764 C54.6787777,89.0309388 54.9707224,88.8057851 55.2178902,88.5572155 C55.4650581,88.3086459 55.6781956,88.0726849 55.8573028,87.8493325 L55.8573028,87.8493325 L55.8573028,89.6865861 L59.4036244,89.6865861 L59.4036244,77.8849332 L55.8573028,77.8849332 L55.8573028,85.9040051 C55.463267,86.2426362 55.0566938,86.5254291 54.6375831,86.752384 C54.2184723,86.9793388 53.7724955,87.0928163 53.2996527,87.0928163 C52.8053169,87.0928163 52.4506848,86.9541216 52.2357562,86.6767324 C52.0208276,86.3993431 51.9133633,85.9940665 51.9133633,85.4609027 L51.9133633,85.4609027 L51.9133633,77.8849332 L48.3777882,77.8849332 L48.3777882,86.4984107 C48.3777882,87.1036236 48.4619685,87.6241789 48.6303292,88.0600763 C48.79869,88.4959737 49.0369025,88.8544183 49.3449668,89.13541 C49.6530311,89.4164018 50.0166186,89.6199407 50.4357293,89.7460267 C50.8548401,89.8721127 51.3115633,89.9351558 51.805899,89.9351558 Z M66.4491879,89.9351558 C67.1226308,89.9351558 67.7709987,89.8613054 68.3942916,89.7136046 C69.0175845,89.5659038 69.5674434,89.3335452 70.0438685,89.0165289 C70.5202935,88.6995126 70.9017917,88.2852299 71.1883632,87.7736809 C71.4749346,87.2621318 71.6182203,86.6533164 71.6182203,85.9472346 C71.6182203,85.2843823 71.4785167,84.7386099 71.1991096,84.3099174 C70.9197024,83.8812248 70.557906,83.5371901 70.1137202,83.2778131 C69.6695345,83.0184361 69.1608702,82.8221021 68.5877273,82.6888112 C68.0145844,82.5555202 67.4414416,82.4384403 66.8682987,82.3375715 C66.1375415,82.207883 65.6055933,82.0529773 65.272454,81.8728544 C64.9393147,81.6927315 64.772745,81.4261496 64.772745,81.0731087 C64.772745,80.7488875 64.9088664,80.4949142 65.1811093,80.3111888 C65.4533522,80.1274634 65.8473879,80.0356008 66.3632165,80.0356008 C66.9220308,80.0356008 67.4862183,80.147277 68.0557791,80.3706294 C68.6253398,80.5939818 69.2110202,80.9109981 69.8128202,81.3216783 L69.8128202,81.3216783 L71.1991096,79.3006993 C70.5543238,78.7891502 69.8361042,78.3856749 69.0444506,78.0902734 C68.2527969,77.7948718 67.2551701,77.647171 66.0515701,77.647171 C65.3924558,77.647171 64.7870736,77.7318288 64.2354236,77.9011443 C63.6837735,78.0704598 63.2037664,78.3136258 62.7954021,78.6306421 C62.3870378,78.9476584 62.068227,79.3385251 61.8389699,79.8032422 C61.6097127,80.2679593 61.4950841,80.7957194 61.4950841,81.3865226 C61.4950841,82.0781945 61.6312056,82.6419792 61.9034485,83.0778767 C62.1756913,83.5137741 62.5285324,83.8650138 62.9619717,84.1315957 C63.395411,84.3981776 63.8861646,84.598114 64.4342325,84.731405 C64.9823004,84.8646959 65.5357415,84.9817758 66.0945558,85.0826446 C66.9041201,85.226743 67.477263,85.3960585 67.8139844,85.5905912 C68.1507059,85.785124 68.3190666,86.0877305 68.3190666,86.4984107 C68.3190666,86.8802712 68.1471237,87.1684679 67.803238,87.3630006 C67.4593523,87.5575334 67.0080023,87.6547997 66.4491879,87.6547997 C65.7327593,87.6547997 65.0073754,87.5179063 64.2730361,87.2441195 C63.5386967,86.9703327 62.9064485,86.5956771 62.3762913,86.1201526 L62.3762913,86.1201526 L60.9685091,88.1195168 C61.5703092,88.6310659 62.3118128,89.0615597 63.1930199,89.4109981 C64.0742271,89.7604365 65.1596165,89.9351558 66.4491879,89.9351558 Z M80.5659018,90 C81.547409,90 82.4966769,89.8252808 83.4137055,89.4758423 C84.3307341,89.1264039 85.1456717,88.6022462 85.8585181,87.9033694 C86.5713646,87.2044925 87.1427164,86.3236915 87.5725736,85.2609663 C88.0024307,84.1982412 88.2173593,82.9427845 88.2173593,81.4945963 C88.2173593,80.0680229 88.0024307,78.8197711 87.5725736,77.7498411 C87.1427164,76.679911 86.5713646,75.7937063 85.8585181,75.091227 C85.1456717,74.3887476 84.3307341,73.86459 83.4137055,73.518754 C82.4966769,73.172918 81.547409,73 80.5659018,73 C79.5843946,73 78.6297535,73.172918 77.7019785,73.518754 C76.7742035,73.86459 75.9556838,74.3887476 75.2464195,75.091227 C74.5371551,75.7937063 73.9658033,76.679911 73.532364,77.7498411 C73.0989247,78.8197711 72.8822051,80.0680229 72.8822051,81.4945963 C72.8822051,82.9427845 73.0989247,84.1982412 73.532364,85.2609663 C73.9658033,86.3236915 74.5371551,87.2044925 75.2464195,87.9033694 C75.9556838,88.6022462 76.7742035,89.1264039 77.7019785,89.4758423 C78.6297535,89.8252808 79.5843946,90 80.5659018,90 Z M80.5659018,87.0928163 C79.9354447,87.0928163 79.3658839,86.964929 78.8572196,86.7091545 C78.3485553,86.45338 77.9186981,86.0823268 77.5676481,85.5959949 C77.2165981,85.1096631 76.9461463,84.5188599 76.7562927,83.8235855 C76.5664392,83.1283111 76.4715124,82.3519814 76.4715124,81.4945963 C76.4715124,79.7726213 76.8350999,78.4235007 77.5622749,77.4472346 C78.2894499,76.4709684 79.2906589,75.9828353 80.5659018,75.9828353 C81.8268162,75.9828353 82.824443,76.4709684 83.5587823,77.4472346 C84.2931216,78.4235007 84.6602913,79.7726213 84.6602913,81.4945963 C84.6602913,82.3519814 84.5635734,83.1283111 84.3701377,83.8235855 C84.176702,84.5188599 83.9044591,85.1096631 83.5534091,85.5959949 C83.2023591,86.0823268 82.774293,86.45338 82.2692108,86.7091545 C81.7641287,86.964929 81.196359,87.0928163 80.5659018,87.0928163 Z M93.5757335,89.6865861 L93.5757335,81.7647807 C93.9697693,81.4261496 94.3763425,81.1451579 94.7954532,80.9218055 C95.214564,80.6984531 95.6569586,80.5867769 96.1226372,80.5867769 C96.6241372,80.5867769 96.9805605,80.7236703 97.1919069,80.9974571 C97.4032534,81.2712439 97.5089266,81.6747192 97.5089266,82.207883 L97.5089266,82.207883 L97.5089266,89.6865861 L101.033755,89.6865861 L101.033755,81.0731087 C101.033755,80.4678957 100.949575,79.9491418 100.781214,79.5168468 C100.612853,79.0845518 100.378223,78.7315109 100.077323,78.4577241 C99.7764231,78.1839373 99.4164177,77.9803984 98.997307,77.8471074 C98.5781963,77.7138165 98.121473,77.647171 97.6271373,77.647171 C97.1113087,77.647171 96.643839,77.7138165 96.2247283,77.8471074 C95.8056176,77.9803984 95.4277015,78.1497139 95.09098,78.355054 C94.7542586,78.5603942 94.4605229,78.7855478 94.2097729,79.0305149 C93.9590228,79.2754821 93.7476764,79.5132443 93.5757335,79.7438017 L93.5757335,79.7438017 L93.5757335,77.8849332 L90.029412,77.8849332 L90.029412,89.6865861 L93.5757335,89.6865861 Z M108.702612,89.9351558 C110.72294,89.9351558 112.424458,89.3443526 113.807166,88.1627463 L113.807166,88.1627463 L112.442369,86.0336936 C112.041169,86.4011443 111.536087,86.728968 110.927123,87.0171647 C110.318158,87.3053613 109.662626,87.4494596 108.960526,87.4494596 C108.21544,87.4494596 107.597521,87.2423183 107.106767,86.8280356 C106.616013,86.4137529 106.324069,85.7202797 106.230933,84.747616 L106.230933,84.747616 L114.000601,84.747616 L114.000601,84.2180547 C114.000601,82.8779402 113.832241,81.782793 113.495519,80.9326128 C113.158798,80.0824327 112.730732,79.4141767 112.211321,78.9278449 C111.69191,78.441513 111.111603,78.1064844 110.470399,77.9227591 C109.829196,77.7390337 109.207694,77.647171 108.605894,77.647171 C108.004094,77.647171 107.359308,77.7534435 106.671537,77.9659886 C105.983765,78.1785336 105.346144,78.5243696 104.758672,79.0034965 C104.171201,79.4826234 103.684029,80.1130536 103.297158,80.894787 C102.910287,81.6765204 102.716851,82.6437805 102.716851,83.7965671 C102.716851,84.9349438 102.885212,85.8949989 103.221933,86.6767324 C103.558654,87.4584658 104.004631,88.088896 104.559863,88.5680229 C105.115096,89.0471498 105.752717,89.394787 106.472728,89.6109345 C107.192738,89.827082 107.936033,89.9351558 108.702612,89.9351558 Z M110.830405,82.6509854 L106.273919,82.6509854 C106.41004,81.7791905 106.691238,81.1505616 107.117513,80.7650985 C107.543788,80.3796355 108.032751,80.186904 108.584401,80.186904 C109.909794,80.186904 110.658462,81.0082645 110.830405,82.6509854 L110.830405,82.6509854 Z M125.523332,89.6865861 L125.523332,73.3026065 L121.955517,73.3026065 L121.955517,89.6865861 L125.523332,89.6865861 Z M132.020828,89.6865861 L132.020828,81.7647807 C132.414863,81.4261496 132.821437,81.1451579 133.240547,80.9218055 C133.659658,80.6984531 134.102053,80.5867769 134.567731,80.5867769 C135.069231,80.5867769 135.425655,80.7236703 135.637001,80.9974571 C135.848347,81.2712439 135.954021,81.6747192 135.954021,82.207883 L135.954021,82.207883 L135.954021,89.6865861 L139.478849,89.6865861 L139.478849,81.0731087 C139.478849,80.4678957 139.394669,79.9491418 139.226308,79.5168468 C139.057948,79.0845518 138.823317,78.7315109 138.522417,78.4577241 C138.221517,78.1839373 137.861512,77.9803984 137.442401,77.8471074 C137.02329,77.7138165 136.566567,77.647171 136.072231,77.647171 C135.556403,77.647171 135.088933,77.7138165 134.669822,77.8471074 C134.250712,77.9803984 133.872796,78.1497139 133.536074,78.355054 C133.199353,78.5603942 132.905617,78.7855478 132.654867,79.0305149 C132.404117,79.2754821 132.19277,79.5132443 132.020828,79.7438017 L132.020828,79.7438017 L132.020828,77.8849332 L128.474506,77.8849332 L128.474506,89.6865861 L132.020828,89.6865861 Z M146.373963,89.6865861 L146.373963,80.4787031 L148.920867,80.4787031 L148.920867,77.8849332 L146.373963,77.8849332 L146.373963,77.1824539 C146.373963,76.8726425 146.416949,76.6222717 146.50292,76.4313414 C146.588892,76.2404111 146.708893,76.0963128 146.862925,75.9990464 C147.016958,75.90178 147.194274,75.838737 147.394874,75.8099174 C147.595474,75.7810977 147.80682,75.7666879 148.028913,75.7666879 C148.200856,75.7666879 148.392501,75.7738928 148.603847,75.7883026 C148.815193,75.8027124 148.967434,75.8243272 149.06057,75.8531469 L149.06057,75.8531469 L149.06057,73.3782581 C149.017584,73.3638483 148.911911,73.3476372 148.743551,73.3296249 C148.57519,73.3116126 148.383545,73.2954016 148.168617,73.2809917 C147.953688,73.2665819 147.736968,73.2521721 147.518458,73.2377622 C147.299947,73.2233524 147.101138,73.2161475 146.922031,73.2161475 C146.055152,73.2161475 145.354843,73.3242212 144.821104,73.5403687 C144.287365,73.7565162 143.873627,74.0447129 143.579891,74.4049587 C143.286156,74.7652045 143.090929,75.177686 142.994211,75.6424031 C142.897493,76.1071202 142.849134,76.5844459 142.849134,77.0743802 L142.849134,77.0743802 L142.849134,77.8849332 L140.893284,77.8849332 L140.893284,80.4787031 L142.849134,80.4787031 L142.849134,89.6865861 L146.373963,89.6865861 Z M153.989087,89.6865861 L153.989087,82.3591863 C154.325809,81.9340962 154.753875,81.5594406 155.273286,81.2352193 C155.792696,80.9109981 156.403452,80.7488875 157.105552,80.7488875 C157.227345,80.7488875 157.393914,80.7560924 157.605261,80.7705022 C157.816607,80.7849121 157.958102,80.7993219 158.029745,80.8137317 L158.029745,80.8137317 L158.083477,77.647171 L157.965266,77.647171 C157.413616,77.647171 156.928236,77.7174189 156.509125,77.8579148 C156.090014,77.9984107 155.722844,78.1749311 155.407616,78.3874762 C155.092387,78.6000212 154.820144,78.8359822 154.590887,79.0953592 C154.36163,79.3547362 154.168194,79.6105107 154.01058,79.8626828 L154.01058,79.8626828 L153.989087,79.8626828 L153.989087,77.8849332 L150.442766,77.8849332 L150.442766,89.6865861 L153.989087,89.6865861 Z M161.722422,89.8595041 C162.596465,89.8595041 163.361253,89.6973935 164.016785,89.3731723 C164.672317,89.048951 165.268744,88.577029 165.806065,87.9574062 C165.806065,88.2960373 165.832931,88.6058487 165.886664,88.8868404 C165.940396,89.1678322 166.003083,89.4344141 166.074726,89.6865861 L166.074726,89.6865861 L169.599555,89.6865861 C169.477762,89.3911846 169.39179,89.0147277 169.34164,88.5572155 C169.29149,88.0997033 169.266415,87.5179063 169.266415,86.8118245 L169.266415,86.8118245 L169.266415,82.2727273 C169.266415,80.7524899 168.913574,79.6015046 168.207892,78.8197711 C167.50221,78.0380377 166.343387,77.647171 164.731422,77.647171 C164.000665,77.647171 163.337969,77.7066116 162.743333,77.8254927 C162.148697,77.9443738 161.616749,78.102882 161.147488,78.3010172 C160.678228,78.4991524 160.255535,78.724306 159.87941,78.9764781 C159.503285,79.2286501 159.168354,79.4844247 158.874619,79.7438017 L158.874619,79.7438017 L160.379119,81.7863954 C160.91644,81.3541004 161.505703,81.0028608 162.146906,80.7326764 C162.78811,80.4624921 163.481255,80.3273999 164.22634,80.3273999 C164.799483,80.3273999 165.206056,80.4552871 165.44606,80.7110617 C165.686064,80.9668362 165.806065,81.3108709 165.806065,81.7431659 L165.806065,81.7431659 L165.806065,82.0241577 C163.226922,82.2331002 161.342715,82.7212333 160.153444,83.4885569 C158.964172,84.2558805 158.369536,85.3168044 158.369536,86.6713287 C158.369536,87.1756728 158.457299,87.6277813 158.632824,88.0276542 C158.808349,88.427527 159.050144,88.7625556 159.358208,89.03274 C159.666272,89.3029243 160.022695,89.5082645 160.427478,89.6487603 C160.83226,89.7892562 161.263908,89.8595041 161.722422,89.8595041 Z M163.130205,87.1900826 C162.743333,87.1900826 162.429896,87.0964187 162.189892,86.9090909 C161.949888,86.7217631 161.829887,86.4371689 161.829887,86.0553083 C161.829887,85.5077347 162.141533,85.0610299 162.764826,84.7151939 C163.388119,84.3693579 164.401865,84.1243908 165.806065,83.9802924 L165.806065,83.9802924 L165.806065,86.1633821 C165.519494,86.4587836 165.155906,86.7037508 164.715303,86.8982835 C164.274699,87.0928163 163.746333,87.1900826 163.130205,87.1900826 Z M176.204515,89.9351558 C176.877958,89.9351558 177.526326,89.8613054 178.149618,89.7136046 C178.772911,89.5659038 179.32277,89.3335452 179.799195,89.0165289 C180.27562,88.6995126 180.657119,88.2852299 180.94369,87.7736809 C181.230261,87.2621318 181.373547,86.6533164 181.373547,85.9472346 C181.373547,85.2843823 181.233844,84.7386099 180.954436,84.3099174 C180.675029,83.8812248 180.313233,83.5371901 179.869047,83.2778131 C179.424861,83.0184361 178.916197,82.8221021 178.343054,82.6888112 C177.769911,82.5555202 177.196768,82.4384403 176.623626,82.3375715 C175.892868,82.207883 175.36092,82.0529773 175.027781,81.8728544 C174.694641,81.6927315 174.528072,81.4261496 174.528072,81.0731087 C174.528072,80.7488875 174.664193,80.4949142 174.936436,80.3111888 C175.208679,80.1274634 175.602715,80.0356008 176.118543,80.0356008 C176.677358,80.0356008 177.241545,80.147277 177.811106,80.3706294 C178.380667,80.5939818 178.966347,80.9109981 179.568147,81.3216783 L179.568147,81.3216783 L180.954436,79.3006993 C180.309651,78.7891502 179.591431,78.3856749 178.799777,78.0902734 C178.008124,77.7948718 177.010497,77.647171 175.806897,77.647171 C175.147783,77.647171 174.5424,77.7318288 173.99075,77.9011443 C173.4391,78.0704598 172.959093,78.3136258 172.550729,78.6306421 C172.142365,78.9476584 171.823554,79.3385251 171.594297,79.8032422 C171.36504,80.2679593 171.250411,80.7957194 171.250411,81.3865226 C171.250411,82.0781945 171.386532,82.6419792 171.658775,83.0778767 C171.931018,83.5137741 172.283859,83.8650138 172.717299,84.1315957 C173.150738,84.3981776 173.641491,84.598114 174.189559,84.731405 C174.737627,84.8646959 175.291068,84.9817758 175.849883,85.0826446 C176.659447,85.226743 177.23259,85.3960585 177.569311,85.5905912 C177.906033,85.785124 178.074393,86.0877305 178.074393,86.4984107 C178.074393,86.8802712 177.902451,87.1684679 177.558565,87.3630006 C177.214679,87.5575334 176.763329,87.6547997 176.204515,87.6547997 C175.488086,87.6547997 174.762702,87.5179063 174.028363,87.2441195 C173.294024,86.9703327 172.661775,86.5956771 172.131618,86.1201526 L172.131618,86.1201526 L170.723836,88.1195168 C171.325636,88.6310659 172.06714,89.0615597 172.948347,89.4109981 C173.829554,89.7604365 174.914943,89.9351558 176.204515,89.9351558 Z M187.795818,89.8378894 C187.982089,89.8378894 188.197018,89.8306845 188.440604,89.8162746 C188.684189,89.8018648 188.91882,89.787455 189.144495,89.7730451 C189.37017,89.7586353 189.572561,89.740623 189.751668,89.7190083 C189.930775,89.6973935 190.05615,89.6793812 190.127793,89.6649714 L190.127793,89.6649714 L190.127793,87.114431 C190.006,87.1648654 189.832266,87.20089 189.606591,87.2225048 C189.380916,87.2441195 189.164196,87.2549269 188.956432,87.2549269 C188.311646,87.2549269 187.879998,87.1360458 187.661487,86.8982835 C187.442977,86.6605213 187.333721,86.2246239 187.333721,85.5905912 L187.333721,85.5905912 L187.333721,80.4787031 L190.342722,80.4787031 L190.342722,77.8849332 L187.333721,77.8849332 L187.333721,73.8429752 L183.808893,73.8429752 L183.808893,77.8849332 L181.853043,77.8849332 L181.853043,80.4787031 L183.808893,80.4787031 L183.808893,86.3687222 C183.808893,86.9307057 183.853669,87.4242424 183.943223,87.8493325 C184.032777,88.2744225 184.215466,88.6346684 184.491291,88.9300699 C184.767116,89.2254715 185.170107,89.4506251 185.700264,89.6055308 C186.230421,89.7604365 186.928939,89.8378894 187.795818,89.8378894 Z M195.539899,89.6865861 L195.539899,82.3591863 C195.876621,81.9340962 196.304687,81.5594406 196.824098,81.2352193 C197.343508,80.9109981 197.954264,80.7488875 198.656364,80.7488875 C198.778157,80.7488875 198.944726,80.7560924 199.156073,80.7705022 C199.367419,80.7849121 199.508914,80.7993219 199.580557,80.8137317 L199.580557,80.8137317 L199.634289,77.647171 L199.516078,77.647171 C198.964428,77.647171 198.479048,77.7174189 198.059937,77.8579148 C197.640826,77.9984107 197.273657,78.1749311 196.958428,78.3874762 C196.643199,78.6000212 196.370956,78.8359822 196.141699,79.0953592 C195.912442,79.3547362 195.719006,79.6105107 195.561392,79.8626828 L195.561392,79.8626828 L195.539899,79.8626828 L195.539899,77.8849332 L191.993578,77.8849332 L191.993578,89.6865861 L195.539899,89.6865861 Z M204.358624,89.9351558 C204.874452,89.9351558 205.341922,89.8685103 205.761033,89.7352193 C206.180143,89.6019284 206.55806,89.4344141 206.894781,89.2326764 C207.231502,89.0309388 207.523447,88.8057851 207.770615,88.5572155 C208.017783,88.3086459 208.23092,88.0726849 208.410027,87.8493325 L208.410027,87.8493325 L208.410027,89.6865861 L211.956349,89.6865861 L211.956349,77.8849332 L208.410027,77.8849332 L208.410027,85.9040051 C208.015992,86.2426362 207.609418,86.5254291 207.190308,86.752384 C206.771197,86.9793388 206.32522,87.0928163 205.852377,87.0928163 C205.358042,87.0928163 205.003409,86.9541216 204.788481,86.6767324 C204.573552,86.3993431 204.466088,85.9940665 204.466088,85.4609027 L204.466088,85.4609027 L204.466088,77.8849332 L200.930513,77.8849332 L200.930513,86.4984107 C200.930513,87.1036236 201.014693,87.6241789 201.183054,88.0600763 C201.351415,88.4959737 201.589627,88.8544183 201.897691,89.13541 C202.205756,89.4164018 202.569343,89.6199407 202.988454,89.7460267 C203.407565,89.8721127 203.864288,89.9351558 204.358624,89.9351558 Z M219.506995,89.9351558 C220.287902,89.9351558 220.966718,89.8342869 221.543443,89.6325493 C222.120168,89.4308116 222.618086,89.1642297 223.037197,88.8328036 C223.456307,88.5013774 223.809149,88.1177156 224.09572,87.6818182 C224.382291,87.2459207 224.622295,86.8010172 224.815731,86.3471074 L224.815731,86.3471074 L221.881956,85.3312142 C221.631206,86.123755 221.301648,86.6713287 220.893284,86.9739352 C220.48492,87.2765416 220.044316,87.4278449 219.571473,87.4278449 C219.163109,87.4278449 218.815641,87.3395847 218.52907,87.1630642 C218.242498,86.9865438 218.007868,86.7361729 217.825179,86.4119517 C217.642489,86.0877305 217.506368,85.7076711 217.416814,85.2717737 C217.327261,84.8358762 217.282484,84.3513456 217.282484,83.8181818 C217.282484,82.6365755 217.492039,81.7485696 217.91115,81.154164 C218.330261,80.5597584 218.89803,80.2625556 219.614459,80.2625556 C220.130288,80.2625556 220.563727,80.4048527 220.914777,80.6894469 C221.265827,80.9740411 221.559563,81.4945963 221.795984,82.2511125 L221.795984,82.2511125 L224.772745,81.2568341 C224.593638,80.7813096 224.378709,80.3255986 224.127959,79.8897012 C223.877209,79.4538038 223.554816,79.070142 223.160781,78.7387158 C222.766745,78.4072897 222.283156,78.142509 221.710013,77.9443738 C221.13687,77.7462386 220.452681,77.647171 219.657445,77.647171 C219.012659,77.647171 218.342798,77.7462386 217.647863,77.9443738 C216.952927,78.142509 216.315305,78.4775376 215.734998,78.9494596 C215.154691,79.4213816 214.678266,80.0518118 214.305723,80.8407502 C213.93318,81.6296885 213.746909,82.6149608 213.746909,83.7965671 C213.746909,84.9493537 213.918852,85.9166137 214.262737,86.6983471 C214.606623,87.4800805 215.0526,88.1105107 215.600668,88.5896376 C216.148736,89.0687646 216.764864,89.4127993 217.449054,89.6217419 C218.133243,89.8306845 218.819223,89.9351558 219.506995,89.9351558 Z M231.270241,89.8378894 C231.456512,89.8378894 231.671441,89.8306845 231.915026,89.8162746 C232.158612,89.8018648 232.393243,89.787455 232.618918,89.7730451 C232.844593,89.7586353 233.046984,89.740623 233.226091,89.7190083 C233.405198,89.6973935 233.530573,89.6793812 233.602216,89.6649714 L233.602216,89.6649714 L233.602216,87.114431 C233.480423,87.1648654 233.306689,87.20089 233.081014,87.2225048 C232.855339,87.2441195 232.638619,87.2549269 232.430855,87.2549269 C231.786069,87.2549269 231.354421,87.1360458 231.13591,86.8982835 C230.9174,86.6605213 230.808144,86.2246239 230.808144,85.5905912 L230.808144,85.5905912 L230.808144,80.4787031 L233.817144,80.4787031 L233.817144,77.8849332 L230.808144,77.8849332 L230.808144,73.8429752 L227.283316,73.8429752 L227.283316,77.8849332 L225.327465,77.8849332 L225.327465,80.4787031 L227.283316,80.4787031 L227.283316,86.3687222 C227.283316,86.9307057 227.328092,87.4242424 227.417646,87.8493325 C227.507199,88.2744225 227.689889,88.6346684 227.965714,88.9300699 C228.241539,89.2254715 228.64453,89.4506251 229.174687,89.6055308 C229.704844,89.7604365 230.403362,89.8378894 231.270241,89.8378894 Z M238.788647,89.9351558 C239.304476,89.9351558 239.771945,89.8685103 240.191056,89.7352193 C240.610167,89.6019284 240.988083,89.4344141 241.324804,89.2326764 C241.661526,89.0309388 241.953471,88.8057851 242.200638,88.5572155 C242.447806,88.3086459 242.660944,88.0726849 242.840051,87.8493325 L242.840051,87.8493325 L242.840051,89.6865861 L246.386373,89.6865861 L246.386373,77.8849332 L242.840051,77.8849332 L242.840051,85.9040051 C242.446015,86.2426362 242.039442,86.5254291 241.620331,86.752384 C241.20122,86.9793388 240.755244,87.0928163 240.282401,87.0928163 C239.788065,87.0928163 239.433433,86.9541216 239.218504,86.6767324 C239.003576,86.3993431 238.896111,85.9940665 238.896111,85.4609027 L238.896111,85.4609027 L238.896111,77.8849332 L235.360536,77.8849332 L235.360536,86.4984107 C235.360536,87.1036236 235.444717,87.6241789 235.613077,88.0600763 C235.781438,88.4959737 236.019651,88.8544183 236.327715,89.13541 C236.635779,89.4164018 236.999367,89.6199407 237.418477,89.7460267 C237.837588,89.8721127 238.294311,89.9351558 238.788647,89.9351558 Z M252.357293,89.6865861 L252.357293,82.3591863 C252.694015,81.9340962 253.122081,81.5594406 253.641491,81.2352193 C254.160902,80.9109981 254.771658,80.7488875 255.473758,80.7488875 C255.59555,80.7488875 255.76212,80.7560924 255.973467,80.7705022 C256.184813,80.7849121 256.326308,80.7993219 256.397951,80.8137317 L256.397951,80.8137317 L256.451683,77.647171 L256.333472,77.647171 C255.781822,77.647171 255.296442,77.7174189 254.877331,77.8579148 C254.45822,77.9984107 254.09105,78.1749311 253.775822,78.3874762 C253.460593,78.6000212 253.18835,78.8359822 252.959093,79.0953592 C252.729836,79.3547362 252.5364,79.6105107 252.378786,79.8626828 L252.378786,79.8626828 L252.357293,79.8626828 L252.357293,77.8849332 L248.810972,77.8849332 L248.810972,89.6865861 L252.357293,89.6865861 Z M262.70201,89.9351558 C264.722339,89.9351558 266.423857,89.3443526 267.806564,88.1627463 L267.806564,88.1627463 L266.441768,86.0336936 C266.040568,86.4011443 265.535486,86.728968 264.926521,87.0171647 C264.317557,87.3053613 263.662025,87.4494596 262.959925,87.4494596 C262.214839,87.4494596 261.596919,87.2423183 261.106166,86.8280356 C260.615412,86.4137529 260.323468,85.7202797 260.230332,84.747616 L260.230332,84.747616 L268,84.747616 L268,84.2180547 C268,82.8779402 267.831639,81.782793 267.494918,80.9326128 C267.158196,80.0824327 266.73013,79.4141767 266.21072,78.9278449 C265.691309,78.441513 265.111002,78.1064844 264.469798,77.9227591 C263.828594,77.7390337 263.207093,77.647171 262.605293,77.647171 C262.003493,77.647171 261.358707,77.7534435 260.670935,77.9659886 C259.983164,78.1785336 259.345542,78.5243696 258.758071,79.0034965 C258.1706,79.4826234 257.683428,80.1130536 257.296557,80.894787 C256.909685,81.6765204 256.716249,82.6437805 256.716249,83.7965671 C256.716249,84.9349438 256.88461,85.8949989 257.221332,86.6767324 C257.558053,87.4584658 258.00403,88.088896 258.559262,88.5680229 C259.114494,89.0471498 259.752116,89.394787 260.472126,89.6109345 C261.192137,89.827082 261.935432,89.9351558 262.70201,89.9351558 Z M264.829803,82.6509854 L260.273318,82.6509854 C260.409439,81.7791905 260.690637,81.1505616 261.116912,80.7650985 C261.543187,80.3796355 262.03215,80.186904 262.5838,80.186904 C263.909193,80.186904 264.657861,81.0082645 264.829803,82.6509854 L264.829803,82.6509854 Z" id="PlusOneInfrastructure" fill="#F0AB00" fill-rule="nonzero"></path>
                </g>
            </g>
        </g>
    </g>
</svg>