<svg xmlns="http://www.w3.org/2000/svg" xmlns:xlink="http://www.w3.org/1999/xlink" width="270" height="97" viewBox="0 0 270 97">
  <defs>
    <path id="ccplus_logo-a" d="M91.0189466,0 L91.0189466,41.1480251 L20.608,41.148 L20.6080634,68.7827202 L0,68.7827202 L0,0 L91.0189466,0 Z"/>
    <rect id="ccplus_logo-c" width="29.909" height="26.62" x="0" y="0"/>
  </defs>
  <g fill="none" fill-rule="evenodd" transform="translate(.733 .784)">
    <mask id="ccplus_logo-b" fill="white">
      <use xlink:href="#ccplus_logo-a"/>
    </mask>
    <g mask="url(#ccplus_logo-b)">
      <g transform="translate(.859 2.943)">
        <ellipse cx="53.52" cy="9.452" stroke="#F0AB00" stroke-width="1.754" rx="2.479" ry="2.485" transform="rotate(-90 53.52 9.452)"/>
        <ellipse cx="84.588" cy="34.838" stroke="#F0AB00" stroke-width="1.754" rx="2.479" ry="2.485" transform="rotate(-90 84.588 34.838)"/>
        <path stroke="#F0AB00" stroke-width="2.889" d="M51.8195097,12.9416623 C56.7616059,12.9416623 61.260599,14.8056551 64.6232319,17.8588883 C68.0018566,20.926642 70.2335495,25.1953759 70.606535,29.9755529 C70.6428227,30.4406165 70.6609792,30.9036266 70.6619537,31.363611 C71.1183194,31.3268121 71.5803127,31.3079993 72.0471924,31.3079032 C76.5627517,31.3069737 80.6219375,33.0570581 83.5539919,35.8973696 C86.4814051,38.7331851 88.2830035,42.6556729 88.2830035,46.9907844 C88.2830035,51.3185325 86.487917,55.2350854 83.590186,58.0706773 C80.680997,60.9174815 76.6612854,62.6756919 72.222717,62.6756919 L72.222717,62.6756919 L12.2758351,62.6756919 C9.23096296,62.394119 6.51377321,61.0104815 4.56064909,58.9370823 C2.62784453,56.885254 1.44473807,54.1561857 1.44473807,51.1574549 C1.44473807,48.3429707 2.4867878,45.7656922 4.21344396,43.7676761 C5.97894179,41.7247141 8.45857262,40.2858318 11.2774127,39.8103673 C11.6593601,39.7459428 12.0412261,39.7002706 12.4217521,39.6722634 C12.4264259,39.284843 12.4447008,38.8954478 12.47696,38.504589 C12.8404638,34.1003045 14.9250976,30.1704434 18.0701328,27.3469151 C21.2035671,24.5338018 25.3897309,22.8182147 29.9865321,22.8182147 C31.27747,22.8182147 32.5359863,22.953358 33.7479141,23.2102054 C34.1000862,23.2848422 34.4516854,23.3704683 34.8024455,23.4670704 C34.9608482,23.1418613 35.1289528,22.8210624 35.3066501,22.5051529 C36.9376824,19.6055102 39.3404203,17.1826218 42.2420378,15.500967 C45.0491243,13.8740984 48.3234179,12.9416623 51.8195097,12.9416623 Z" transform="matrix(-1 0 0 1 89.728 0)"/>
        <g transform="translate(54.718 4.012)">
          <mask id="ccplus_logo-d" fill="white">
            <use xlink:href="#ccplus_logo-c"/>
          </mask>
          <path stroke="#F0AB00" stroke-linecap="round" stroke-width="2.889" d="M25.6256009,23.4081048 C25.8484025,22.2739154 25.9677185,21.1064491 25.9677185,19.9460062 C25.9677185,10.2937985 18.1304521,2.4691381 8.46269397,2.4691381 C5.87133429,2.4691381 3.41148849,3.03131027 1.19883359,4.04016364" mask="url(#ccplus_logo-d)"/>
        </g>
        <path stroke="#F0AB00" stroke-linecap="round" stroke-width="2.889" d="M73.5707592,22.64579 C72.9240814,17.4910672 68.5187042,13.503099 63.1803865,13.503099 C61.2446614,13.503099 59.4316046,14.0274598 57.8759427,14.9416716"/>
        <path stroke="#F0AB00" stroke-linecap="round" stroke-width="2.889" d="M85.7331252,32.1634837 C86.6675665,29.6039602 87.1773406,26.8405942 87.1773406,23.9583556 C87.1773406,10.7265212 76.4335383,0 63.1803865,0 C55.6893506,0 49.0000049,3.42692265 44.5993216,8.79618748"/>
      </g>
    </g>
    <path fill="#FFFFFF" fill-rule="nonzero" d="M35.0374471,67.8300237 C36.2147633,67.8300237 37.224161,67.6788898 38.0656402,67.3766219 C38.9071194,67.0743541 39.6259615,66.6549575 40.2221665,66.1184321 C40.8183714,65.5819067 41.2975995,64.9471443 41.6598506,64.2141448 C42.0221018,63.4811453 42.3126574,62.6801355 42.5315174,61.8111155 L42.5315174,61.8111155 L38.1505428,60.8363017 C37.8864013,61.9093525 37.5298104,62.7235865 37.0807699,63.2790037 C36.6317294,63.8344208 35.9581687,64.1121294 35.0600878,64.1121294 C33.9205061,64.1121294 33.0639331,63.6398359 32.4903688,62.6952489 C31.9168045,61.7506619 31.6300223,60.4886937 31.6300223,58.9093443 C31.6300223,57.2997681 31.9054841,56.0510241 32.4564077,55.1631124 C33.0073313,54.2752006 33.8601309,53.8312448 35.0148064,53.8312448 C35.4676203,53.8312448 35.8525121,53.9087009 36.1694819,54.0636132 C36.4864516,54.2185254 36.7524798,54.4263346 36.9675664,54.6870406 C37.182653,54.9477466 37.3637786,55.2575711 37.5109431,55.6165141 C37.6581076,55.9754572 37.7920651,56.3627378 37.9128155,56.7783561 L37.9128155,56.7783561 L42.2937901,55.4748261 C42.1126646,54.7191565 41.8522966,54.0050488 41.5126861,53.3325028 C41.1730757,52.6599569 40.7202618,52.0799805 40.1542444,51.5925736 C39.588227,51.1051668 38.8882521,50.7178861 38.0543198,50.4307317 C37.2203875,50.1435772 36.2147633,50 35.0374471,50 C33.9431468,50 32.9092217,50.1700257 31.9356717,50.510077 C30.9621218,50.8501283 30.111209,51.379097 29.3829333,52.0969831 C28.6546575,52.8148692 28.0754331,53.7348969 27.6452598,54.8570662 C27.2150866,55.9792355 27,57.3299949 27,58.9093443 C27,60.4886937 27.2075397,61.8394531 27.6226191,62.9616224 C28.0376986,64.0837918 28.6056027,65.0057086 29.3263315,65.7273731 C30.0470603,66.4490375 30.8979732,66.9798954 31.87907,67.3199467 C32.8601668,67.659998 33.9129592,67.8300237 35.0374471,67.8300237 Z M52.6179475,67.8300237 C53.6518726,67.8300237 54.6725907,67.659998 55.6801016,67.3199467 C56.6876126,66.9798954 57.589467,66.4490375 58.3856648,65.7273731 C59.1818626,65.0057086 59.823349,64.0837918 60.310124,62.9616224 C60.7968989,61.8394531 61.0402864,60.4886937 61.0402864,58.9093443 C61.0402864,57.3299949 60.7968989,55.9792355 60.310124,54.8570662 C59.823349,53.7348969 59.1818626,52.8148692 58.3856648,52.0969831 C57.589467,51.379097 56.6876126,50.8501283 55.6801016,50.510077 C54.6725907,50.1700257 53.6518726,50 52.6179475,50 C51.5840224,50 50.5614176,50.1700257 49.5501332,50.510077 C48.5388488,50.8501283 47.6351077,51.379097 46.8389099,52.0969831 C46.042712,52.8148692 45.4012257,53.7348969 44.9144507,54.8570662 C44.4276757,55.9792355 44.1842883,57.3299949 44.1842883,58.9093443 C44.1842883,60.4886937 44.4276757,61.8394531 44.9144507,62.9616224 C45.4012257,64.0837918 46.042712,65.0057086 46.8389099,65.7273731 C47.6351077,66.4490375 48.5388488,66.9798954 49.5501332,67.3199467 C50.5614176,67.659998 51.5840224,67.8300237 52.6179475,67.8300237 Z M52.6179475,64.1121294 C51.3953499,64.1121294 50.455761,63.6398359 49.7991809,62.6952489 C49.1426007,61.7506619 48.8143106,60.4886937 48.8143106,58.9093443 C48.8143106,57.3148815 49.1426007,56.0699159 49.7991809,55.1744474 C50.455761,54.278979 51.3953499,53.8312448 52.6179475,53.8312448 C53.8254513,53.8312448 54.7574933,54.278979 55.4140735,55.1744474 C56.0706536,56.0699159 56.3989437,57.3148815 56.3989437,58.9093443 C56.3989437,60.4886937 56.0706536,61.7506619 55.4140735,62.6952489 C54.7574933,63.6398359 53.8254513,64.1121294 52.6179475,64.1121294 Z M67.66269,67.5013074 L67.66269,57.8891904 L67.7079714,57.8891904 L74.2737732,67.5013074 L78.5641851,67.5013074 L78.5641851,50.3173812 L74.3190546,50.3173812 L74.3190546,59.9521683 L74.2737732,59.9521683 L67.9909801,50.3173812 L63.4175595,50.3173812 L63.4175595,67.5013074 L67.66269,67.5013074 Z M90.6429964,67.5693177 L96.484296,50.3173812 L92.1712434,50.3173812 L88.548732,61.4937343 L88.5034506,61.4937343 L85.0733852,50.3173812 L80.3867611,50.3173812 L86.239381,67.5693177 L90.6429964,67.5693177 Z M110.94038,67.5013074 L110.94038,63.760743 L102.948215,63.760743 L102.948215,60.5869308 L108.370661,60.5869308 L108.370661,56.9597168 L102.948215,56.9597168 L102.948215,54.1712961 L110.555489,54.1712961 L110.555489,50.3173812 L98.306872,50.3173812 L98.306872,67.5013074 L110.94038,67.5013074 Z M117.811832,67.5013074 L117.811832,61.5390745 L119.079711,61.5390745 L122.396573,67.5013074 L127.309604,67.5013074 L123.675772,60.9269821 C124.80026,60.5415906 125.645512,59.9502792 126.21153,59.1530478 C126.777547,58.3558164 127.060556,57.277098 127.060556,55.9168928 C127.060556,54.8816255 126.898298,54.0069379 126.573781,53.2928302 C126.249264,52.5787224 125.781357,52.0025244 125.170058,51.564236 C124.558759,51.1259477 123.813503,50.8085664 122.934289,50.6120924 C122.055075,50.4156183 121.064545,50.3173812 119.962698,50.3173812 L119.962698,50.3173812 L113.261052,50.3173812 L113.261052,67.5013074 L117.811832,67.5013074 Z M119.804213,58.0025408 L117.811832,58.0025408 L117.811832,54.0806157 L119.804213,54.0806157 C120.762669,54.0806157 121.45887,54.2241929 121.892817,54.5113474 C122.326764,54.7985018 122.543737,55.3048004 122.543737,56.0302432 C122.543737,56.7632427 122.326764,57.2752089 121.892817,57.5661416 C121.45887,57.8570744 120.762669,58.0025408 119.804213,58.0025408 L119.804213,58.0025408 Z M136.807376,67.8300237 C137.456409,67.8300237 138.03186,67.7317866 138.533729,67.5353126 C139.035597,67.3388385 139.467657,67.1064701 139.829908,66.8382074 C140.19216,66.5699447 140.480828,66.2884578 140.695915,65.9937466 C140.911002,65.6990355 141.048733,65.4421078 141.109108,65.2229636 L141.109108,65.2229636 L141.165709,65.2229636 L141.165709,67.5013074 L144.799541,67.5013074 L144.799541,58.6599734 L137.894129,58.6599734 L137.894129,62.0491514 L140.395926,62.0491514 C140.146878,62.6839139 139.767647,63.1864341 139.258231,63.5567122 C138.748815,63.9269903 138.124309,64.1121294 137.384713,64.1121294 C137.07529,64.1121294 136.714926,64.0573433 136.30362,63.9477712 C135.892314,63.8381991 135.501762,63.6020524 135.131964,63.239331 C134.762166,62.8766096 134.445196,62.3438626 134.181055,61.6410898 C133.916913,60.9383171 133.784843,59.9823951 133.784843,58.7733238 C133.784843,57.8136234 133.881066,57.016392 134.073511,56.3816296 C134.265957,55.7468671 134.520665,55.2405685 134.837635,54.8627337 C135.154605,54.4848989 135.518743,54.2185254 135.930049,54.0636132 C136.341355,53.9087009 136.754547,53.8312448 137.169627,53.8312448 C137.833754,53.8312448 138.416752,54.0466106 138.91862,54.4773422 C139.420489,54.9080739 139.845002,55.6750785 140.19216,56.7783561 L140.19216,56.7783561 L144.42597,55.5881765 C144.116547,54.4622289 143.718448,53.5384228 143.231673,52.8167584 C142.744898,52.0950939 142.188314,51.5264525 141.561922,51.1108343 C140.935529,50.695216 140.252535,50.4061724 139.512939,50.2437034 C138.773343,50.0812345 137.999786,50 137.192267,50 C135.909295,50 134.769713,50.2078091 133.773522,50.6234274 C132.777332,51.0390457 131.935852,51.6303571 131.249085,52.3973617 C130.562317,53.1643664 130.037807,54.0938399 129.675556,55.1857825 C129.313305,56.277725 129.13218,57.4962422 129.13218,58.8413341 C129.13218,60.1410857 129.273684,61.3369328 129.556693,62.4288754 C129.839701,63.5208179 130.290629,64.4691832 130.909474,65.2739713 C131.52832,66.0787594 132.320744,66.7059652 133.286747,67.1555886 C134.25275,67.605212 135.426293,67.8300237 136.807376,67.8300237 Z M160.557466,67.5013074 L160.557466,63.760743 L152.5653,63.760743 L152.5653,60.5869308 L157.987747,60.5869308 L157.987747,56.9597168 L152.5653,56.9597168 L152.5653,54.1712961 L160.172574,54.1712961 L160.172574,50.3173812 L147.923957,50.3173812 L147.923957,67.5013074 L160.557466,67.5013074 Z M168.51567,67.5013074 C169.768455,67.5013074 170.966526,67.3652869 172.109881,67.0932459 C173.253236,66.8212048 174.256973,66.3526897 175.121093,65.6877004 C175.985213,65.0227112 176.673868,64.1291319 177.187057,63.0069626 C177.700246,61.8847933 177.95684,60.481137 177.95684,58.7959939 C177.95684,57.1713043 177.704019,55.8129882 177.198377,54.7210457 C176.692735,53.6291031 176.007854,52.758194 175.143734,52.1083181 C174.279614,51.4584423 173.275877,50.9974838 172.132521,50.7254428 C170.989166,50.4534017 169.783549,50.3173812 168.51567,50.3173812 L168.51567,50.3173812 L162.878137,50.3173812 L162.878137,67.5013074 L168.51567,67.5013074 Z M168.776038,63.760743 L167.496839,63.760743 L167.496839,54.1712961 L168.719437,54.1712961 C169.602424,54.1712961 170.338246,54.2657548 170.926904,54.4546722 C171.515562,54.6435896 171.987244,54.930744 172.341948,55.3161355 C172.696652,55.701527 172.947586,56.1889338 173.094751,56.7783561 C173.241916,57.3677784 173.315498,58.0554377 173.315498,58.8413341 C173.315498,59.7103541 173.241916,60.458467 173.094751,61.0856727 C172.947586,61.7128785 172.700426,62.2229554 172.353268,62.6159036 C172.006111,63.0088518 171.541977,63.2978954 170.960865,63.4830344 C170.379754,63.6681735 169.651478,63.760743 168.776038,63.760743 L168.776038,63.760743 Z M194.20154,67.8300237 C195.378856,67.8300237 196.388254,67.6788898 197.229733,67.3766219 C198.071212,67.0743541 198.790054,66.6549575 199.386259,66.1184321 C199.982464,65.5819067 200.461692,64.9471443 200.823943,64.2141448 C201.186195,63.4811453 201.47675,62.6801355 201.69561,61.8111155 L201.69561,61.8111155 L197.314636,60.8363017 C197.050494,61.9093525 196.693903,62.7235865 196.244863,63.2790037 C195.795822,63.8344208 195.122261,64.1121294 194.224181,64.1121294 C193.084599,64.1121294 192.228026,63.6398359 191.654462,62.6952489 C191.080897,61.7506619 190.794115,60.4886937 190.794115,58.9093443 C190.794115,57.2997681 191.069577,56.0510241 191.6205,55.1631124 C192.171424,54.2752006 193.024224,53.8312448 194.178899,53.8312448 C194.631713,53.8312448 195.016605,53.9087009 195.333575,54.0636132 C195.650544,54.2185254 195.916573,54.4263346 196.131659,54.6870406 C196.346746,54.9477466 196.527871,55.2575711 196.675036,55.6165141 C196.8222,55.9754572 196.956158,56.3627378 197.076908,56.7783561 L197.076908,56.7783561 L201.457883,55.4748261 C201.276757,54.7191565 201.016389,54.0050488 200.676779,53.3325028 C200.337168,52.6599569 199.884355,52.0799805 199.318337,51.5925736 C198.75232,51.1051668 198.052345,50.7178861 197.218413,50.4307317 C196.38448,50.1435772 195.378856,50 194.20154,50 C193.10724,50 192.073314,50.1700257 191.099764,50.510077 C190.126215,50.8501283 189.275302,51.379097 188.547026,52.0969831 C187.81875,52.8148692 187.239526,53.7348969 186.809353,54.8570662 C186.379179,55.9792355 186.164093,57.3299949 186.164093,58.9093443 C186.164093,60.4886937 186.371632,61.8394531 186.786712,62.9616224 C187.201791,64.0837918 187.769695,65.0057086 188.490424,65.7273731 C189.211153,66.4490375 190.062066,66.9798954 191.043163,67.3199467 C192.02426,67.659998 193.077052,67.8300237 194.20154,67.8300237 Z M216.00453,67.5013074 L216.00453,63.760743 L208.793468,63.760743 L208.793468,50.3173812 L204.152126,50.3173812 L204.152126,67.5013074 L216.00453,67.5013074 Z M225.581544,67.8300237 C226.61547,67.8300237 227.636188,67.659998 228.643699,67.3199467 C229.65121,66.9798954 230.553064,66.4490375 231.349262,65.7273731 C232.14546,65.0057086 232.786946,64.0837918 233.273721,62.9616224 C233.760496,61.8394531 234.003883,60.4886937 234.003883,58.9093443 C234.003883,57.3299949 233.760496,55.9792355 233.273721,54.8570662 C232.786946,53.7348969 232.14546,52.8148692 231.349262,52.0969831 C230.553064,51.379097 229.65121,50.8501283 228.643699,50.510077 C227.636188,50.1700257 226.61547,50 225.581544,50 C224.547619,50 223.525015,50.1700257 222.51373,50.510077 C221.502446,50.8501283 220.598705,51.379097 219.802507,52.0969831 C219.006309,52.8148692 218.364823,53.7348969 217.878048,54.8570662 C217.391273,55.9792355 217.147885,57.3299949 217.147885,58.9093443 C217.147885,60.4886937 217.391273,61.8394531 217.878048,62.9616224 C218.364823,64.0837918 219.006309,65.0057086 219.802507,65.7273731 C220.598705,66.4490375 221.502446,66.9798954 222.51373,67.3199467 C223.525015,67.659998 224.547619,67.8300237 225.581544,67.8300237 Z M225.581544,64.1121294 C224.358947,64.1121294 223.419358,63.6398359 222.762778,62.6952489 C222.106198,61.7506619 221.777908,60.4886937 221.777908,58.9093443 C221.777908,57.3148815 222.106198,56.0699159 222.762778,55.1744474 C223.419358,54.278979 224.358947,53.8312448 225.581544,53.8312448 C226.789048,53.8312448 227.72109,54.278979 228.37767,55.1744474 C229.034251,56.0699159 229.362541,57.3148815 229.362541,58.9093443 C229.362541,60.4886937 229.034251,61.7506619 228.37767,62.6952489 C227.72109,63.6398359 226.789048,64.1121294 225.581544,64.1121294 Z M243.252608,67.7620134 C245.750631,67.7620134 247.57132,67.138586 248.714676,65.8917312 C249.858031,64.6448764 250.429708,62.8841663 250.429708,60.6096009 L250.429708,60.6096009 L250.429708,50.3173812 L245.890249,50.3173812 L245.890249,60.5869308 C245.890249,61.773332 245.688369,62.642352 245.28461,63.1939908 C244.880851,63.7456296 244.218611,64.021449 243.297889,64.021449 C242.369621,64.021449 241.699833,63.7456296 241.288527,63.1939908 C240.877221,62.642352 240.671568,61.773332 240.671568,60.5869308 L240.671568,60.5869308 L240.671568,50.3173812 L236.041546,50.3173812 L236.041546,60.6096009 C236.041546,62.8841663 236.616997,64.6448764 237.767899,65.8917312 C238.918801,67.138586 240.747037,67.7620134 243.252608,67.7620134 Z M258.919969,67.5013074 C260.172754,67.5013074 261.370825,67.3652869 262.51418,67.0932459 C263.657535,66.8212048 264.661272,66.3526897 265.525392,65.6877004 C266.389512,65.0227112 267.078167,64.1291319 267.591356,63.0069626 C268.104545,61.8847933 268.36114,60.481137 268.36114,58.7959939 C268.36114,57.1713043 268.108318,55.8129882 267.602676,54.7210457 C267.097034,53.6291031 266.412153,52.758194 265.548033,52.1083181 C264.683913,51.4584423 263.680176,50.9974838 262.53682,50.7254428 C261.393465,50.4534017 260.187848,50.3173812 258.919969,50.3173812 L258.919969,50.3173812 L253.282436,50.3173812 L253.282436,67.5013074 L258.919969,67.5013074 Z M259.180337,63.760743 L257.901138,63.760743 L257.901138,54.1712961 L259.123736,54.1712961 C260.006723,54.1712961 260.742545,54.2657548 261.331203,54.4546722 C261.919862,54.6435896 262.391543,54.930744 262.746247,55.3161355 C263.100951,55.701527 263.351886,56.1889338 263.49905,56.7783561 C263.646215,57.3677784 263.719797,58.0554377 263.719797,58.8413341 C263.719797,59.7103541 263.646215,60.458467 263.49905,61.0856727 C263.351886,61.7128785 263.104725,62.2229554 262.757567,62.6159036 C262.41041,63.0088518 261.946276,63.2978954 261.365164,63.4830344 C260.784053,63.6681735 260.055778,63.760743 259.180337,63.760743 L259.180337,63.760743 Z"/>
    <path fill="#F0AB00" fill-rule="nonzero" d="M31.8042107,90.2161759 L31.8042107,73.5609024 L28.1567497,73.5609024 L28.1567497,90.2161759 L31.8042107,90.2161759 Z M38.7146111,90.2161759 L38.7146111,82.1631974 C39.1174431,81.8189591 39.5330925,81.5333145 39.9615593,81.3062638 C40.3900261,81.079213 40.8422966,80.9656876 41.3183708,80.9656876 C41.8310661,80.9656876 42.195446,81.1048477 42.4115105,81.3831681 C42.6275749,81.6614884 42.7356072,82.0716446 42.7356072,82.6136368 L42.7356072,82.6136368 L42.7356072,90.2161759 L46.3391228,90.2161759 L46.3391228,81.4600724 C46.3391228,80.844838 46.2530632,80.3174942 46.0809441,79.8780411 C45.9088249,79.438588 45.6689568,79.0797013 45.3613396,78.8013809 C45.0537224,78.5230606 44.6856804,78.3161515 44.2572136,78.1806534 C43.8287468,78.0451554 43.3618279,77.9774063 42.8564568,77.9774063 C42.329113,77.9774063 41.8512077,78.0451554 41.4227409,78.1806534 C40.9942741,78.3161515 40.6079216,78.4882706 40.2636833,78.6970108 C39.919445,78.9057511 39.6191521,79.1346329 39.3628044,79.3836563 C39.1064568,79.6326798 38.8903923,79.874379 38.7146111,80.108754 L38.7146111,80.108754 L38.7146111,78.2191056 L35.0891228,78.2191056 L35.0891228,90.2161759 L38.7146111,90.2161759 Z M53.6560173,90.2161759 L53.6560173,80.8558243 L56.2597771,80.8558243 L56.2597771,78.2191056 L53.6560173,78.2191056 L53.6560173,77.5049942 C53.6560173,77.1900528 53.6999626,76.9355362 53.7878532,76.7414444 C53.8757439,76.5473526 53.9984245,76.4008683 54.1558952,76.3019913 C54.3133659,76.2031143 54.4946404,76.1390274 54.6997185,76.1097306 C54.9047966,76.0804337 55.1208611,76.0657852 55.3479118,76.0657852 C55.5236931,76.0657852 55.7196159,76.0731095 55.9356804,76.0877579 C56.1517448,76.1024063 56.3073845,76.124379 56.4025993,76.1536759 L56.4025993,76.1536759 L56.4025993,73.6378067 C56.358654,73.6231583 56.2506218,73.6066788 56.0785027,73.5883683 C55.9063835,73.5700577 55.7104607,73.5535782 55.4907341,73.5389298 C55.2710075,73.5242813 55.0494499,73.5096329 54.8260613,73.4949845 C54.6026726,73.480336 54.3994255,73.4730118 54.21632,73.4730118 C53.3300896,73.4730118 52.6141472,73.5828751 52.0684929,73.8026016 C51.5228386,74.0223282 51.099865,74.315297 50.799572,74.6815079 C50.499279,75.0477188 50.2996941,75.4670304 50.2008171,75.9394425 C50.1019402,76.4118546 50.0525017,76.8970841 50.0525017,77.3951309 L50.0525017,77.3951309 L50.0525017,78.2191056 L48.05299,78.2191056 L48.05299,80.8558243 L50.0525017,80.8558243 L50.0525017,90.2161759 L53.6560173,90.2161759 Z M61.7089958,90.2161759 L61.7089958,82.7674454 C62.0532341,82.3353165 62.4908562,81.9544571 63.021862,81.6248673 C63.5528679,81.2952774 64.1772575,81.1304825 64.895031,81.1304825 C65.0195427,81.1304825 65.1898308,81.1378067 65.4058952,81.1524552 C65.6219597,81.1671036 65.766613,81.181752 65.8398552,81.1964005 L65.8398552,81.1964005 L65.8947868,77.9774063 L65.7739372,77.9774063 C65.2099724,77.9774063 64.7137566,78.0488175 64.2852898,78.1916397 C63.856823,78.334462 63.4814568,78.5139054 63.1591911,78.7299698 C62.8369255,78.9460343 62.5586052,79.1859024 62.3242302,79.4495743 C62.0898552,79.7132462 61.8921013,79.9732559 61.7309685,80.2296036 L61.7309685,80.2296036 L61.7089958,80.2296036 L61.7089958,78.2191056 L58.0835075,78.2191056 L58.0835075,90.2161759 L61.7089958,90.2161759 Z M70.2343865,90.3919571 C71.1279411,90.3919571 71.9098015,90.2271622 72.5799675,89.8975724 C73.2501335,89.5679825 73.8598747,89.0882462 74.4091911,88.4583634 C74.4091911,88.8026016 74.436657,89.1175431 74.4915886,89.4031876 C74.5465202,89.6888321 74.6106072,89.9598282 74.6838493,90.2161759 L74.6838493,90.2161759 L78.287365,90.2161759 C78.1628532,89.9158829 78.0749626,89.5331925 78.0236931,89.0681046 C77.9724236,88.6030167 77.9467888,88.011586 77.9467888,87.2938126 L77.9467888,87.2938126 L77.9467888,82.6795548 C77.9467888,81.1341446 77.586071,79.9641007 76.8646355,79.1694229 C76.1431999,78.3747452 74.9585075,77.9774063 73.3105583,77.9774063 C72.563488,77.9774063 71.8859978,78.0378311 71.2780876,78.1586808 C70.6701775,78.2795304 70.1263542,78.4406632 69.6466179,78.6420792 C69.1668816,78.8434952 68.7347527,79.072377 68.3502312,79.3287247 C67.9657097,79.5850724 67.6233025,79.8450821 67.3230095,80.108754 L67.3230095,80.108754 L68.8610954,82.18517 C69.4104118,81.7457169 70.0128288,81.3886612 70.6683464,81.114003 C71.323864,80.8393448 72.0324822,80.7020157 72.7942009,80.7020157 C73.3801384,80.7020157 73.7957878,80.8320206 74.0411491,81.0920304 C74.2865105,81.3520401 74.4091911,81.7017716 74.4091911,82.1412247 L74.4091911,82.1412247 L74.4091911,82.4268692 C71.7724724,82.6392716 69.8462029,83.1354874 68.6303825,83.9155167 C67.4145622,84.695546 66.8066521,85.7740372 66.8066521,87.1509903 C66.8066521,87.6636856 66.8963738,88.1232804 67.0758171,88.5297745 C67.2552605,88.9362686 67.5024529,89.2768448 67.8173943,89.551503 C68.1323357,89.8261612 68.4967156,90.0349015 68.9105339,90.1777237 C69.3243523,90.320546 69.7656365,90.3919571 70.2343865,90.3919571 Z M71.6735954,87.6783341 C71.2780876,87.6783341 70.9576531,87.5831192 70.7122917,87.3926895 C70.4669304,87.2022599 70.3442497,86.9129532 70.3442497,86.5247696 C70.3442497,85.968129 70.6628532,85.5140274 71.3000603,85.1624649 C71.9372673,84.8109024 72.9736443,84.561879 74.4091911,84.4153946 L74.4091911,84.4153946 L74.4091911,86.6346329 C74.1162224,86.9349259 73.7445183,87.1839493 73.2940788,87.3817032 C72.8436394,87.5794571 72.3034782,87.6783341 71.6735954,87.6783341 Z M85.3076286,90.4688614 C85.9961052,90.4688614 86.658947,90.3937882 87.296154,90.2436417 C87.9333611,90.0934952 88.4954948,89.8572891 88.9825554,89.5350235 C89.4696159,89.2127579 89.8596306,88.7916153 90.1525993,88.2715958 C90.4455681,87.7515763 90.5920525,87.1326798 90.5920525,86.4149063 C90.5920525,85.7410782 90.4492302,85.1862686 90.1635857,84.7504776 C89.8779411,84.3146866 89.5080681,83.9649552 89.0539665,83.7012833 C88.599865,83.4376114 88.0798454,83.2380265 87.4939079,83.1025284 C86.9079704,82.9670304 86.3220329,82.8480118 85.7360954,82.7454727 C84.9890251,82.6136368 84.4452019,82.4561661 84.1046257,82.2730606 C83.7640495,82.0899552 83.5937615,81.8189591 83.5937615,81.4600724 C83.5937615,81.1304825 83.7329216,80.8723038 84.0112419,80.6855362 C84.2895622,80.4987686 84.6923943,80.4053849 85.219738,80.4053849 C85.7910271,80.4053849 86.3678093,80.5189102 86.9500847,80.745961 C87.5323601,80.9730118 88.131115,81.2952774 88.7463493,81.7127579 L88.7463493,81.7127579 L90.1635857,79.6583145 C89.504406,79.138295 88.7701531,78.7281388 87.9608269,78.4278458 C87.1515007,78.1275528 86.1316032,77.9774063 84.9011345,77.9774063 C84.2273064,77.9774063 83.6084099,78.0634659 83.044445,78.235585 C82.4804802,78.4077042 81.9897575,78.6548966 81.5722771,78.9771622 C81.1547966,79.2994278 80.8288689,79.6967667 80.5944939,80.1691788 C80.3601189,80.6415909 80.2429314,81.1780899 80.2429314,81.7786759 C80.2429314,82.4818009 80.3820915,83.054921 80.6604118,83.4980362 C80.9387322,83.9411515 81.2994499,84.2982071 81.7425652,84.5692032 C82.1856804,84.8401993 82.6873894,85.0434464 83.2476921,85.1789444 C83.8079948,85.3144425 84.3737907,85.433461 84.9450798,85.5360001 C85.7727165,85.6824845 86.358654,85.8546036 86.7028923,86.0523575 C87.0471306,86.2501114 87.2192497,86.5577286 87.2192497,86.9752091 C87.2192497,87.3633927 87.0434685,87.6563614 86.691906,87.8541153 C86.3403435,88.0518692 85.8789177,88.1507462 85.3076286,88.1507462 C84.5752068,88.1507462 83.8336296,88.011586 83.0828972,87.7332657 C82.3321648,87.4549454 81.6858025,87.074086 81.1438103,86.5906876 L81.1438103,86.5906876 L79.7046013,88.6231583 C80.3198357,89.1431778 81.0778923,89.5807999 81.9787712,89.9360245 C82.8796501,90.2912491 83.9892693,90.4688614 85.3076286,90.4688614 Z M97.6452751,90.3699845 C97.8357048,90.3699845 98.0554314,90.3626602 98.3044548,90.3480118 C98.5534782,90.3333634 98.7933464,90.3187149 99.0240593,90.3040665 C99.2547722,90.2894181 99.4616814,90.2711075 99.6447868,90.2491349 C99.8278923,90.2271622 99.9560661,90.2088516 100.029308,90.1942032 L100.029308,90.1942032 L100.029308,87.6014298 C99.9047966,87.6526993 99.7271843,87.6893204 99.4964714,87.7112931 C99.2657585,87.7332657 99.0442009,87.744252 98.8317986,87.744252 C98.1726189,87.744252 97.7313347,87.6234024 97.507946,87.3817032 C97.2845573,87.140004 97.172863,86.6968888 97.172863,86.0523575 L97.172863,86.0523575 L97.172863,80.8558243 L100.249035,80.8558243 L100.249035,78.2191056 L97.172863,78.2191056 L97.172863,74.1102188 L93.5693474,74.1102188 L93.5693474,78.2191056 L91.5698357,78.2191056 L91.5698357,80.8558243 L93.5693474,80.8558243 L93.5693474,86.8433731 C93.5693474,87.4146622 93.6151238,87.9163712 93.7066765,88.3485001 C93.7982292,88.780629 93.9849968,89.1468399 94.2669792,89.4471329 C94.5489616,89.7474259 94.960949,89.9763077 95.5029411,90.1337784 C96.0449333,90.2912491 96.7590447,90.3699845 97.6452751,90.3699845 Z M105.83009,90.2161759 L105.83009,82.7674454 C106.174328,82.3353165 106.61195,81.9544571 107.142956,81.6248673 C107.673962,81.2952774 108.298351,81.1304825 109.016125,81.1304825 C109.140636,81.1304825 109.310925,81.1378067 109.526989,81.1524552 C109.743053,81.1671036 109.887707,81.181752 109.960949,81.1964005 L109.960949,81.1964005 L110.015881,77.9774063 L109.895031,77.9774063 C109.331066,77.9774063 108.83485,78.0488175 108.406384,78.1916397 C107.977917,78.334462 107.602551,78.5139054 107.280285,78.7299698 C106.958019,78.9460343 106.679699,79.1859024 106.445324,79.4495743 C106.210949,79.7132462 106.013195,79.9732559 105.852062,80.2296036 L105.852062,80.2296036 L105.83009,80.2296036 L105.83009,78.2191056 L102.204601,78.2191056 L102.204601,90.2161759 L105.83009,90.2161759 Z M115.113537,90.4688614 C115.640881,90.4688614 116.118786,90.4011124 116.547253,90.2656143 C116.975719,90.1301163 117.362072,89.9598282 117.70631,89.7547501 C118.050549,89.549672 118.34901,89.3207901 118.601696,89.0681046 C118.854382,88.815419 119.072277,88.5755509 119.255383,88.3485001 L119.255383,88.3485001 L119.255383,90.2161759 L122.880871,90.2161759 L122.880871,78.2191056 L119.255383,78.2191056 L119.255383,86.370961 C118.852551,86.7151993 118.436901,87.0026749 118.008434,87.2333878 C117.579968,87.4641007 117.124035,87.5794571 116.640636,87.5794571 C116.135265,87.5794571 115.772717,87.4384659 115.55299,87.1564835 C115.333263,86.8745011 115.2234,86.4625138 115.2234,85.9205216 L115.2234,85.9205216 L115.2234,78.2191056 L111.608898,78.2191056 L111.608898,86.9752091 C111.608898,87.5904434 111.694958,88.1196183 111.867077,88.5627335 C112.039196,89.0058487 112.282726,89.3702286 112.597668,89.6558731 C112.912609,89.9415177 113.284313,90.1484268 113.71278,90.2766007 C114.141247,90.4047745 114.608166,90.4688614 115.113537,90.4688614 Z M130.867931,90.4688614 C131.666271,90.4688614 132.360241,90.3663224 132.949841,90.1612442 C133.53944,89.9561661 134.048473,89.68517 134.47694,89.3482559 C134.905407,89.0113419 135.266125,88.6213272 135.559093,88.178212 C135.852062,87.7350968 136.097424,87.2828263 136.295177,86.8214005 L136.295177,86.8214005 L133.29591,85.7886856 C133.039562,86.5943497 132.702648,87.1509903 132.285168,87.4586075 C131.867687,87.7662247 131.417248,87.9200333 130.933849,87.9200333 C130.516369,87.9200333 130.161144,87.8303116 129.868176,87.6508683 C129.575207,87.4714249 129.335339,87.2169083 129.148571,86.8873184 C128.961803,86.5577286 128.822643,86.1713761 128.731091,85.7282608 C128.639538,85.2851456 128.593761,84.7925919 128.593761,84.2505997 C128.593761,83.0494278 128.807995,82.1467179 129.236462,81.5424698 C129.664928,80.9382218 130.245373,80.6360977 130.977795,80.6360977 C131.505138,80.6360977 131.948254,80.7807511 132.30714,81.0700577 C132.666027,81.3593643 132.96632,81.8885391 133.208019,82.6575821 L133.208019,82.6575821 L136.251232,81.6468399 C136.068127,81.1634415 135.8484,80.7001847 135.592052,80.2570694 C135.335705,79.8139542 135.006115,79.4239395 134.603283,79.0870255 C134.200451,78.7501114 133.706066,78.4809464 133.120129,78.2795304 C132.534191,78.0781143 131.834728,77.9774063 131.02174,77.9774063 C130.36256,77.9774063 129.677746,78.0781143 128.967297,78.2795304 C128.256847,78.4809464 127.604992,78.8215225 127.01173,79.3012589 C126.418468,79.7809952 125.931408,80.4218643 125.550549,81.2238663 C125.169689,82.0258683 124.979259,83.0274552 124.979259,84.228627 C124.979259,85.400502 125.155041,86.3837784 125.506603,87.1784561 C125.858166,87.9731339 126.314098,88.614003 126.874401,89.1010636 C127.434704,89.5881241 128.064587,89.9378556 128.76405,90.1502579 C129.463512,90.3626602 130.164806,90.4688614 130.867931,90.4688614 Z M143.161633,90.3699845 C143.352062,90.3699845 143.571789,90.3626602 143.820812,90.3480118 C144.069836,90.3333634 144.309704,90.3187149 144.540417,90.3040665 C144.77113,90.2894181 144.978039,90.2711075 145.161144,90.2491349 C145.34425,90.2271622 145.472424,90.2088516 145.545666,90.1942032 L145.545666,90.1942032 L145.545666,87.6014298 C145.421154,87.6526993 145.243542,87.6893204 145.012829,87.7112931 C144.782116,87.7332657 144.560558,87.744252 144.348156,87.744252 C143.688976,87.744252 143.247692,87.6234024 143.024303,87.3817032 C142.800915,87.140004 142.68922,86.6968888 142.68922,86.0523575 L142.68922,86.0523575 L142.68922,80.8558243 L145.765392,80.8558243 L145.765392,78.2191056 L142.68922,78.2191056 L142.68922,74.1102188 L139.085705,74.1102188 L139.085705,78.2191056 L137.086193,78.2191056 L137.086193,80.8558243 L139.085705,80.8558243 L139.085705,86.8433731 C139.085705,87.4146622 139.131481,87.9163712 139.223034,88.3485001 C139.314587,88.780629 139.501354,89.1468399 139.783337,89.4471329 C140.065319,89.7474259 140.477306,89.9763077 141.019299,90.1337784 C141.561291,90.2912491 142.275402,90.3699845 143.161633,90.3699845 Z M151.115734,90.4688614 C151.643078,90.4688614 152.120983,90.4011124 152.54945,90.2656143 C152.977917,90.1301163 153.364269,89.9598282 153.708508,89.7547501 C154.052746,89.549672 154.351208,89.3207901 154.603893,89.0681046 C154.856579,88.815419 155.074474,88.5755509 155.25758,88.3485001 L155.25758,88.3485001 L155.25758,90.2161759 L158.883068,90.2161759 L158.883068,78.2191056 L155.25758,78.2191056 L155.25758,86.370961 C154.854748,86.7151993 154.439098,87.0026749 154.010632,87.2333878 C153.582165,87.4641007 153.126232,87.5794571 152.642834,87.5794571 C152.137463,87.5794571 151.774914,87.4384659 151.555187,87.1564835 C151.335461,86.8745011 151.225597,86.4625138 151.225597,85.9205216 L151.225597,85.9205216 L151.225597,78.2191056 L147.611095,78.2191056 L147.611095,86.9752091 C147.611095,87.5904434 147.697155,88.1196183 147.869274,88.5627335 C148.041393,89.0058487 148.284924,89.3702286 148.599865,89.6558731 C148.914806,89.9415177 149.28651,90.1484268 149.714977,90.2766007 C150.143444,90.4047745 150.610363,90.4688614 151.115734,90.4688614 Z M165.255138,90.2161759 L165.255138,82.7674454 C165.599377,82.3353165 166.036999,81.9544571 166.568005,81.6248673 C167.09901,81.2952774 167.7234,81.1304825 168.441174,81.1304825 C168.565685,81.1304825 168.735973,81.1378067 168.952038,81.1524552 C169.168102,81.1671036 169.312756,81.181752 169.385998,81.1964005 L169.385998,81.1964005 L169.440929,77.9774063 L169.32008,77.9774063 C168.756115,77.9774063 168.259899,78.0488175 167.831432,78.1916397 C167.402966,78.334462 167.027599,78.5139054 166.705334,78.7299698 C166.383068,78.9460343 166.104748,79.1859024 165.870373,79.4495743 C165.635998,79.7132462 165.438244,79.9732559 165.277111,80.2296036 L165.277111,80.2296036 L165.255138,80.2296036 L165.255138,78.2191056 L161.62965,78.2191056 L161.62965,90.2161759 L165.255138,90.2161759 Z M176.615002,90.4688614 C178.680431,90.4688614 180.419933,89.8682755 181.833508,88.6671036 L181.833508,88.6671036 L180.438244,86.502797 C180.028088,86.8763321 179.51173,87.2095841 178.889172,87.5025528 C178.266613,87.7955216 177.596447,87.9420059 176.878674,87.9420059 C176.116955,87.9420059 175.485241,87.7314347 174.983532,87.3102921 C174.481823,86.8891495 174.183361,86.1841934 174.088146,85.1954239 L174.088146,85.1954239 L182.031261,85.1954239 L182.031261,84.6570938 C182.031261,83.2947891 181.859142,82.1815079 181.514904,81.3172501 C181.170666,80.4529923 180.733044,79.773671 180.202038,79.2792862 C179.671032,78.7849015 179.07777,78.4443253 178.422253,78.2575577 C177.766735,78.0707901 177.131359,77.9774063 176.516125,77.9774063 C175.90089,77.9774063 175.241711,78.0854386 174.538586,78.301503 C173.835461,78.5175675 173.183605,78.86913 172.583019,79.3561905 C171.982433,79.8432511 171.484386,80.4841202 171.088879,81.2787979 C170.693371,82.0734757 170.495617,83.056752 170.495617,84.228627 C170.495617,85.3858536 170.667736,86.3618058 171.011974,87.1564835 C171.356213,87.9511612 171.812145,88.5920304 172.379772,89.0790909 C172.947399,89.5661515 173.599255,89.919545 174.335339,90.1392716 C175.071423,90.3589981 175.83131,90.4688614 176.615002,90.4688614 Z M178.790295,83.0640763 L174.132092,83.0640763 C174.271252,82.1778458 174.558727,81.5388077 174.994518,81.146962 C175.430309,80.7551163 175.930187,80.5591934 176.494152,80.5591934 C177.849133,80.5591934 178.614513,81.3941544 178.790295,83.0640763 L178.790295,83.0640763 Z M197.44508,90.3919571 C198.140881,90.3919571 198.772594,90.2656143 199.340221,90.0129288 C199.907848,89.7602433 200.398571,89.3738907 200.812389,88.8538712 C201.226208,88.3338516 201.544811,87.6874893 201.7682,86.9147843 C201.991589,86.1420792 202.103283,85.2393692 202.103283,84.2066544 C202.103283,83.1739395 201.991589,82.2675675 201.7682,81.4875382 C201.544811,80.7075089 201.22987,80.0593155 200.823376,79.5429581 C200.416882,79.0266007 199.929821,78.636586 199.362194,78.3729141 C198.794567,78.1092423 198.17384,77.9774063 197.500011,77.9774063 C196.613781,77.9774063 195.874035,78.1879776 195.280773,78.6091202 C194.687511,79.0302628 194.196789,79.5154923 193.808605,80.0648087 L193.808605,80.0648087 L193.808605,73.5609024 L190.183117,73.5609024 L190.183117,90.2161759 L193.808605,90.2161759 L193.808605,88.7989395 C194.255383,89.3116349 194.77174,89.7053116 195.357677,89.9799698 C195.943615,90.254628 196.639416,90.3919571 197.44508,90.3919571 Z M196.214611,87.6783341 C195.731213,87.6783341 195.306408,87.5867813 194.940197,87.4036759 C194.573986,87.2205704 194.196789,86.9422501 193.808605,86.5687149 L193.808605,86.5687149 L193.808605,82.1412247 C194.108898,81.8409317 194.460461,81.5699356 194.863293,81.3282364 C195.266125,81.0865372 195.701916,80.9656876 196.170666,80.9656876 C196.97633,80.9656876 197.564098,81.2586563 197.933971,81.8445938 C198.303844,82.4305313 198.488781,83.2252091 198.488781,84.228627 C198.488781,85.3272599 198.300182,86.1768692 197.922985,86.7774552 C197.545788,87.3780411 196.97633,87.6783341 196.214611,87.6783341 Z M206.113293,94.808461 C206.713879,94.808461 207.239391,94.7333878 207.689831,94.5832413 C208.14027,94.4330948 208.533947,94.2115372 208.870861,93.9185684 C209.207775,93.6255997 209.500744,93.2758683 209.749767,92.8693741 C209.998791,92.46288 210.225842,91.9996231 210.43092,91.4796036 L210.43092,91.4796036 L215.473644,78.2191056 L211.958019,78.2191056 L209.310314,86.0084122 L209.266369,86.0084122 L206.62965,78.2191056 L202.894299,78.2191056 L207.486584,90.2820938 L207.255871,90.8643692 C207.109386,91.2452286 206.915295,91.5143936 206.673595,91.6718643 C206.431896,91.829335 206.116955,91.9080704 205.728771,91.9080704 C205.186779,91.9080704 204.714367,91.8659561 204.311535,91.7817276 C203.908703,91.6974991 203.623058,91.6334122 203.454601,91.5894669 L203.454601,91.5894669 L202.696545,94.3799942 C203.011486,94.4678849 203.43446,94.5612686 203.965466,94.6601456 C204.496471,94.7590225 205.212414,94.808461 206.113293,94.808461 Z M229.404308,90.5347794 C230.561535,90.5347794 231.55946,90.3956192 232.398083,90.1172989 C233.236706,89.8389786 233.925182,89.4672745 234.463512,89.0021866 C235.001843,88.5370987 235.402843,88.0005997 235.666515,87.3926895 C235.930187,86.7847794 236.062023,86.1439102 236.062023,85.4700821 C236.062023,84.6131485 235.886242,83.8990372 235.534679,83.3277481 C235.183117,82.7564591 234.721691,82.2803849 234.150402,81.8995255 C233.579113,81.5186661 232.934582,81.2092179 232.216808,80.9711808 C231.499035,80.7331436 230.770275,80.5152481 230.030529,80.3174942 C228.93922,80.0172013 228.096935,79.705922 227.503674,79.3836563 C226.910412,79.0613907 226.613781,78.5706681 226.613781,77.9114884 C226.613781,77.4134415 226.82069,77.0106095 227.234509,76.7029923 C227.648327,76.3953751 228.24342,76.2415665 229.019787,76.2415665 C229.832775,76.2415665 230.609142,76.4557999 231.348888,76.8842667 C232.088634,77.3127335 232.678234,77.8858536 233.117687,78.603627 L233.117687,78.603627 L235.655529,76.6700333 C235.355236,76.2232559 235.003674,75.7929581 234.600842,75.3791397 C234.198009,74.9653214 233.725597,74.6009415 233.183605,74.2860001 C232.641613,73.9710587 232.030041,73.7202042 231.348888,73.5334366 C230.667736,73.346669 229.898693,73.2532852 229.041759,73.2532852 C228.140881,73.2532852 227.322399,73.3649796 226.586315,73.5883683 C225.850231,73.8117569 225.220348,74.1376847 224.696667,74.5661515 C224.172985,74.9946183 223.76466,75.5164688 223.471691,76.1317032 C223.178722,76.7469376 223.032238,77.4427384 223.032238,78.2191056 C223.032238,79.0906876 223.20985,79.808461 223.565075,80.3724259 C223.9203,80.9363907 224.385387,81.4014786 224.960339,81.7676895 C225.53529,82.1339005 226.183483,82.4305313 226.904919,82.6575821 C227.626354,82.8846329 228.360607,83.1006974 229.107677,83.3057755 C230.20631,83.6060684 231.043102,83.924672 231.618053,84.261586 C232.193005,84.5985001 232.48048,85.0818985 232.48048,85.7117813 C232.48048,86.3563126 232.211315,86.8360489 231.672985,87.1509903 C231.134655,87.4659317 230.437023,87.6234024 229.58009,87.6234024 C228.620617,87.6234024 227.747204,87.3798722 226.95985,86.8928116 C226.172497,86.4057511 225.548107,85.7044571 225.086681,84.7889298 L225.086681,84.7889298 L222.318127,86.436879 C222.633068,87.0374649 223.008434,87.5886124 223.444225,88.0903214 C223.880016,88.5920304 224.38905,89.0223282 224.971325,89.3812149 C225.5536,89.7401016 226.21278,90.0220841 226.948864,90.2271622 C227.684948,90.4322403 228.503429,90.5347794 229.404308,90.5347794 Z M240.83009,90.2161759 L242.11549,86.502797 L247.784435,86.502797 L249.014904,90.2161759 L252.728283,90.2161759 L246.839611,73.4949845 L243.345959,73.4949845 L237.457287,90.2161759 L240.83009,90.2161759 Z M246.927502,83.8441056 L243.016369,83.8441056 L244.971935,78.1751602 L245.015881,78.1751602 L246.927502,83.8441056 Z M258.463146,90.2161759 L258.463146,84.294545 L260.825207,84.294545 C261.652843,84.294545 262.474987,84.2231339 263.291637,84.0803116 C264.108288,83.9374893 264.844372,83.6683243 265.499889,83.2728165 C266.155407,82.8773087 266.68092,82.3298233 267.076427,81.6303604 C267.471935,80.9308975 267.669689,80.0208634 267.669689,78.9002579 C267.669689,77.8016251 267.482922,76.9080704 267.109386,76.2195938 C266.735851,75.5311173 266.234142,74.987294 265.604259,74.5881241 C264.974377,74.1889542 264.249279,73.9179581 263.428967,73.7751358 C262.608654,73.6323136 261.759045,73.5609024 260.880138,73.5609024 L260.880138,73.5609024 L254.826672,73.5609024 L254.826672,90.2161759 L258.463146,90.2161759 Z M260.968029,81.4600724 L258.463146,81.4600724 L258.463146,76.56017 L260.968029,76.56017 C262.117931,76.56017 262.925426,76.7707413 263.390514,77.1918839 C263.855602,77.6130265 264.088146,78.2117813 264.088146,78.9881485 C264.088146,79.8011368 263.85194,80.4163712 263.379528,80.8338516 C262.907116,81.2513321 262.103283,81.4600724 260.968029,81.4600724 L260.968029,81.4600724 Z"/>
  </g>
</svg>
