<svg xmlns="http://www.w3.org/2000/svg" width="65" height="38"><path fill="#3d9635" d="M0 0h64.235v37.471H0z"/><g fill="#fff"><path d="M18.162 10.706c0 .956-.191 2.485.574 2.485.956 0 .382-1.529.765-1.721 0-.191.191-.191.191 0v1.338c0 .382.191.574.574.574.191 0 .382 0 .574.191 0 .765 0 1.529.191 2.294 0 0 .574.191.574-1.338 0-.956-.191-1.529 0-1.721 0-.191.191-.191.382 0s.382.382.765.191c.574-.191.956-.382.956-.765s0-.765-.191-1.147c0 0-.191-.191 0-.382.191.191.191.191.191 0 0-.382-.191-.574-.382-.765s-.574-.191-.574.191.191.956.382 1.338c0 .191.191.382.191.574h-.382l-.382-.382c.191-.765 0-.765 0-1.147 0-.191-.191-.382-.382-.574s-.191-.191-.382 0c-.765.382-.765 1.147-.574 1.529s.191.574.191.574c0 .191-.191.191-.191 0-.191-.574-.191-1.147-.191-1.529s0-1.147-.382-1.147c-.191-.191-.382 0-.382 0v.956c.191.574.191.956.191 1.529 0 .765-.382.382-.382 0 .191-.382 0-1.147 0-1.338s-.191-.191-.382-.191-.574.382-.574.956c0 0 0 .382-.191.574 0 .382-.191.574-.382 0 0-.382-.191-1.529-.382-1.147"/><path d="M20.647 14.147l-2.294 1.147c0-.574 1.147-1.529 1.912-1.529.382 0 .191.191.382.382m2.868-4.971s0 .191 0 0c-.382.191-.574.191-.382.574l.574 3.824c0 .191-.191.382-.191.382-.382-.191-.382-.574-.956-.574-.382 0-.765.382-.765.765v.956c.191.382.574.191.765.191s.382-.382.574-.191h0s0 .765-.956 1.338c-.574.191-1.147.382-1.338-.191-.191-.382 0-1.529-.382-1.338-1.147 3.25 2.868 3.632 3.441.191 0-.191.191-.191.191-.191v.191c0 3.25-3.25 3.441-3.632 2.294-.191-.191-.191-.765-.191-1.147 0-.191 0-.382-.191-.382s-.382.191-.382.574v.765c.191 2.485 4.206 1.529 4.779-.574.382-1.147 0-1.912.191-1.912h0c.382.382.956 0 1.147 0 0 0 .191-.191.191 0 .382.191.765.191.956-.191-.191-.574-.191-.956-.191-1.338-.191 0-.382.191-.382.191v.382h-.191c0-.382-.574-.574-.765.191-.191.191-.382.191-.574 0 0-.574-.191-.574-.574-.382-.191-.956-.191-1.721-.382-2.676.191 0 .382.191.382 0 0-.574-.382-1.529-.765-1.721h0c.191.191.191.191 0 0 .191.191.191.191 0 0h0m-.956 4.971s.191 0 .191.191v.191h-.191s-.191 0-.191-.191c-.191 0 0 0 .191-.191-.191 0-.191 0 0 0-.191 0-.191 0 0 0-.191 0-.191 0 0 0"/><path d="M26.382 9.176h-.191c-.191.191-.191.574 0 .765.191 0 .382.191.191.382-.382.382-1.529 1.338-1.721 1.338h.956c.191 0 1.338-1.529 1.338-1.529s-.191 0-.191-.191V9.75c.382-.191.191-.574 0-.765-.191.191-.382.191-.382.191m0 .382s.191 0 .191.191v.191s-.191 0-.191-.191c-.191 0-.191-.191 0-.191m-8.029 6.883c-.382.765-.574 1.721-.191 2.103.191.191.382.191.574.191.191-.191.382-.765.382-.956s-.191-.191-.191 0c-.382.382-.574 0-.574-.191v-1.147c.191-.191 0-.191 0 0m18.735-1.147c-.382-.956-.956-1.912-1.147-2.103-.191-.382-1.529-2.485-1.721-2.676-.382-.574.765.191-.191-.765l-.574-.574c-.191-.191-.574-.191-.574 0v.574c0 .191.191.382.382.574 1.529 1.912 2.676 3.824 4.015 6.309 0 0 0-1.147-.191-1.338"/><path d="M35.177 18.353s.191.574.574.574c.574 0 1.147-.382 1.721-1.338.191-.191.382-.765.382-.956 0-2.103-.191-3.824-.382-5.353v-.382s.191 0 .191-.191c.191-.191-.191-.956-.574-1.338 0-.191-.191-.191-.191 0-.191.191-.191.574-.191.956.382 2.103.382 3.824.574 5.926 0 .191 0 .574-.191.574-.382.574-.956 1.338-1.912 1.529m8.602-.001c-.382.191-.382.574 0 .574.574 0 1.338-.191 1.912-.956 0-.191.191-.765.191-1.147 0-2.103 0-4.206-.382-5.735v-.574c0-.191.191 0 .382-.191 0 .191-.574-.765-.765-1.147 0-.191-.191-.191-.191 0-.191.191-.191.574-.191.956.382 2.294.574 4.397.574 6.5 0 .191 0 .382-.191.574s-.382.574-.574.765-.574.382-.765.382m.382-1.913v-1.338c0-.382-.191-1.912-.191-2.103 0-.382-.191-.765-.191-1.147 0-.191-.191-.574 0-.765 0-.191.191 0 .191-.191s-.574-1.338-.765-1.721c0-.191-.191-.191-.382.191-.191.191-.191.574 0 .956.382 2.294.765 4.779.765 7.074-.191 0 .574-.765.574-.956m-3.442-3.059c-.191 0-.956-.574-1.147-.956v-.382c.191 0 .191-.191.382 0l.191.191h.191v-.382c0-.382.382-.382.574-.191s.191.382.191.574-.191 0-.191 0l-.191.191v.956"/><path d="M35.559 17.015v-2.676c0-.956-.191-2.868-.191-3.25 0-.574.191 0 .191-.382-.191-.574-.382-.956-.765-1.529-.191-.191-.191-.191-.382 0-.191.574 0 .765 0 1.147l.574 3.632c0 1.147.191 2.485 0 3.824 0 0 .382-.382.574-.765m9.558-1.148l-1.529-2.103c-.191-.382-1.912-2.868-2.103-3.059-.574-.574.382-.191-.191-.574-.382-.382-.382-.574-.765-.765-.191 0-.191-.191-.191 0v.765c0 .191.191.382.191.574 1.529 1.912 3.25 4.206 4.588 6.5.191-.191 0-1.338 0-1.338"/><path d="M39 25.809h0c-.382.191-.382.574-.191.765H25.427c-.956 0-3.632-.191-3.632-.191.574.765 1.338.956 2.485.956h14.529c-.191.382 0 .956.191.956h0c.191 0 .191 0 .382-.191h2.103c.191.191.191.382.382.191.382 0 .574-.191.574-.765 0 0 0-1.147-.765-1.147h-.765c-.574 0-.956 0-1.721-.191 0 0 .191-.382 0-.574H39v.191m.382 1.529h2.103c.191.191 0 .382 0 .382h0-.574c0-.191-.382-.191-.574 0h0-.956c-.191 0-.191-.191 0-.382M27.147 9.941c-.382 1.338.191 2.676.765 2.676.382.191.574-.574.765-1.338l.191-.191c0 .956 0 1.147.382 1.529.574.382.956 0 1.147 0l.382-.382c0-.191.191-.191.382 0s.191.382.382.382c.191.191.765 0 .956-.191s.191-.382.191-.382c.191-.191.382 0 .382 0s-.191.191 0 .382.191 0 .191 0c.191-.382.382-.956.382-.956 0-.191-.191-.191-.191-.191-.191 0-.191 0-.191.191-.191 0-.382.191-.574-.191-.191-.191-.191-.574-.191-.765 0 0-.191-.382 0-.382h.382c0-.191-.191-.574-.382-.765s-.382-.191-.574 0-.191.382-.191.382c0 .191 0 .382.191.574.191.382.382.765.382 1.338 0 0-.191.191-.382.191s-.382 0-.382-.765c0-.574 0-1.529-.191-1.721 0-.191-.191-.382-.382 0 0 .191-.382.382-.191.956-.191 0-.191.382-.191.956-.191.191-.191.191-.191.382-.191.191-.382.191-.574 0l-.382-.382V9.75c-.191-.191-.382-.191-.574 0-.382.382-.765 1.147-.765 1.721-.191.382-.191.382-.382.191-.191-.382-.191-2.103-.574-1.721m1.532 2.677h0c-.382.382-.382.382-.382.765 0 0 .191.765.382 1.147.191.574.191 1.147.191 1.529a3.75 3.75 0 0 1-1.721 1.721c-.382.191-.574 0-.765 0h0c-.191-.191-.191-.382-.191-.382h0c.574-.382 1.147-.765 1.721-1.721.191-.382.191-.574 0-1.147 0-.191-.191-.382-.191-.574 0 0 .382.191.382 0a1.46 1.46 0 0 0-.382-.956c-.191-.191-.382-.191-.574 0s-.191.574-.191.765c.191.191.382.382.574.765h0v.574c0 .191-1.147 1.147-1.147 1.147h0v-.765c-.382.191-.382.956-.574 1.147-.956.574-1.912 1.147-2.485 1.721-.382.382 2.103-.574 2.294-.765 0 0 0 .191.191.382.191.382.765.574 1.338.382.956-.382 1.338-.956 1.912-1.529 0-.191.191-.191.382-.191.382.765 1.338 1.338 2.676 1.338.382-.382.191-.574 0-.574 0 0-.574-.191-.765-.574 0-.191 0-.382.382-.574.765-.191 1.721-.191 2.485-.382 0-.191.191-.765.191-.765.191.191.191.191.382.191h0-2.868c.574 0 1.721-.191 1.912-1.338 0-.574-.191-.956-.956-.956-.574 0-.956.574-.765 1.147 0 .191 0 .382-.191.382-.956.191-2.103.765-2.103 1.147h0l-.191-.191c0-.765-.382-1.529-.765-2.294 0-.574-.191-.574-.191-.574h0m4.015.956h.191c.191 0 .191.191.191.191h0-.191c-.382 0-.382 0-.191-.191h0c-.191 0-.191 0 0 0-.191 0-.191 0 0 0h0c-.191 0-.191 0 0 0-.191 0-.191 0 0 0m-2.485 2.294h0c.382 0 .765 0 1.147.191.382 0 .382.191.191.382s-.574.191-.574.574v.382s-.191 0-.191-.191c-.191-.191-.765-.382-.765-1.147-.191 0 0-.191.191-.191m-8.6-5.925c.382.191.956 0 .956-.382v-.191c0-.191-.191-.191-.191 0v.191s-.191 0-.191-.191v-.191.191-.191c-.191 0-.191.191-.191.191-.765.191-.765.382-.382.574"/><path d="M30.588 13.765c.382.191.956 0 .956-.382v-.191c0-.191-.191-.191-.191 0v.191s-.191 0-.191-.191V13c-.191 0-.191.191-.191.191-.574 0-.574.382-.382.574m5.161-1.53c.382.191.956 0 .956-.382v-.191c0-.191-.191-.191-.191 0v.191s-.191 0-.191-.191v-.191.191-.191c-.191 0-.191.191-.191.191-.574 0-.574.382-.382.574m2.867 3.823c-.574.574-.382 1.529-.191 1.912s.382.574.574.765c.382.191.574 0 .765 0 .191-.382.191-1.338.382-1.529.191-.382.382-.191.574-.191.191.191.191.382.382.382.382.191.574.382.956 0l.574-.574c.191-.382 0-2.676 0-3.824l-.382-1.529v-.956s0-.191 0 0l.191.191.191-.191c-.191-.574-.574-.956-.765-1.338 0 0-.191-.191-.191 0 0 0-.191.191-.191.382 0 .382 0 .574.191.956.191.574.191 1.147.382 1.721-.191 1.147 0 2.103 0 3.441 0 .574-.191 1.147-.382 1.147 0 0-.191.191-.382 0-.191 0-.574-.765-.574-.765-.191-.191-.382-.191-.574 0-.382.382-.574 1.147-.956 1.721 0 .191-.382.191-.574 0-.382-.765 0-1.912 0-1.721m-2.677-6.883c.382.191.574.765.382.956 0 .382-.191.765-.382.574-.191 0 0-.382 0-.574s-.382-.574-.382-.765c0 0 .191-.191.382-.191m3.441 7.265v-1.529c0-.382-.382-3.632-.574-3.824-.191-.574.382 0 .382-.382-.191-.382-.574-.956-.765-1.338 0-.191 0-.382-.191 0-.191.574-.191.956-.191 1.338.382 2.294.956 4.588.765 6.691.191 0 .574-.382.574-.956m4.78-6.309c.191.191.382.765.382.956 0 .382-.191.765-.191.765-.191 0 0-.574 0-.765s-.382-.574-.382-.765c-.191-.191 0-.382.191-.191m-18.735 4.971c.191 0 .382.574.382.765s-.191.574-.191.574c-.191 0 0-.382 0-.574s-.382-.382-.382-.574c-.191-.191 0-.191.191-.191m-6.309-5.927c.382.191.382.574.382.765s-.191.574-.191.574v-.574c0-.191-.382-.382-.382-.574-.191-.191 0-.382.191-.191"/><path d="M26 11.471c-.191.191-.382.574-.191.765s.382.191.382.191c.191 0 .382-.574.382-.574s0-.191-.382.191c-.191 0-.191 0-.191-.191v-.382m2.103-2.486c-.191 0-.382.382-.382.765v.382c0 .191.191.191.382 0 .191 0 .191-.191.191-.191 0-.191-.191.191-.191-.191 0-.191.191-.382.191-.574 0-.382 0-.382-.191-.191m1.529.191c0 .191-.191.765-.191.765 0 .191.191.382.382 0s.191-.765.191-.956-.191-.191-.382.191m10.515 5.353l1.529-.956c.191 0 .191.574 0 .574 0 .191-1.338 1.147-1.529 1.147-.191-.191-.191-.765 0-.765"/><path d="M41.485 14.529c.191.191.382.765.382 1.147s-.191.765-.382.574c-.191 0 0-.574 0-.574 0-.191-.191-.574-.191-.765-.191-.382 0-.574.191-.382m-8.603 3.059l.382-.382h.191v.382s0 .191.191.191c.191-.191.382-.191.574-.191s.191.382 0 .382c-.382 0-.574.191-.956.382h-.191v-.191c.191-.191.191-.382-.191-.574.191.191 0 .382 0 0 0 .191 0 0 0 0m9.942.384s.191.191 0 .191l-.191.191v.191c.191 0 .956-.382.956-.382.191 0 0-.191 0-.191h-.191s-.191 0-.191-.191c0 0 0-.191.191-.191 0-.191 0-.191-.191-.191h-.382s-.191 0-.191.191c0 .382.191.382.191.382"/></g></svg>