<svg xmlns="http://www.w3.org/2000/svg" width="65" height="38"><g fill="none" fill-rule="evenodd"><g class="B"><path fill="#3c9242" d="M0 0h64.235v37.471H0z"/><path fill="#edc226" d="M9.941 18.735l22.176 14.147 22.176-14.147L32.118 4.588z"/><path d="M41.485 18.735c0 5.162-4.206 9.368-9.368 9.368s-9.368-4.206-9.368-9.368 4.206-9.368 9.368-9.368 9.368 4.206 9.368 9.368" fill="#2d146e"/><path d="M26.764 14.721c-1.147 0-2.103 0-3.25.191-.191.382-.382.956-.574 1.529 1.147-.191 2.485-.382 3.632-.382 5.544 0 10.515 2.103 14.338 5.544.191-.574.191-.956.382-1.529-3.824-3.441-8.985-5.353-14.529-5.353" fill="#fff"/></g><g fill="#3c9242"><path d="M24.088 16.059c.191 0 .382-.191.382-.574 0-.191-.191-.382-.382-.382s-.382.191-.382.574c0 .191.191.382.382.382m0-.191c.191 0 .191-.191.191-.382s-.191-.191-.191-.191c-.191 0-.191.191-.191.382 0 0 0 .191.191.191m.765 0h0l.191-.382h.382c.191 0 .191-.191.191-.382s-.191-.191-.382-.191h-.574l.191.956zm.191-.382h.382s.191 0 .191-.191c0 0 0-.191-.191-.191h-.382v.382z"/><path d="M25.617 15.868c0-.191 0-.382-.191-.382h-.191c.191 0 .191.191.382.382" class="B"/><path d="M26 15.868h.382c.191 0 .382-.191.382-.382v-.191c0-.191-.191-.382-.382-.382H26v.956zm.191-.191h.191c.191 0 .191-.191.191-.191h0c0-.191-.191-.191-.191-.191h-.191v.382z"/><path d="M27.147 15.868h.765v-.191h-.574v-.191h.382v-.191h-.382v-.191h.574v-.191h-.765zm1.147 0h0l.191-.574v.574h.191l.191-.574v.574h.191v-.765h-.191l-.191.574-.191-.765h-.191zm1.72.191l.765.191v-.191l-.574-.191v-.191l.574.191v-.191h-.382v-.191h.382l-.574-.191z" class="B"/><path d="M31.735 16.441h0l.191-.191h.382c.191 0 .382 0 .382-.191s0-.382-.191-.382l-.574-.191-.191.956zm.382-.574h.574v-.191h-.382l-.191.191z"/><path d="M32.882 16.632h0l.191-.191.382.191c.191 0 .382 0 .382-.191s0-.382-.191-.382l-.574-.191-.191.765zm.191-.382l.382.191h.191v-.191l-.382-.191-.191.191z"/><path d="M33.647 17.015c0-.191.191-.382 0-.382h-.191c0-.191 0 .191.191.382" class="B"/><path d="M34.22 17.206c.191 0 .382 0 .574-.191 0-.191 0-.574-.191-.574s-.382 0-.574.191c0 .191 0 .382.191.574m.191-.191c.191 0 .191 0 .382-.191 0-.191 0-.382-.191-.382s-.191 0-.382.191c0 .191 0 .382.191.382m.956.573c.191 0 .382 0 .574-.191 0-.191 0-.574-.191-.574s-.382 0-.574.191 0 .574.191.574m0-.191c.191 0 .191 0 .382-.191 0-.191 0-.382-.191-.382s-.191 0-.382.191c0 .191.191.382.191.382"/><g class="B"><path d="M35.558 17.206l.382.191h-.382z"/><path d="M35.75 17.397h.191l-.191.382h-.191z"/></g><path d="M35.941 17.971h0l.382-.382.382.191c.191 0 .382 0 .382-.191s0-.382-.191-.382h-.382l-.574.765zm.382-.382l.382.191h.191v-.191l-.382-.191-.191.191z"/><g class="B"><path d="M36.705 18.162c0-.191.191-.382 0-.382l-.191-.191c.191.191.191.382.191.574"/><path d="M37.088 18.353l.574.382h.191l-.574-.382v-.191l.574.191-.382-.382v-.191l.574.382v-.191l-.574-.382z"/><path d="M38.426 18.926s0 .191.191.191h.191c.191-.191-.382-.382-.382-.574.191-.191.382 0 .574 0s.191.191.191.382L39 18.735v-.191h-.191c0 .191.382.382.382.574-.191.191-.382.191-.382 0-.574 0-.765-.191-.382-.191h0z"/><path d="M39.382 19.5v.191h.191c.191-.191-.382-.382-.191-.574s.382 0 .574 0 .191.191.191.382l-.191-.191v-.191h-.191c0 .191.382.382.191.574s-.382 0-.574 0-.382-.191 0-.191h0z"/></g><path d="M40.147 20.456c.191.191.382 0 .574-.191s.191-.382 0-.574-.382 0-.574.191-.191.574 0 .574m.191 0h.382c.191-.191 0-.191 0-.382h-.382c-.191 0-.191.191 0 .382"/></g><g fill="#fff" class="B"><path d="M24.47 16.632l-.191.382h.191z"/><path d="M24.47 16.632l.191.382h-.191z"/><path d="M24.853 16.823h-.382v.191z"/><path d="M24.853 16.823l-.382.382v-.191z"/><path d="M24.088 16.823l.382.382v-.191z"/><path d="M24.088 16.823h.382v.191z"/><path d="M24.661 17.397l-.191-.382h-.191z"/><path d="M24.661 17.397l-.382-.191.191-.191z"/><path d="M24.279 17.397l.191-.191v-.191z"/><path d="M24.279 17.397v-.382h.191zm.956 3.25v.382h.191z"/><path d="M25.235 20.647l.191.382h-.191z"/><path d="M25.617 20.838h-.382v.191z"/><path d="M25.617 20.838l-.382.191v-.191z"/><path d="M24.853 20.838l.382.191.191-.191z"/><path d="M24.853 20.838h.382v.191z"/><path d="M25.426 21.221v-.382l-.191.191z"/><path d="M25.426 21.221l-.191-.191v-.191z"/><path d="M25.044 21.221l.382-.191-.191-.191z"/><path d="M25.044 21.221l.191-.382.191.191zm-.956.382v.191z"/><path d="M24.088 21.603l.191.191h-.191z"/><path d="M24.47 21.794h-.382z"/><path d="M24.47 21.794h-.382z"/><path d="M23.897 21.794h.191z"/><path d="M23.897 21.794h.191z"/><path d="M24.279 21.985v-.191h-.191z"/><path d="M24.279 21.985l-.191-.191z"/><path d="M23.897 21.985l.382-.191h-.191z"/><path d="M23.897 21.985l.191-.191zm2.294-1.72v.191z"/><path d="M26.191 20.265v.191z"/><path d="M26.382 20.265h-.191v.191z"/><path d="M26.382 20.265l-.191.191z"/><path d="M26 20.265l.191.191z"/><path d="M26 20.265h.191v.191z"/><path d="M26.382 20.456h-.191z"/><path d="M26.382 20.456h-.191v-.191z"/><path d="M26 20.456h.191v-.191z"/><path d="M26 20.456h.191zm1.147 1.147v.191l.191.191z"/><path d="M27.147 21.603l.191.191-.191.191z"/><path d="M27.529 21.794h-.382v.191z"/><path d="M27.529 21.794l-.191.191-.191-.191z"/><path d="M26.955 21.794l.191.191.191-.191z"/><path d="M26.955 21.794h.191v.191z"/><path d="M27.338 22.176v-.382l-.191.191z"/><path d="M27.338 22.176l-.191-.191v-.191z"/><path d="M26.955 22.176l.382-.191-.191-.191z"/><path d="M26.955 22.176l.191-.382.191.191zm0 .383l-.191.191.191.191z"/><path d="M26.955 22.559v.382z"/><path d="M27.338 22.75h-.382v.191z"/><path d="M27.338 22.75l-.382.191v-.191z"/><path d="M26.573 22.75l.382.191v-.191z"/><path d="M26.573 22.75h.382v.191z"/><path d="M27.147 23.132l-.191-.382z"/><path d="M27.147 23.132l-.191-.191v-.191z"/><path d="M26.764 23.132l.191-.191v-.191z"/><path d="M26.764 23.132v-.382h.191zm8.221-7.647l-.191.382h.191z"/><path d="M34.985 15.485l.191.382h-.191z"/><path d="M35.367 15.676h-.382v.191z"/><path d="M35.367 15.676l-.382.191v-.191z"/><path d="M34.603 15.676l.382.191v-.191z"/><path d="M34.603 15.676h.382v.191z"/><path d="M35.176 16.059v-.382l-.191.191z"/><path d="M35.176 16.059l-.191-.191v-.191z"/><path d="M34.794 16.059l.191-.191v-.191z"/><path d="M34.794 16.059v-.382l.191.191zm3.823 5.544l-.191.382h.191z"/><path d="M38.617 21.603l.191.382h-.191z"/><path d="M39 21.794h-.382v.191z"/><path d="M39 21.794l-.382.382v-.191z"/><path d="M38.235 21.794l.382.382v-.191z"/><path d="M38.235 21.794h.382v.191z"/><path d="M38.808 22.368v-.382h-.191z"/><path d="M38.808 22.368l-.191-.191v-.191z"/><path d="M38.426 22.368l.382-.191-.191-.191z"/><path d="M38.426 22.368l.191-.382h.191zm1.529-.574l-.191.191.191.191z"/><path d="M39.955 21.794v.382z"/><path d="M40.147 21.985h-.191v.191z"/><path d="M40.147 21.985l-.191.191v-.191z"/><path d="M39.764 21.985l.191.191v-.191z"/><path d="M39.764 21.985h.191v.191z"/><path d="M40.147 22.368l-.191-.382v.191z"/><path d="M40.147 22.368l-.191-.191v-.191z"/><path d="M39.764 22.368l.191-.191v-.191z"/><path d="M39.764 22.368l.191-.382v.191zm-.764.191v.382z"/><path d="M39 22.559l.191.191-.191.191z"/><path d="M39.382 22.75H39v.191z"/><path d="M39.382 22.75l-.382.191v-.191z"/><path d="M38.617 22.75l.382.191v-.191z"/><path d="M38.617 22.75H39v.191z"/><path d="M39.191 23.132v-.382H39z"/><path d="M39.191 23.132L39 22.941v-.191z"/><path d="M38.808 23.132l.191-.191v-.191z"/><path d="M38.808 23.132L39 22.75zm-2.103 1.339v.382h.191z"/><path d="M36.705 24.471l.191.382h-.191z"/><path d="M37.088 24.662h-.382v.191z"/><path d="M37.088 24.662l-.191.191-.191-.191z"/><path d="M36.514 24.662l.191.191.191-.191z"/><path d="M36.514 24.662h.191v.191z"/><path d="M36.897 25.044v-.382l-.191.191z"/><path d="M36.897 25.044l-.191-.191v-.191z"/><path d="M36.514 25.044l.382-.191-.191-.191z"/><path d="M36.514 25.044l.191-.382.191.191zm.191.382v.382z"/><path d="M36.705 25.426l.191.191-.191.191z"/><path d="M37.088 25.618h-.382v.191z"/><path d="M37.088 25.618l-.382.191v-.191z"/><path d="M36.514 25.618l.191.191v-.191z"/><path d="M36.514 25.618h.191v.191z"/><path d="M36.897 26v-.382l-.191.191z"/><path d="M36.897 26l-.191-.191v-.191z"/><path d="M36.514 26l.382-.191-.191-.191z"/><path d="M36.514 26l.191-.382.191.191zm1.147-2.294v.382z"/><path d="M37.661 23.706l.191.382h-.191z"/><path d="M38.044 23.897h-.382v.191z"/><path d="M38.044 23.897l-.382.191z"/><path d="M37.47 23.897l.191.191z"/><path d="M37.47 23.897h.191v.191z"/><path d="M37.853 24.279v-.191h-.191z"/><path d="M37.853 24.279l-.191-.191z"/><path d="M37.47 24.279l.382-.191h-.191z"/><path d="M37.47 24.279l.191-.191zm.956-.956v.191z"/><path d="M38.426 23.323l.191.191h-.191z"/><path d="M38.808 23.515h-.382v.191z"/><path d="M38.808 23.515l-.382.191v-.191z"/><path d="M38.044 23.515l.382.191v-.191z"/><path d="M38.044 23.515h.382v.191z"/><path d="M38.617 23.897v-.382h-.191z"/><path d="M38.617 23.897l-.191-.191v-.191z"/><path d="M38.235 23.897l.382-.191-.191-.191z"/><path d="M38.235 23.897l.191-.382zm-1.53-.382v.382z"/><path d="M36.705 23.515l.191.382h-.191z"/><path d="M36.897 23.706h-.191v.191z"/><path d="M36.897 23.706l-.191.191z"/><path d="M36.514 23.706l.191.191z"/><path d="M36.514 23.706h.191v.191z"/><path d="M36.897 24.088v-.191h-.191z"/><path d="M36.897 24.088l-.191-.191z"/><path d="M36.514 24.088l.191-.191z"/><path d="M36.514 24.088l.191-.191zm-8.029-5.353v.382z"/><path d="M28.485 18.735l.191.382h-.191z"/><path d="M28.867 18.926h-.382v.191z"/><path d="M28.867 18.926l-.382.191z"/><path d="M28.294 18.926l.191.191z"/><path d="M28.294 18.926h.191v.191z"/><path d="M28.676 19.309v-.191h-.191z"/><path d="M28.676 19.309l-.191-.191z"/><path d="M28.294 19.309l.382-.191h-.191z"/><path d="M28.294 19.309l.191-.191zm6.309-1.338v.382z"/><path d="M34.603 17.971l.191.191-.191.191z"/><path d="M34.794 18.162h-.191v.191z"/><path d="M34.794 18.162l-.191.191v-.191z"/><path d="M34.411 18.162l.191.191v-.191z"/><path d="M34.411 18.162h.191v.191z"/><path d="M34.794 18.544v-.382h-.191z"/><path d="M34.794 18.544l-.191-.191v-.191z"/><path d="M34.411 18.544l.191-.191v-.191z"/><path d="M34.411 18.544l.191-.382zm-2.294 4.015l-.191.382h.191z"/><path d="M32.117 22.559v.382h-.191z"/><path d="M32.5 22.75h-.382v.191z"/><path d="M32.5 22.75l-.382.191z"/><path d="M31.735 22.75l.382.191z"/><path d="M31.735 22.75h.382v.191z"/><path d="M32.308 23.323l-.191-.382h-.191z"/><path d="M32.308 23.323l-.382-.382.191-.191z"/><path d="M31.926 23.323l.191-.382v-.191z"/><path d="M31.926 23.323v-.382h.191zm1.147-2.676v.382h.191z"/><path d="M33.073 20.647l.191.382h-.191z"/><path d="M33.455 21.029h-.382z"/><path d="M33.455 21.029l-.191.191-.191-.191z"/><path d="M32.882 21.029l.191.191.191-.191z"/><path d="M32.882 21.029h.382z"/><path d="M33.455 21.412l-.191-.382h-.191z"/><path d="M33.455 21.412l-.382-.191.191-.191z"/><path d="M32.882 21.412l.382-.191-.191-.191z"/><path d="M32.882 21.412l.191-.382h.191zm-.765-1.53l-.191.382h.191z"/><path d="M32.117 19.882v.382z"/><path d="M32.308 20.073h-.191v.191z"/><path d="M32.308 20.073l-.191.191z"/><path d="M31.735 20.073l.382.191z"/><path d="M31.735 20.073h.382v.191z"/><path d="M32.308 20.456l-.191-.382-.191.191z"/><path d="M32.308 20.456l-.382-.191.191-.191z"/><path d="M31.926 20.456l.191-.191v-.191z"/><path d="M31.926 20.456v-.382l.191.191zm-.765.382l-.191.191h.191z"/><path d="M31.161 20.838v.191z"/><path d="M31.353 21.029h-.191z"/><path d="M31.353 21.029l-.191.191v-.191z"/><path d="M30.97 21.029l.191.191v-.191z"/><path d="M30.97 21.029h.191z"/><path d="M31.353 21.221l-.191-.191z"/><path d="M31.353 21.221l-.191-.191z"/><path d="M30.97 21.221l.191-.191z"/><path d="M30.97 21.221l.191-.191zm.574.382h0l.191.191z"/><path d="M31.544 21.603h.191l-.191.191z"/><path d="M31.735 21.603h-.191v.191z"/><path d="M31.735 21.603v.191l-.191-.191z"/><path d="M31.353 21.603l.191.191.191-.191z"/><path d="M31.353 21.603h.191v.191z"/><path d="M31.735 21.794v-.191l-.191.191z"/><path d="M31.735 21.794h-.191v-.191z"/><path d="M31.544 21.794h.191l-.191-.191z"/><path d="M31.544 21.794v-.191l.191.191zm3.25 2.868v.382h.191z"/><path d="M34.794 24.662l.191.382h-.191z"/><path d="M35.176 24.853h-.382v.191z"/><path d="M35.176 24.853l-.191.191h-.191z"/><path d="M34.603 24.853l.191.191h.191z"/><path d="M34.603 24.853h.382v.191z"/><path d="M34.985 25.235v-.191h-.191z"/><path d="M34.985 25.235l-.191-.191h.191z"/><path d="M34.603 25.235l.382-.191h-.191z"/><path d="M34.603 25.235l.191-.191h.191zm1.147-1.338l-.191.191.191.191z"/><path d="M35.75 23.897v.191l-.191.191z"/><path d="M35.941 24.088h-.191v.191z"/><path d="M35.941 24.088l-.191.191-.191-.191z"/><path d="M35.367 24.088l.191.191.191-.191z"/><path d="M35.367 24.088h.382v.191z"/><path d="M35.75 24.471v-.382l-.191.191z"/><path d="M35.75 24.471l-.191-.191.191-.191z"/><path d="M35.558 24.471l.191-.191v-.191z"/><path d="M35.558 24.471v-.382l.191.191zm-1.338-.765l-.191.191h.191z"/><path d="M34.22 23.706v.191h-.191z"/><path d="M34.411 23.897h-.191v.191z"/><path d="M34.411 23.897l-.191.191-.191-.191z"/><path d="M33.838 23.897l.191.191.191-.191z"/><path d="M33.838 23.897h.382v.191z"/><path d="M34.22 24.088v-.191h-.191z"/><path d="M34.22 24.088h-.191l.191-.191z"/><path d="M34.029 24.088h.191l-.191-.191z"/><path d="M34.029 24.088v-.191h.191zm-5.735-.765v.382h.191z"/><path d="M28.294 23.323l.191.382h-.191z"/><path d="M28.676 23.515h-.382v.191z"/><path d="M28.676 23.515l-.382.191z"/><path d="M27.911 23.515l.382.191z"/><path d="M27.911 23.515h.382v.191z"/><path d="M28.485 24.088v-.382h-.191z"/><path d="M28.485 24.088l-.191-.382v-.191z"/><path d="M28.103 24.088l.382-.382-.191-.191z"/><path d="M28.103 24.088l.191-.382h.191zm4.014 1.721V26z"/><path d="M32.117 25.809V26z"/><path d="M31.926 26h.191z"/><path d="M31.926 26h.191z"/><path d="M32.117 26.191V26z"/><path d="M32.117 26.191V26z"/><path d="M31.926 26.191l.191-.191z"/><path d="M31.926 26.191l.191-.191z"/></g></g></svg>