<svg xmlns="http://www.w3.org/2000/svg" width="65" height="38"><path fill="#cb1d23" d="M0 0h64.235v37.471H0z"/><path d="M6.118 13.574L7.456 9.75l-3.25-2.294h4.015l1.147-3.632 1.147 3.632h4.015L11.28 9.75l1.338 3.824-3.25-2.294zm11.088 1.911l1.147.574.956-1.147v1.529l1.338.574-1.529.382v1.338l-.765-1.147-1.338.191.765-.956zm7.073-7.073l-1.338-.191-.765 1.147-.191-1.338-1.338-.382 1.147-.574-.191-1.338 1.147.956 1.147-.574-.574 1.147zm-3.058 6.309l.574-1.338-1.147-.765h1.338l.382-1.338.574 1.338h1.338l-1.147.765.382 1.338-1.147-.765zM17.206 2.294l1.338.765.956-1.147-.191 1.529 1.338.574-1.529.191-.191 1.529-.574-1.338-1.529.191.956-.956z" fill="#f7de29"/></svg>