<svg xmlns="http://www.w3.org/2000/svg" width="65" height="38"><path d="M0 0h15.103v37.471H0zm49.132 0h15.103v37.471H49.132z" fill="#ea0020"/><path fill="#fff" d="M15.103 0h34.029v37.471H15.103z"/><path d="M32.118 4.779l-2.294 4.397c-.191.382-.765.382-1.147.191l-1.529-.956 1.147 6.691c.191 1.147-.574 1.147-.956.765l-2.868-3.25-.382 1.721c0 .191-.191.382-.574.382l-3.632-.765.956 3.632c.191.765.382 1.147-.191 1.338l-1.338.574 6.118 5.162c.191.191.382.574.191.956l-.574 1.912 6.118-.765c.191 0 .574.191.574.382l-.191 6.691h.956l-.191-7.074c0-.191.191-.382.382-.382l6.118.765-.574-1.912c0-.382 0-.574.191-.956l6.118-5.162-1.338-.574c-.574-.191-.382-.574-.191-1.338l.956-3.632-3.632.765c-.382 0-.574-.191-.574-.382l-.382-1.721-2.868 3.25c-.382.574-1.147.574-.956-.765l1.147-6.691-1.529.956c-.191.574-.574.574-.956.191l-2.103-4.397z" fill="#ea0020"/></svg>