<svg xmlns="http://www.w3.org/2000/svg" width="65" height="38"><path fill="#cb001c" d="M0 34.924h64.853v2.901H0z"/><path fill="#fff" d="M0 32.023h64.853v2.901H0z"/><path fill="#cb001c" d="M0 29.085h64.853v2.901H0z"/><path fill="#fff" d="M0 26.184h64.853v2.901H0z"/><path fill="#cb001c" d="M0 23.282h64.853v2.901H0z"/><path fill="#fff" d="M0 20.381h64.853v2.901H0z"/><path fill="#cb001c" d="M0 17.444h64.853v2.901H0z"/><path fill="#fff" d="M0 14.542h64.853v2.901H0z"/><path fill="#cb001c" d="M0 11.641h64.853v2.901H0z"/><path fill="#fff" d="M0 8.74h64.853v2.901H0z"/><path fill="#cb001c" d="M0 5.802h64.853v2.901H0z"/><path fill="#fff" d="M0 2.901h64.853v2.901H0z"/><path fill="#cb001c" d="M0 0h64.853v2.901H0z"/><path fill="#2a3560" d="M0 0h29.599v20.381H0z"/><g fill="#fff"><use xlink:href="#B"/><use xlink:href="#B" y="3.415"/><use xlink:href="#B" y="6.794"/><use xlink:href="#B" y="10.209"/><use xlink:href="#B" y="13.588"/><path d="M5.031 4.04l.257.771h.808l-.661.477.257.771-.661-.477-.624.477.22-.771-.661-.477h.845zm0 3.378l.257.771h.808l-.661.477.257.771-.661-.441-.624.441.22-.771-.661-.477h.845zm0 3.415l.257.771h.808l-.661.477.257.771-.661-.477-.624.477.22-.771-.661-.477h.845zm0 3.416l.257.771h.808l-.661.477.257.734-.661-.477-.624.477.22-.734-.661-.477h.845z"/><use xlink:href="#C"/><use xlink:href="#C" y="3.415"/><use xlink:href="#C" y="6.794"/><use xlink:href="#C" y="10.209"/><use xlink:href="#C" y="13.588"/><use xlink:href="#B" x="7.124" y="1.8"/><path d="M9.805 7.418l.257.771h.808l-.661.477.257.771-.661-.441-.661.441.257-.771-.661-.477h.808z"/><use xlink:href="#B" x="7.124" y="8.593"/><path d="M9.805 14.249l.257.771h.808l-.661.477.257.734-.661-.477-.661.477.257-.734-.661-.477h.808z"/><use xlink:href="#D"/><use xlink:href="#D" y="3.415"/><use xlink:href="#D" y="6.794"/><use xlink:href="#D" y="10.209"/><use xlink:href="#D" y="13.588"/><use xlink:href="#B" x="11.898" y="1.8"/><path d="M14.579 7.418l.257.771h.808l-.661.477.257.771-.661-.441-.661.441.257-.771-.661-.477h.808z"/><use xlink:href="#B" x="11.898" y="8.593"/><path d="M14.579 14.249l.257.771h.808l-.661.477.257.734-.661-.477-.661.477.257-.734-.661-.477h.808z"/><use xlink:href="#B" x="14.285"/><use xlink:href="#B" x="14.285" y="3.415"/><use xlink:href="#B" x="14.285" y="6.794"/><use xlink:href="#B" x="14.285" y="10.209"/><use xlink:href="#B" x="14.285" y="13.588"/><path d="M19.353 4.04l.22.771h.845l-.661.477.22.771-.624-.477-.661.477.257-.771-.661-.477h.808zm0 3.378l.22.771h.845l-.661.477.22.771-.624-.441-.661.441.257-.771-.661-.477h.808zm0 3.415l.22.771h.845l-.661.477.22.771-.624-.477-.661.477.257-.771-.661-.477h.808zm0 3.416l.22.771h.845l-.661.477.22.734-.624-.477-.661.477.257-.734-.661-.477h.808z"/><use xlink:href="#B" x="19.059"/><use xlink:href="#B" x="19.059" y="3.415"/><use xlink:href="#B" x="19.059" y="6.794"/><use xlink:href="#B" x="19.059" y="10.209"/><use xlink:href="#B" x="19.059" y="13.588"/><path d="M24.09 4.04l.257.771h.808l-.624.477.22.771-.661-.477-.661.477.257-.771-.624-.477h.808zm0 3.378l.257.771h.808l-.624.477.22.771-.661-.441-.661.441.257-.771-.624-.477h.808zm0 3.415l.257.771h.808l-.624.477.22.771-.661-.477-.661.477.257-.771-.624-.477h.808zm0 3.416l.257.771h.808l-.624.477.22.734-.661-.477-.661.477.257-.734-.624-.477h.808z"/><use xlink:href="#E"/><use xlink:href="#E" y="3.415"/><use xlink:href="#E" y="6.794"/><use xlink:href="#E" y="10.209"/><use xlink:href="#E" y="13.588"/></g><defs ><path id="B" d="M2.681 2.24l.257.771h.808l-.661.477.257.771-.661-.477-.661.477.257-.771-.661-.477h.808z"/><path id="C" d="M7.418 2.24l.257.771h.808l-.624.477.257.771-.698-.477-.624.477.257-.771-.661-.477h.808z"/><path id="D" d="M12.192 2.24l.257.771h.808l-.661.477.257.771-.661-.477-.624.477.22-.771-.624-.477h.808z"/><path id="E" d="M26.514 2.24l.257.771h.771l-.624.477.257.771-.661-.477-.661.477.257-.771-.661-.477h.808z"/></defs></svg>