<svg xmlns="http://www.w3.org/2000/svg" width="65" height="38"><path fill="#180087" d="M0 0h64.235v37.471H0z"/><g fill="#fff"><path d="M16.824 22.941L17.779 26l3.059-1.147-1.721 2.676 2.676 1.529-3.059.382.382 3.059-2.294-2.294-2.103 2.294.382-3.059-3.25-.382 2.868-1.529L13 24.853 15.868 26zm33.838 5.544l.382 1.338 1.529-.574-.956 1.338 1.338.765-1.529.191.191 1.529-.956-1.147-1.147 1.147.382-1.529-1.529-.191 1.147-.765-.765-1.338 1.338.574zM42.25 15.103l.382 1.338 1.529-.574-.956 1.338 1.338.765-1.529.191.191 1.529-.956-1.147-1.147 1.147.191-1.529-1.529-.191 1.338-.765-.765-1.338 1.338.574zm8.412-9.177l.382 1.338 1.529-.382-.956 1.147 1.338.765-1.529.191.191 1.529-.956-1.147-1.147 1.147.382-1.529-1.529-.191 1.147-.765-.765-1.147 1.338.382zm7.456 6.883l.574 1.338 1.338-.382-.765 1.147 1.147.765-1.529.191.382 1.529-1.147-1.147-.956 1.147.191-1.529-1.529-.191 1.338-.765-.956-1.147 1.529.382zM54.103 19.5l.191.956h1.147l-.765.765.191.956-.765-.574-.956.574.191-.956-.574-.765h.956zM14.147 0v5.544H0v5.735h14.147v5.544h5.544v-5.544h14.147V5.544H19.691V0z"/><path d="M0 0v1.912l30.015 14.912h3.824v-1.912L3.824 0z"/><path d="M30.015 0L0 14.912v1.912h3.824L33.838 1.912V0z"/></g><path d="M15.103 0v6.691H0v3.441h15.103v6.691h3.441v-6.691h15.294V6.691H18.544V0zM0 0v1.338l8.794 4.397h2.485L0 0zm31.162 0l-11.28 5.544h2.485L33.838 0h-2.676zM11.279 11.279L0 16.824h2.485l11.279-5.544h-2.485zm11.279 0l11.279 5.544v-1.147l-8.794-4.397h-2.485z" fill="#ea0020"/></svg>