<svg xmlns="http://www.w3.org/2000/svg" xmlns:xlink="http://www.w3.org/1999/xlink" width="105" height="75"><g fill="none" fill-rule="evenodd"><g stroke="#19232f" stroke-width="3"><path d="M4.5 37.5h27"/><circle cx="5.5" cy="37.5" r="4" fill="#1c2837"/></g><circle stroke="#fff" stroke-width="3" fill="#1c2837" cx="67.5" cy="37.5" r="35.5"/><g fill-rule="nonzero"><path d="M67.5 61h-1v-8.5h1V61zm-15-23.5H44v1h8.5v-1zm4.69 11.017l-.707-.707-6.1 6.1.708.708 6.1-6.1zm19.073 10.54l-3.3-7.967-.925.382 3.3 7.968.925-.383zM53.91 43.963l-.382-.925-7.968 3.3.383.925 7.967-3.3zm8.05 7.51l-.925-.382-3.3 7.967.925.383 3.3-7.968zm-8.05-19.435l-7.967-3.3-.383.925 7.968 3.3.382-.925zM88.44 46.34l-7.968-3.3-.382.925 7.968 3.3.382-.925zM53 41.295l-.195-.98-8.46 1.683.195.98L53 41.295zm2.325 5.108l-.555-.833-7.172 4.792.555.833 7.172-4.792zM53 34.705l-8.46-1.682-.195.98 8.46 1.683.195-.98z" fill="#fff"/><g fill="#0095db"><use xlink:href="#B"/><path d="M78.388 18.018c-1.998-1.14-3.52-1.732-5.56-2.265s-3.847-.762-5.957-.75a21.94 21.94 0 0 0-5.948.818 21.95 21.95 0 0 0-5.535 2.33 21.93 21.93 0 0 0-4.742 3.683c-1.483 1.5-2.49 2.785-3.628 4.785l7.238 4.125c1.27-2.24 3.115-4.105 5.337-5.4a14.44 14.44 0 0 1 7.282-1.962h.043a14.42 14.42 0 0 1 7.282 1.987l4.188-7.35z"/></g><g fill="#fbba00"><path d="M56.15 28.672c.015-.023.038-.038.054-.061-.015.023-.038.038-.054.061zm-.602.745c.015-.023.031-.046.054-.061-.023.015-.038.038-.054.061zm-.545.777c.008-.015.023-.031.031-.046-.008.015-.023.031-.031.046zm1.802-2.233l.046-.046-.046.046z"/><use xlink:href="#B"/><path d="M74.2 25.363l4.188-7.347a20.94 20.94 0 0 0-5.56-2.265c-2.04-.535-3.847-.762-5.957-.75l.047 8.375a14.42 14.42 0 0 1 7.282 1.988z" opacity=".7"/><path d="M66.875 23.375h.043L66.87 15a21.94 21.94 0 0 0-5.948.818 21.95 21.95 0 0 0-5.535 2.33l4.205 7.19c2.142-1.245 4.627-1.962 7.282-1.962z" opacity=".4"/></g></g></g><defs ><path id="B" d="M86.76 26.233a21.85 21.85 0 0 0-3.59-4.59c-1.5-1.482-2.785-2.49-4.785-3.627L74.2 25.363a14.47 14.47 0 0 1 1.565 1.063 14.82 14.82 0 0 1 2.06 1.952 14.56 14.56 0 0 1 1.168 1.545l-3.368 1.6 10.47 3.727 3.727-10.47-3.062 1.453z"/></defs></svg>