<svg xmlns="http://www.w3.org/2000/svg" width="57" height="66" viewBox="0 0 57 66">
  <g fill="none" fill-rule="evenodd" transform="translate(.009)">
    <path fill="#FFFFFF" fill-rule="nonzero" d="M46.4077381,56.1304348 L11.7688492,56.1304348 L11.7688492,8.65217391 L14.7280853,8.65217391 L14.7280853,7.43478261 L10.5744048,7.43478261 L10.5744048,9.86956522 L6.99107143,9.86956522 L6.99107143,61 L45.2132937,61 L45.2132937,57.3478261 L47.6021825,57.3478261 L47.6021825,51.4769565 L46.4077381,51.4769565 L46.4077381,56.1304348 Z M44.0188492,59.7826087 L8.18551587,59.7826087 L8.18551587,11.0869565 L10.5744048,11.0869565 L10.5744048,57.3478261 L44.0188492,57.3478261 L44.0188492,59.7826087 Z M38.046627,5 L38.046627,17.173913 L49.9910714,17.173913 L38.046627,5 Z M39.2410714,7.94 L47.1064881,15.9565217 L39.2410714,15.9565217 L39.2410714,7.94 Z"/>
    <g fill-rule="nonzero" transform="translate(13.991 5)">
      <polygon fill="#008FD3" points="24 12.25 24 0 0 0 0 12.25 0 24.5 0 36.75 0 49 36 49 36 36.75 36 24.5 36 12.25"/>
      <g fill="#F0AB00">
        <rect width="24" height="12.25"/>
        <rect width="36" height="12.25" y="12.25" opacity=".7"/>
        <rect width="36" height="12.25" y="24.5" opacity=".4"/>
      </g>
    </g>
    <rect width="56" height="66"/>
  </g>
</svg>
