<svg xmlns="http://www.w3.org/2000/svg" width="43" height="66" viewBox="0 0 43 66">
  <g fill="none" fill-rule="evenodd">
    <g fill-rule="nonzero" transform="translate(4 5)">
      <path fill="#FFFFFF" d="M32.7186735,8.14285714 L34,8.14285714 L34,57 L32.8916525,57 L29.899755,54.0531522 L26.9366874,57 L26.4049369,57 L26.2127379,56.8120389 L23.4418692,54.056338 L20.4820049,57 L19.9502544,57 L19.7516488,56.8120389 L16.9807801,54.056338 L14.0209158,57 L13.4891653,57 L13.2905596,56.8120389 L10.519691,54.056338 L7.55982664,57 L7.02807613,57 L6.83587714,56.8120389 L4.06500848,54.056338 L1.10194083,57 L0,57 L0,8.14285714 L1.28132655,8.14285714 L1.28132655,55.0248156 L4.07141511,52.25 L7.2971547,55.4612676 L10.5260976,52.25 L13.7550405,55.4612676 L16.9839834,52.25 L20.2129263,55.4612676 L23.4418692,52.25 L26.6676088,55.4580818 L29.8933484,52.25 L32.7186735,55.0311871 L32.7186735,8.14285714 L32.7186735,8.14285714 Z M26.8341813,38.7964453 L7.16902205,38.7964453 L7.16902205,40.0707579 L26.8341813,40.0707579 L26.8341813,38.7964453 Z M26.8341813,31.1441985 L7.16902205,31.1441985 L7.16902205,32.4185111 L26.8341813,32.4185111 L26.8341813,31.1441985 Z M26.8341813,23.4887659 L7.16902205,23.4887659 L7.16902205,24.7630785 L26.8341813,24.7630785 L26.8341813,23.4887659 Z M26.8341813,15.8365191 L7.16902205,15.8365191 L7.16902205,17.1108317 L26.8341813,17.1108317 L26.8341813,15.8365191 Z"/>
      <polygon fill="#0095DB" points="34 0 34 0 0 0 0 0 0 7.238 0 7.238 1.281 7.238 32.719 7.238 34 7.238 34 7.238"/>
      <rect width="8.053" height="7.238" x="25.053" fill="#F0AB00"/>
      <rect width="8.053" height="7.238" x="17" fill="#F0AB00" opacity=".7"/>
      <rect width="8.053" height="7.238" x="8.955" fill="#F0AB00" opacity=".4"/>
    </g>
    <rect width="43" height="66"/>
  </g>
</svg>
