<svg xmlns="http://www.w3.org/2000/svg" width="105" height="75"  fill="none" fill-rule="evenodd"><g stroke="#19232f" stroke-width="3"><path d="M4.5 39.5h27"/><circle cx="5.5" cy="39.5" r="4" fill="#1c2837"/></g><circle stroke="#fff" stroke-width="3" fill="#1c2837" cx="67.5" cy="37.5" r="35.5"/><g fill-rule="nonzero"><path d="M67.167 51.52a17.26 17.26 0 0 0 5.223-.813c2.648-.84 4.986-2.27 6.952-4.244a17.07 17.07 0 0 0 4.227-6.981c1.947-6.175.326-12.849-4.227-17.421s-11.204-6.201-17.351-4.247c-2.648.84-4.986 2.27-6.952 4.244s-3.393 4.324-4.229 6.981a17.26 17.26 0 0 0 4.227 17.424c3.279 3.292 7.646 5.058 12.13 5.058zm11.491-5.745c-1.857 1.865-4.065 3.212-6.561 4.006a19 19 0 0 1-.784.226c-.948-.403-1.139-.619-1.141-.619-.082-.129-.201-.381-.259-.563.082-.1.426-.43 1.62-.765 1.238-.347 1.432-1.226 1.548-1.751.036-.158.082-.376.138-.415.135-.097.31-.058.435-.007.297.121.641.002.798-.282l.065-.124c.109-.211.235-.461.549-.656.097.328.307.612.595.775a2.94 2.94 0 0 0 .687.267c.522.129 1.584-.061 2.126-1.569.302.556.472.935.508 1.129l-.324.347zM51.557 29.93c.476.76 1.144 1.758 1.594 2.144.135.114.382.245.624.359-.068.342.099.675.247.935-.155.039-.326.114-.457.291-.121.165-.162.374-.135.624-.123 0-.384-.036-.484-.168-.336-.444-.892-.347-1.299-.274-.479.085-.609.07-.677-.022.044-1.299.235-2.603.588-3.89zm4.749 1.637c.017.163.063.325.157.476.213.347.537.626.822.872.118.102.249.214.331.304-.089.07-.266.165-.503.216-.222.049-.372.032-.433.01-.005-.437-.317-.877-.781-1.122-.157-.272-.375-.439-.617-.527.075-.158.206-.279.372-.338a.64.64 0 0 1 .532.046l.118.063zm2.595.828c.815.709 1.294.522 1.509.347.484-.396.426-1.187.377-1.51-.056-.381.022-.549.056-.58.012-.012.06-.015.128 0 .058.012.116.029.177.044.295.078.696.182 1.066-.053.247-.158.414-.43.508-.83.435-.328 1.134-.163 1.63.388.455.507 1.088 1.061 1.978.843a9.68 9.68 0 0 0 .501-.143c.667-.204 1.1-.313 1.548 0l.027.019c.109.08.314.228.583.175.092-.017.22-.01.355 0 .418.029 1.122.08 1.543-.787a1.56 1.56 0 0 1 .082-.151c.019.039.041.09.065.151.242.636.559 1.032.941 1.173.012.005.022.007.031.012a1.44 1.44 0 0 1-.053.107h0c-.007.015-.017.029-.027.046-.041.066-.118.192-.15.352-.109.083-.208.141-.271.177h-.576l-.834.84.012.017c-.239-.109-.597-.197-.675-.216l-.225-.053-1.141.891.239.374c.222.347.612.981.706 1.199.191.439.169.813-.063 1.08-.22.255-.609.384-.904.301-.592-.165-1.122-.041-1.381.325-.293.413-.191.981.3 1.69.114.163.123.245.131.248-.048.051-.237.092-.317.087-.048-.044-.135-.153-.191-.221-.138-.175-.283-.352-.469-.456-.172-.092-.498-.148-.74-.177l-.406-.049c-.017-.401-.039-.704-.135-.937-.111-.267-.339-.459-.626-.529a1.01 1.01 0 0 0-.858.187c-.684.452-1.526 1.051-1.702 1.377-.155.282-.164.663-.174 1.032-.005.182-.012.488-.046.563-.046.075-.247.27-.469.459-.247-.583-.561-1.391-.595-1.629-.015-.1-.012-.287-.01-.469.005-.437.012-.886-.148-1.207-.121-.243-.293-.52-.655-.741l-.617-.367c-1.006-.607-1.664-.741-2.046-.741a1.08 1.08 0 0 0-.389.061l-.324.129.019.35c.058 1.11.518 1.564.609 1.644l.208.18.259-.08c.065-.019.152-.039.201-.002.058.044.104.163.104.265-.005.425-1.074.68-1.954.728-.682-1.437-.996-2.836-1.209-4.035.201-.029.563-.109.696-.503.099-.301-.056-.573-.206-.835-.039-.068-.099-.172-.138-.257.239-.053.305.109.334.182l.08.197.196.075c.222.085.339.257.343.304a.93.93 0 0 0 .648.908c.629.221 1.654-.07 2.068-.59.242-.304.271-.67.077-.979-.133-.216-.358-.408-.592-.612s-.496-.427-.629-.646c-.019-.032-.022-.08-.022-.134l.172-.316-.085-.046c.007-.017.012-.036.019-.053.568.119.972.09 1.204-.085a.28.28 0 0 0 .041-.034 1.17 1.17 0 0 0 .056.029c.051.027.063.044.065.044.005.015.01.087-.044.233l-.017.044c-.109.274-.283.741.22 1.178zm10.851 1.547c-.005.019-.012.036-.017.053-.034.102-.073.219-.082.342 0 .012-.002.027-.002.039a24.01 24.01 0 0 0-.295-.493l.075-.058c.118.034.237.073.29.102.012.002.022.01.031.015zm-18.775.908c.31.041.619-.012.844-.053.126-.022.307-.053.394-.051.237.284.563.41.825.466l.073.469c-.3.624-1.207 2.766-.01 3.703.239.189.264.437.281.826.017.371.041.881.508 1.168.208.129.641.257.96.342.005.16-.019.325-.089.405-.314.357-.696.821-.967 1.318a16.24 16.24 0 0 1-2.817-8.593zm4.508 7.923c.503-.571.293-1.462.268-1.561-.046-.175-.181-.311-.358-.352-.43-.102-.9-.245-.996-.304-.034-.049-.044-.253-.048-.388-.019-.427-.051-1.073-.653-1.547-.459-.359-.138-1.525.177-2.27.232.857.549 1.763 1.018 2.688l.133.265h.295c.377 0 3.197-.053 3.219-1.692.005-.313-.121-.779-.491-1.056a1.09 1.09 0 0 0-.704-.211 1.66 1.66 0 0 1-.097-.26c.261.068.653.221 1.192.546l.288.17.326.194c.131.08.203.163.293.345.053.114.048.534.046.76s-.005.442.019.617c.065.469.583 1.695.718 2.006a.8.8 0 0 0 .547.534c.266.075.556.007.759-.18.266-.214.716-.602.856-.881.135-.272.145-.617.152-.983.005-.18.012-.476.048-.578.14-.168.834-.675 1.41-1.056l.046-.034c.039.131.051.432.058.602.007.163.012.313.029.435.019.143.022.313.024.49.002.165.005.338.022.503.063.636.421 1.071.917 1.673l.121.148c.102.121.397.408.605.512a1.51 1.51 0 0 0 .617.143.95.95 0 0 0 .355-.066c.206-.087.351-.25.411-.459.118-.415-.152-.845-.237-.966-.123-.175-.341-.391-.571-.622-.135-.136-.276-.274-.346-.359a.94.94 0 0 1-.027-.117c.14.17.293.328.493.403.365.138 1.088.053 1.439-.401.172-.221.384-.694-.104-1.399-.21-.304-.268-.476-.283-.556.063-.007.169-.005.31.034.653.182 1.432-.063 1.896-.6.426-.493.537-1.151.317-1.843a1.16 1.16 0 0 0 .472.202c.433.087.907-.318 1.016-.634.005-.015.012-.029.019-.049.087-.209.288-.699-.015-1.25l-.133-.231h.358l.089-.039c.041-.017.421-.182.798-.541l.266-.253-.099-.192c.012-.022.027-.044.036-.066.145-.272.276-.597.15-.93s-.428-.476-.646-.556c-.044-.017-.206-.168-.372-.609-.218-.573-.53-.872-.921-.889s-.73.255-.999.811c-.131.267-.208.272-.605.243-.14-.01-.297-.022-.459-.007l-.022-.015c-.856-.6-1.702-.34-2.382-.134-.15.046-.3.092-.45.129-.264.066-.542-.005-1.03-.549-.834-.93-2.099-1.148-2.958-.493-.087.063-.268.194-.312.439-.039.209-.085.294-.104.321-.063.007-.213-.036-.305-.061-.073-.019-.145-.039-.22-.053-.387-.083-.738.002-.991.243-.225.211-.467.631-.351 1.43.034.226.022.398.002.503-.075-.041-.174-.109-.29-.209.012-.036.029-.08.041-.117l.017-.046c.343-.935-.225-1.345-.486-1.479-.123-.063-.23-.18-.346-.376l-.856-1.462-.051 1.884a4.32 4.32 0 0 1-.607-.121l-.341-.097-.193.296c-.027.041-.126.202-.222.42a1.61 1.61 0 0 0-1.156-.034 1.63 1.63 0 0 0-.962.908l-.068.16c-.256-.114-.469-.223-.53-.274-.462-.396-1.388-1.879-1.831-2.622a16.09 16.09 0 0 1 3.173-5.33c.559-.078 1.359-.027 2.014.015l.358.022c.208.012.609.209.709.34-.056.226-.302.634-.467.855-.092.124-.118.282-.075.43s.155.265.297.316l1.016.371 1.151.631.464-.852-1.183-.648c-.022-.012-.044-.022-.065-.029l-.481-.177c.14-.25.273-.546.31-.809.024-.17.002-.43-.22-.704-.326-.398-.979-.67-1.398-.694l-.353-.022-1.086-.053c1.775-1.671 3.845-2.897 6.171-3.635a16.69 16.69 0 0 1 4.931-.755 16.12 16.12 0 0 1 11.446 4.774c4.297 4.315 5.826 10.616 3.99 16.443a16.08 16.08 0 0 1-2.936 5.415c-.114-.255-.256-.527-.411-.811-.058-.107-.106-.192-.128-.243-.15-.338-.479-.532-.822-.503-.331.029-.6.257-.682.583-.271 1.071-.813 1.365-1.088 1.294a1.94 1.94 0 0 1-.44-.168c-.099-.058-.167-.206-.162-.352.015-.33-.121-.505-.237-.597-.148-.117-.343-.151-.532-.092-.902.272-1.282.826-1.475 1.18-.389-.083-.771-.012-1.076.209-.353.255-.44.648-.518.993-.106.486-.184.835-.866 1.027-2.251.634-2.421 1.435-2.322 1.855.07.299.261.709.404.932.085.134.239.272.459.418a16.12 16.12 0 0 1-14.096-4.553c-.452-.454-.873-.932-1.262-1.428.085-.311.346-.809 1.025-1.576zm26.417-23.283c-.189-.189-.496-.189-.684 0a.49.49 0 0 0 0 .687c5.257 5.279 7.127 12.985 4.88 20.112a19.72 19.72 0 0 1-4.88 8.059 19.61 19.61 0 0 1-8.026 4.9c-7.1 2.256-14.773.379-20.03-4.9-.189-.189-.496-.189-.684 0a.49.49 0 0 0 0 .687 20.69 20.69 0 0 0 14.229 6.111v3.118h-8.128V63h17.199v-4.737h-8.104v-3.118c1.942-.049 3.896-.367 5.811-.974 3.204-1.017 6.036-2.746 8.418-5.138s4.104-5.235 5.117-8.452c2.358-7.476.397-15.559-5.117-21.093zm-7.093 39.743v2.795H59.545v-2.795h15.264zm-12.36-15.906c.077 0 .157-.007.242-.019.348-.056.634-.233.827-.512.08-.117.14-.253.186-.401.133.153.295.274.406.357a6.29 6.29 0 0 1 .435.527c.07.104.148.233.235.376.44.731 1.103 1.836 2.138 1.891a1.16 1.16 0 0 0 .092.002c.37 0 .583-.134.704-.272.034.357.242.709.522.84.116.053.232.075.346.075.251 0 .493-.102.684-.185.063-.027.121-.053.172-.068l.297-.09 1.231-.386c.271-.095.996-.624 1.035-1.246.01-.17-.022-.59-.542-.852-.747-.376-1.973.282-2.636.709-.085.056-.346.172-.438.204-.179.034-.37.16-.503.35-.08-.51-.52-1-.585-1.071-.203-.219-.525-.505-.837-.779-.239-.211-.486-.432-.634-.583-.039-.039-.082-.085-.131-.136-.363-.386-.692-.714-1.023-.821-.276-.09-.665-.085-.926.107-.007-.041-.012-.085-.022-.126s-.015-.092-.022-.146c-.034-.265-.121-.971-.793-.971-.206 0-.631 0-.784.437-.005.01-.007.022-.01.032-.551.219-.875 1.277-.716 1.938.123.517.515.818 1.047.818zm6.892 1.564c.733-.471 1.33-.675 1.584-.675.027 0 .051.002.07.007-.085.119-.273.284-.353.325-.281.1-.803.257-1.185.371l-.3.09a1.97 1.97 0 0 0-.126.044 2.67 2.67 0 0 0 .31-.163zM65.82 43.5c.295.262.6.532.769.716h0c.075.08.169.214.239.335-.372-.121-.728-.605-1.008-1.051zm-3.308-2.047c.099-.036.181-.078.247-.129l.015.085c.087.425.029.709-.053.83-.029.044-.075.09-.181.107-.131.019-.172-.002-.172-.002-.007-.007-.041-.063-.044-.199-.007-.279.111-.585.189-.692zm9.409-1.229a1.01 1.01 0 0 0 .488-.126.93.93 0 0 0 .157-.114c-.094.26-.058.529.102.743.421.563.854.796 1.291.694l.155-.039c.189-.051.36-.092.401-.041s.073.112.109.187c.167.338.377.648 1.132.775.01.002.464.075.984.075.602 0 1.291-.097 1.494-.512.097-.199.089-.435-.019-.699-.218-.534-.943-1.34-1.514-1.544-.334-.119-.786-.117-1.226-.114-.213 0-.532.002-.648-.024-.554-.391-1.12-.265-1.427-.194a1.23 1.23 0 0 0-.537.274 1.85 1.85 0 0 0 .128-.886c-.056-.333-.421-.663-.735-.804-.365-.165-.747-.141-1.071.066-.285.182-.484.471-.542.792a1.13 1.13 0 0 0 .218.896c.29.386.68.597 1.059.597zm3.56.25c.324-.002.725-.002.9.058.239.085.665.532.858.835-.3.044-.817.058-1.325-.027-.326-.053-.346-.092-.423-.248-.048-.1-.116-.233-.232-.374-.094-.114-.196-.197-.302-.253.16.01.331.007.525.007zm-1.867-.243c.322-.073.496-.083.672.051.034.024.07.046.106.066-.203.01-.389.058-.527.095-.034.01-.068.019-.099.027-.027-.012-.104-.058-.23-.206.022-.012.048-.024.077-.032zm-1.908-1.474c.036-.024.065-.027.106-.017.087.019.179.095.227.148-.005.126-.053.318-.092.359-.053.029-.191-.046-.31-.204-.034-.046-.048-.092-.039-.138.007-.058.046-.112.106-.148zm-3.311 4.402c.206.068.568.165.946.165.346 0 .701-.083.953-.35.152-.16.953-1.175.844-1.794l-.036-.182c-.036-.175-.048-.25-.031-.304.099-.301.017-.629-.21-.813-.111-.092-.418-.274-.868-.012-.189.109-.36.284-.544.471-.203.206-.455.461-.641.515-.148.041-.312.061-.469.078-.343.039-.735.083-.948.42-.116.185-.123.427-.019.719.138.393.491.913 1.025 1.088zm.046-1.258c.189-.022.401-.046.626-.109h0c.426-.121.774-.471 1.052-.755.01.053.019.107.031.158.007.041.017.083.024.126-.034.192-.363.748-.588.983-.048.051-.375.1-.897-.07-.128-.041-.254-.187-.336-.325l.087-.007zm4.138-6.609c.063.017.123.024.184.024.295 0 .547-.185.723-.313l.109-.078c.128-.068.788-.253 1.037-.296.725-.126.846-1.088.89-1.45l.005-.039c.022-.165-.015-.313-.053-.459-.019-.075-.051-.202-.048-.233.162-.403.068-.813-.244-1.066a.88.88 0 0 0-1.035-.066c-.525.354-.646 1.025-.709 1.382-.01.051-.015.092-.022.119s-.015.053-.022.092c-.027.131-.058.277-.36.354-.232.058-.759.396-.943.833-.109.255-.104.539.012.779.099.209.276.362.476.415zm1.76-2.195a2.47 2.47 0 0 0 .048-.228c.017-.087.039-.219.075-.347.01.153.044.289.073.398.01.041.022.08.029.114l-.002.022c-.053.415-.121.571-.155.626-.082.017-.225.051-.387.092.157-.177.266-.403.319-.677z" fill="#fff"/><path d="M80.3 25.572c-.597-.335-1.567-.656-2.398-.605l-.529.058c-.642.082-.92.087-1.041.075-.326-.6-.787-.846-1.369-.737-.121.022-.21.027-.271.027-.357-.277-1.154-.766-2.005-.434-.459.178-.773.436-1 .627l-.094.077-1.65-.207-.082-.005c-.135-.002-.548-.005-1.116.022.063-.164.06-.342-.007-.509-.188-.465-.763-.624-1.683-.846l-.036-.01-.222-.055c-.679-.195-1.565.234-1.966.552l-.292.231-.104.101-.256.147-.208.116-.041.022-.319.101c-.227.065-.464.149-.676.325l-.128.005c-.362.012-.889.029-1.348.229l-.263-.296-.483.169-.242.082-.2.06c-.198.058-.423.125-.655.234l-.413.193.012.431c.005.171.051.333.104.477l-1.601.844c-.541.323-.686.716-.712.988-.056.598.401 1.051.645 1.268.005.075.007.195 0 .39l-.005.195.106.166c.213.337.449.574.749.737-.002.007-.005.014-.01.024-.097.243-.391.988.275 1.526.432.349.838.528 1.205.528a.99.99 0 0 0 .611-.2c.64-.489.483-1.62.464-1.747-.019-.121-.019-.207-.014-.265l.072.017c.319.077.799.195 1.256-.077.28-.166.473-.436.587-.822.338-.176.855-.027 1.237.371.459.477 1.188 1.087 2.212.853l.514-.135c.684-.195.997-.253 1.336-.031l.027.017c.118.08.401.268.768.2.063-.012.181-.002.295.005.372.027 1.106.075 1.609-.593.203.395.447.675.732.839-.101.171-.254.509-.041.884l.444.79.696-.615c.575-.509.872-1.152.853-1.863-.007-.313-.14-.586-.386-.786a1.17 1.17 0 0 0-.258-.161.74.74 0 0 1 .123-.063l.184-.08.114-.157.196-.287c.08-.118.283-.424.384-.496.768.145 1.374-.174 1.865-.429l.302-.152c.094.128.254.265.519.337.626.164 1.971-.528 2.21-.689.114-.075.459-.306.481-.706.333.14.792.123 1.128-.275l.514-.603-.7-.405z" fill="#0095db"/><g fill="#fbba00"><path d="M62.935 25.06l-.128.005c-.362.012-.889.028-1.348.22L61.196 25l-.483.162-.242.079-.2.058c-.198.056-.423.121-.655.225l-.413.186.012.415a1.41 1.41 0 0 0 .104.459l-1.601.812c-.541.311-.686.689-.713.951-.056.575.401 1.011.645 1.22a3.69 3.69 0 0 1 0 .376l-.005.188.106.16c.213.325.449.552.749.71-.002.007-.005.014-.01.023-.097.234-.391.951.275 1.468.432.336.838.508 1.205.508.287 0 .493-.104.611-.193.64-.471.483-1.559.464-1.682a1.02 1.02 0 0 1-.014-.255l.072.016c.319.074.8.188 1.256-.074.28-.16.473-.42.587-.791.017-.009.034-.012.053-.019v-4.992c-.017.016-.041.03-.065.049z"/><path d="M68.73 23.949c-.188-.46-.763-.617-1.682-.836l-.036-.01-.222-.055c-.678-.193-1.564.231-1.965.546l-.292.229-.104.1-.256.145-.208.114-.041.021-.319.1c-.203.057-.413.133-.606.274v5.13c.338-.136.821.012 1.185.386.459.472 1.187 1.075 2.211.843l.514-.133c.683-.193.997-.25 1.335-.031l.027.017c.116.076.381.248.729.203v-6.55l-.261.01c.06-.16.058-.336-.01-.503z" opacity=".7"/><path d="M73.629 30.565a.99.99 0 0 0-.386-.772 1.17 1.17 0 0 0-.258-.159c.039-.024.08-.045.123-.062l.184-.078.113-.154.196-.282c.08-.116.282-.417.384-.488A2.12 2.12 0 0 0 75 28.512v-4.007c-.014.002-.029.002-.046.005a1.55 1.55 0 0 1-.27.026c-.357-.272-1.154-.753-2.004-.426-.459.175-.773.429-1 .616l-.094.076-1.649-.204-.082-.005c-.113-.002-.423-.005-.855.012v6.508c.012-.002.027-.002.039-.005.063-.012.181-.002.295.005.372.026 1.106.073 1.608-.583.203.388.447.663.732.824-.101.168-.254.5-.041.869l.444.777.695-.604c.579-.5.874-1.134.857-1.831z" opacity=".4"/></g></g></svg>