<svg xmlns="http://www.w3.org/2000/svg" width="105" height="75"  fill="none" fill-rule="evenodd"><g stroke="#19232f" stroke-width="3"><path d="M73.5 38.5h24"/><circle cx="98.5" cy="38.5" r="4" fill="#1c2837"/></g><circle stroke="#fff" stroke-width="3" fill="#1c2837" cx="37.5" cy="37.5" r="35.5"/><g fill-rule="nonzero"><path d="M52.424 41.835v1.022c-4.562.043-7.048 1.234-7.048 1.853s2.487 1.809 7.048 1.853v1.022c-2.809-.028-5.599-.509-7.048-1.418v2.218c0 .629 2.576 1.855 7.301 1.855 2.016 0 3.639-.225 4.84-.529v1.05c-1.426.33-3.136.498-4.84.498-2.893 0-5.809-.483-7.301-1.421v2.704c0 .631 2.576 1.858 7.301 1.858s7.301-1.227 7.301-1.855h0v-.031H61V44.71c0-1.889-4.186-2.878-8.323-2.878" fill="#0095db"/><g fill="#fbba00"><path d="M45.375 52.021h0v.521c0 .631 2.576 1.858 7.301 1.858s7.301-1.227 7.301-1.855h0v-.031H61v-.493H45.375z"/><path d="M52.677 50.24c2.016 0 3.639-.225 4.84-.529v1.05c-1.426.33-3.136.498-4.84.498-2.893 0-5.809-.483-7.301-1.421v2.182H61v-3.399H45.48c.521.659 3.018 1.618 7.196 1.618z" opacity=".7"/><path d="M61 45.226H45.794c.884.603 3.154 1.303 6.627 1.337v1.022c-2.809-.028-5.599-.509-7.048-1.418v2.218c0 .074.036.153.105.24h15.52v-3.399H61z" opacity=".4"/></g><path d="M42.597 30.273c0-1.889-4.186-2.878-8.321-2.878-.902 0-1.786.046-2.637.138v-4.656C31.642 20.989 27.456 20 23.321 20S15 20.989 15 22.878l.008 28.101c.143 1.825 4.252 2.78 8.313 2.78 4.135 0 8.321-.989 8.321-2.878h0v-1.825l2.101.043c2.993 0 7.659-.268 8.684-1.863.164-.256.181-.59.171-1.109V30.273zm-26.575-1.748c1.492.938 4.406 1.421 7.299 1.421 2.732 0 5.487-.432 7.041-1.27v2.875c-.762.641-3.184 1.459-7.041 1.459-4.723.003-7.299-1.224-7.299-1.853v-2.632zM30.62 50.879c0 .629-2.576 1.855-7.299 1.855s-7.299-1.227-7.299-1.855c0-.026.005-.054.013-.079l-.013-.003v-2.313c1.492.938 4.406 1.421 7.299 1.421s5.806-.483 7.299-1.421v2.159m0-3.619c0 .629-2.576 1.855-7.299 1.855s-7.299-1.227-7.299-1.855v-2.451c1.492.938 4.406 1.421 7.299 1.421s5.806-.483 7.299-1.421v2.451zm0-3.907c0 .629-2.576 1.855-7.299 1.855s-7.299-1.227-7.299-1.855v-2.54c1.492.938 4.406 1.421 7.299 1.421s5.806-.483 7.299-1.421v2.54zm0-3.999c0 .629-2.576 1.855-7.299 1.855s-7.299-1.224-7.299-1.855v-2.453c1.492.935 4.406 1.421 7.299 1.421s5.806-.483 7.299-1.421v2.453zm0-3.907c0 .629-2.576 1.855-7.299 1.855s-7.299-1.227-7.299-1.855v-2.596c1.492.938 4.406 1.421 7.299 1.421 2.796 0 5.609-.452 7.143-1.329.041.056.095.105.156.138v2.366zm0-8.142c0 .629-2.576 1.855-7.299 1.855s-7.299-1.224-7.299-1.855v-2.734c1.492.935 4.406 1.421 7.299 1.421s5.806-.483 7.299-1.421v2.734zm-7.299-2.336c-4.723 0-7.299-1.227-7.299-1.855s2.576-1.855 7.299-1.855 7.299 1.227 7.299 1.855-2.576 1.855-7.299 1.855zm8.321 3.833c.848-.095 1.73-.146 2.637-.146 4.723 0 7.299 1.227 7.299 1.855s-2.576 1.855-7.299 1.855c-.905 0-1.789-.051-2.637-.146v-3.419zm0 4.449c.851.092 1.735.138 2.637.138 2.89 0 5.806-.483 7.299-1.421v2.694c-.033.284-.189.534-.475.762-1.71 1.352-6.966 1.26-9.458.992v-3.164h-.003zm0 4.186l3.378.153c2.326 0 5.106-.243 6.555-1.255v2.412c-.033.284-.189.534-.475.762-1.707 1.352-6.964 1.26-9.458.994v-3.067zm0 4.086l3.376.153c2.326 0 5.109-.243 6.558-1.252v2.244c-.033.284-.189.534-.475.762-1.71 1.352-6.966 1.26-9.458.992v-2.898zm9.923 5.395c-.851 1.324-7.659 1.544-9.926 1.367v-2.842a38.96 38.96 0 0 0 3.378.153c2.326 0 5.106-.243 6.555-1.255v1.975m18.405 6.435H61v.031c0 1.889-4.186 2.878-8.323 2.878s-8.323-.989-8.323-2.878V44.72a1.34 1.34 0 0 1 .013-.179c.003-.02.008-.038.013-.059.008-.036.013-.074.023-.11l.023-.066c.01-.031.02-.064.033-.095a.89.89 0 0 1 .036-.069c.015-.028.028-.059.043-.087s.031-.049.049-.072.033-.054.054-.079.041-.049.061-.074.038-.049.061-.072.049-.049.072-.074.043-.046.066-.066c.028-.026.056-.049.087-.074.023-.02.046-.041.072-.061a1.44 1.44 0 0 1 .1-.074c.026-.018.049-.038.077-.056.036-.026.077-.051.115-.074.026-.018.051-.033.079-.051a1.58 1.58 0 0 1 .13-.074c.026-.015.051-.031.079-.043a2.59 2.59 0 0 1 .146-.074l.079-.038.161-.074c.026-.01.051-.023.077-.033.059-.026.12-.051.181-.074.023-.01.046-.018.072-.028l.199-.074.064-.023c.072-.026.146-.049.22-.074.018-.005.038-.013.056-.018.079-.026.158-.049.238-.072.015-.005.033-.01.049-.015a6.38 6.38 0 0 1 .261-.072c.013-.003.026-.008.038-.01l.281-.069c.008-.003.018-.005.026-.005l.304-.069c1.308-.279 2.821-.427 4.339-.44v1.022c-4.562.043-7.048 1.234-7.048 1.853 0 .148.143.327.419.516.884.603 3.154 1.303 6.627 1.337v1.022c-2.809-.028-5.599-.509-7.048-1.418v2.218c0 .074.036.153.105.24.524.657 3.021 1.615 7.196 1.615 2.016 0 3.639-.225 4.84-.529v1.05c-1.426.33-3.136.498-4.84.498-2.893 0-5.809-.483-7.301-1.421v2.704c0 .631 2.576 1.858 7.301 1.858s7.301-1.227 7.301-1.855h0v-.041h-.003z" fill="#fff"/></g></svg>