<svg xmlns="http://www.w3.org/2000/svg" width="63" height="86"><path d="M35.962 69.241l-.008-.904h-2.386V1h-1.596v67.337h-2.394v7.555c0 .991-.73 1.826-1.592 1.826s-1.6-.835-1.6-1.822l.008-1.853c0-2.013-1.433-3.652-3.196-3.652s-3.188 1.639-3.188 3.648L20 75.87c0 5.035 3.583 9.13 7.989 9.13 4.398 0 7.973-4.095 7.973-9.13h-.008c.068-.703.052-2.337.008-6.629zm-1.572 6.227l-.02.023v.379c0 4.027-2.861 7.304-6.377 7.304-3.464 0-6.393-3.346-6.393-7.3l.008-1.831c0-.991.73-1.826 1.592-1.826s1.6.835 1.6 1.822l-.008 1.853c0 2.013 1.433 3.652 3.196 3.652s3.188-1.639 3.188-3.652v-5.729h3.2l.012 5.305z" fill="#000"/><path d="M61.041 30.364c-.698-3.182-1.762-5.909-3.13-8.636-1.661-3.636-3.776-6.364-6.244-8.636C46.288 7.636 39.233 4.336 31.5 4.336s-14.788 3.3-20.162 8.755c-2.472 2.273-4.587 5-6.244 8.636-1.368 2.727-2.432 5.455-3.13 8.636A37.29 37.29 0 0 0 1 39h61c0-3.182-.333-5.909-.959-8.636z" fill="#0095db"/><g fill="#fbba00"><path d="M31.5 4.336c-7.733 0-14.788 3.3-20.162 8.755h40.324C46.289 7.636 39.234 4.336 31.5 4.336z"/><path d="M51.662 13.091H11.338c-2.472 2.273-4.587 5-6.244 8.636h52.817c-1.661-3.636-3.776-6.364-6.248-8.636z" opacity=".7"/><path d="M57.911 21.727H5.09c-1.368 2.727-2.432 5.455-3.13 8.636h59.078c-.694-3.182-1.762-5.909-3.126-8.636z" opacity=".4"/></g></svg>