<svg xmlns="http://www.w3.org/2000/svg" width="183" height="66" viewBox="0 0 183 66">
  <g fill="none" fill-rule="evenodd" transform="translate(.009)">
    <g fill-rule="nonzero" transform="translate(4 11)">
      <path fill="#FFFFFF" d="M55.3319838,34.5994046 L57.4929486,29.6703619 C59.8281847,31.381835 62.9302147,32.2718011 65.9973905,32.2718011 C68.262918,32.2718011 69.6919431,31.4160645 69.6919431,30.1153449 C69.6570889,26.4870218 56.133632,29.3280673 56.0290692,20.2230301 C55.9942149,15.6020526 60.1767274,12.0421884 66.1019533,12.0421884 C69.6222346,12.0421884 73.1425159,12.897925 75.6520233,14.8490044 L73.6304757,19.8807355 C71.3300938,18.443098 68.4720437,17.4162141 65.7534106,17.4162141 C63.9061343,17.4162141 62.6862348,18.2719507 62.6862348,19.3672935 C62.7210891,22.9271577 76.3491087,20.9760783 76.4885258,29.6703619 C76.4885258,34.3940278 72.4105762,37.7142857 66.5550588,37.7142857 C62.2679836,37.7142857 58.329451,36.7216313 55.3319838,34.5994046 M138.250293,27.8904298 C137.16981,29.7388208 135.148263,31.005311 132.813026,31.005311 C129.362454,31.005311 126.574112,28.2669539 126.574112,24.8782371 C126.574112,21.4895202 129.362454,18.7511632 132.813026,18.7511632 C135.148263,18.7511632 137.16981,20.0176533 138.250293,21.8660443 L144.210373,18.6142453 C141.9797,14.7120865 137.692624,12.0421884 132.813026,12.0421884 C125.598193,12.0421884 119.742675,17.7927382 119.742675,24.8782371 C119.742675,31.9637359 125.598193,37.7142857 132.813026,37.7142857 C137.727479,37.7142857 141.9797,35.0786171 144.210373,31.1422288 L138.250293,27.8904298 L138.250293,27.8904298 Z M79.4859931,1.3968254 L86.9448069,1.3968254 L86.9448069,37.2350732 L79.4859931,37.2350732 L79.4859931,1.3968254 Z M147.138132,1.3968254 L147.138132,37.2350732 L154.596945,37.2350732 L154.596945,26.4870218 L163.44993,37.2350732 L173,37.2350732 L161.742071,24.4674835 L172.163498,12.5556304 L163.031679,12.5556304 L154.596945,22.4479452 L154.596945,1.3968254 L147.138132,1.3968254 Z M109.112123,27.9588887 C108.03164,29.7045914 105.800967,31.005311 103.29146,31.005311 C99.8408869,31.005311 97.0525452,28.2669539 97.0525452,24.8782371 C97.0525452,21.4895202 99.8408869,18.7511632 103.29146,18.7511632 C105.800967,18.7511632 108.03164,20.1203417 109.112123,21.9002738 L109.112123,27.9588887 Z M109.112123,12.5556304 L109.112123,15.4651347 C107.892223,13.4455964 104.859902,12.0421884 101.688163,12.0421884 C95.1355604,12.0421884 89.9771284,17.7242793 89.9771284,24.8440076 C89.9771284,31.9637359 95.1355604,37.7142857 101.688163,37.7142857 C104.859902,37.7142857 107.892223,36.3108777 109.112123,34.2913394 L109.112123,37.2008438 L116.570937,37.2008438 L116.570937,12.5556304 L109.112123,12.5556304 Z"/>
      <path fill="#E01E5A" d="M9.0274404,28.2469136 C9.0274404,30.7360376 7.00994425,32.7477954 4.5137202,32.7477954 C2.01749615,32.7477954 0,30.7360376 0,28.2469136 C0,25.7577895 2.01749615,23.7460317 4.5137202,23.7460317 L9.0274404,23.7460317 L9.0274404,28.2469136 Z M11.2843005,28.2469136 C11.2843005,25.7577895 13.3017966,23.7460317 15.7980207,23.7460317 C18.2942447,23.7460317 20.3117409,25.7577895 20.3117409,28.2469136 L20.3117409,39.4991182 C20.3117409,41.9882422 18.2942447,44 15.7980207,44 C13.3017966,44 11.2843005,41.9882422 11.2843005,39.4991182 L11.2843005,28.2469136 Z"/>
      <path fill="#36C5F0" d="M15.8056068,8.98663465 C13.3135781,8.98663465 11.2994727,6.97825797 11.2994727,4.49331733 C11.2994727,2.00837668 13.3135781,0 15.8056068,0 C18.2976355,0 20.3117409,2.00837668 20.3117409,4.49331733 L20.3117409,8.98663465 L15.8056068,8.98663465 Z M15.8056068,11.2673336 C18.2976355,11.2673336 20.3117409,13.2757103 20.3117409,15.7606509 C20.3117409,18.2455916 18.2976355,20.2539683 15.8056068,20.2539683 L4.50613411,20.2539683 C2.0141054,20.2539683 0,18.2455916 0,15.7606509 C0,13.2757103 2.0141054,11.2673336 4.50613411,11.2673336 L15.8056068,11.2673336 Z"/>
      <path fill="#2EB67D" d="M35.0980657,15.7606509 C35.0980657,13.2757103 37.1155618,11.2673336 39.6117859,11.2673336 C42.1080099,11.2673336 44.1255061,13.2757103 44.1255061,15.7606509 C44.1255061,18.2455916 42.1080099,20.2539683 39.6117859,20.2539683 L35.0980657,20.2539683 L35.0980657,15.7606509 Z M32.8412056,15.7606509 C32.8412056,18.2455916 30.8237094,20.2539683 28.3274854,20.2539683 C25.8312613,20.2539683 23.8137652,18.2455916 23.8137652,15.7606509 L23.8137652,4.49331733 C23.8137652,2.00837668 25.8312613,0 28.3274854,0 C30.8237094,0 32.8412056,2.00837668 32.8412056,4.49331733 L32.8412056,15.7606509 L32.8412056,15.7606509 Z"/>
      <path fill="#ECB22E" d="M28.3198993,34.9982363 C30.811928,34.9982363 32.8260334,37.0099941 32.8260334,39.4991182 C32.8260334,41.9882422 30.811928,44 28.3198993,44 C25.8278706,44 23.8137652,41.9882422 23.8137652,39.4991182 L23.8137652,34.9982363 L28.3198993,34.9982363 Z M28.3198993,32.7477954 C25.8278706,32.7477954 23.8137652,30.7360376 23.8137652,28.2469136 C23.8137652,25.7577895 25.8278706,23.7460317 28.3198993,23.7460317 L39.619372,23.7460317 C42.1114007,23.7460317 44.1255061,25.7577895 44.1255061,28.2469136 C44.1255061,30.7360376 42.1114007,32.7477954 39.619372,32.7477954 L28.3198993,32.7477954 Z"/>
    </g>
    <rect width="182" height="66"/>
  </g>
</svg>
