<!--
  ~ SPDX-FileCopyrightText: 2024 SAP SE or an SAP affiliate company and Juno contributors
  ~ SPDX-License-Identifier: Apache-2.0
-->

<svg width="24" height="24" viewBox="0 0 24 24" fill="none" xmlns="http://www.w3.org/2000/svg">
<path d="M15.7956 22H14.5955L15.7956 14.2222H11.5955C10.8994 14.2222 10.9114 13.8667 11.1395 13.4889C11.3675 13.1111 11.1995 13.4 11.2235 13.3556C12.7715 10.8222 15.0995 7.04444 18.1956 2L19.3956 2L18.1956 9.77778H22.3957C22.9837 9.77778 23.0677 10.1444 22.9597 10.3444L22.8757 10.5111C18.1476 18.1667 15.7956 22 15.7956 22Z"/>
<path d="M2 17H8V23H2V17Z"/>
<path fill-rule="evenodd" clip-rule="evenodd" d="M7 10H3V14H7V10ZM2 9V15H8V9H2Z"/>
<path fill-rule="evenodd" clip-rule="evenodd" d="M7 2H3V6H7V2ZM2 1V7H8V1H2Z"/>
</svg>
