<!--
  ~ SPDX-FileCopyrightText: 2024 SAP SE or an SAP affiliate company and Juno contributors
  ~ SPDX-License-Identifier: Apache-2.0
-->

<svg xmlns="http://www.w3.org/2000/svg" xmlns:xlink="http://www.w3.org/1999/xlink" width="808" height="680" viewBox="0 0 808 680">
  <defs>
    <rect id="ip-background-b" width="807" height="679" x="0" y="0"/>
  </defs>
  <g fill="none" fill-rule="evenodd" filter="url(#ip-background-a)" transform="translate(-1064 -445)">
    <g transform="translate(1064.709 445.153)">
      <mask id="ip-background-c" fill="#fff">
        <use xlink:href="#ip-background-b"/>
      </mask>
      <g fill="#141B22" fill-rule="nonzero">
        <g transform="translate(-84 -28)">
          <path d="M879.408012,172.414373 C887.692283,172.414373 894.408012,179.130102 894.408012,187.414373 L894.408012,367.925173 C894.408012,376.209445 887.692283,382.925173 879.408012,382.925173 L801.563209,382.924373 L801.563209,431.092373 L807.989657,431.092899 C816.273928,431.092899 822.989657,437.808628 822.989657,446.092899 L822.989209,451.860373 L1048.17365,452.044082 C1054.15211,426.777292 1076.6761,407.900369 1103.68621,407.462801 L1104.6458,407.455034 C1136.69345,407.455034 1162.67321,433.413416 1162.67321,465.434703 C1162.67321,497.455991 1136.69345,523.414373 1104.6458,523.414373 C1077.20369,523.414373 1054.21077,504.380819 1048.16892,478.805303 L822.989209,478.619373 L822.989657,484.776508 C822.989657,493.060779 816.273928,499.776508 807.989657,499.776508 L769.24949,499.776508 C760.965219,499.776508 754.24949,493.060779 754.24949,484.776508 L754.249209,478.563373 L528.276762,478.377838 C522.459694,503.868924 499.829533,522.966459 472.660212,523.406605 L471.700622,523.414373 C439.652967,523.414373 413.673209,497.455991 413.673209,465.434703 C413.673209,433.413416 439.652967,407.455034 471.700622,407.455034 C498.982666,407.455034 521.867274,426.267204 528.070052,451.617257 L754.249209,451.803373 L754.24949,446.092899 C754.24949,437.808628 760.965219,431.092899 769.24949,431.092899 L774.782209,431.092373 L774.782209,382.924373 L698.723864,382.925173 C690.439593,382.925173 683.723864,376.209445 683.723864,367.925173 L683.723864,187.414373 C683.723864,179.130102 690.439593,172.414373 698.723864,172.414373 L879.408012,172.414373 Z M471.700622,434.214881 C454.444192,434.214881 440.455092,448.192472 440.455092,465.434703 C440.455092,482.676935 454.444192,496.654525 471.700622,496.654525 C488.957052,496.654525 502.946153,482.676935 502.946153,465.434703 C502.946153,448.192472 488.957052,434.214881 471.700622,434.214881 Z M1104.6458,434.214881 C1087.38937,434.214881 1073.40026,448.192472 1073.40026,465.434703 C1073.40026,482.676935 1087.38937,496.654525 1104.6458,496.654525 C1121.90223,496.654525 1135.89133,482.676935 1135.89133,465.434703 C1135.89133,448.192472 1121.90223,434.214881 1104.6458,434.214881 Z M764.01595,228.021336 L713.6303,228.021336 L713.6303,246.369672 L727.289061,246.369672 L727.289061,315.517118 L713.6303,315.517118 L713.6303,333.865453 L764.01595,333.865453 L764.01595,315.517118 L750.35719,315.517118 L750.35719,246.369672 L764.01595,246.369672 L764.01595,228.021336 Z M833.3721,228.021336 L783.289979,228.021336 L783.289979,333.865453 L806.358107,333.865453 L806.358107,295.652391 L833.3721,295.652391 C838.329724,295.652391 842.781469,294.818375 846.727333,293.150345 C850.673197,291.482314 854.037299,289.182454 856.819639,286.250764 C859.601979,283.319074 861.751969,279.780828 863.269609,275.636025 C864.787249,271.491222 865.546069,266.891501 865.546069,261.836863 C865.546069,256.883318 864.787249,252.308871 863.269609,248.113522 C861.751969,243.918172 859.601979,240.354652 856.819639,237.422962 C854.037299,234.491273 850.673197,232.191412 846.727333,230.523382 C842.953028,228.927874 838.715876,228.095436 834.015878,228.026066 L833.3721,228.021336 Z M830.640348,248.037702 C834.080332,248.037702 836.78679,248.922264 838.759722,250.691387 C840.659583,252.394987 841.644696,254.871968 841.715061,258.122329 L841.719121,258.500802 L841.719121,265.172924 C841.719121,268.610078 840.732654,271.213217 838.759722,272.98234 C836.78679,274.751463 834.080332,275.636025 830.640348,275.636025 L806.358107,275.636025 L806.358107,248.037702 L830.640348,248.037702 Z" transform="rotate(-30 788.173 347.914)"/>
          <path d="M356.118646,318.520434 C364.402917,318.520434 371.118646,325.236163 371.118646,333.520434 L371.118646,454.656393 C371.118646,462.940665 364.402917,469.656393 356.118646,469.656393 L304.676808,469.655434 L304.676808,504.237434 L305.010184,504.23835 C313.264302,504.23835 319.961276,510.905281 320.009917,519.147955 L481.156567,519.280114 C485.485485,500.925504 501.936206,487.267575 521.569182,487.267575 C544.503152,487.267575 563.094808,505.904362 563.094808,528.894005 C563.094808,551.883647 544.503152,570.520434 521.569182,570.520434 C501.930988,570.520434 485.476741,556.855244 481.153118,538.493259 L320.009808,538.359434 L320.010184,538.549659 C320.010184,546.83393 313.294455,553.549659 305.010184,553.549659 L285.818289,553.549659 C277.534017,553.549659 270.818289,546.83393 270.818289,538.549659 L270.817808,538.318434 L109.107675,538.185732 C104.945143,556.487415 88.750344,570.19885 69.3071361,570.514857 L68.620434,570.520434 C45.6864641,570.520434 27.0948082,551.883647 27.0948082,528.894005 C27.0948082,505.904362 45.6864641,487.267575 68.620434,487.267575 C88.143912,487.267575 104.520532,500.773582 108.959489,518.973449 L270.818808,519.107434 L270.821506,518.924522 C270.986471,510.886829 277.473717,504.402188 285.512437,504.241406 L285.511808,469.655434 L235.348682,469.656393 C227.064411,469.656393 220.348682,462.940665 220.348682,454.656393 L220.348682,333.520434 C220.348682,325.236163 227.064411,318.520434 235.348682,318.520434 L356.118646,318.520434 Z M68.620434,506.479773 C56.2713733,506.479773 46.2604816,516.514966 46.2604816,528.894005 C46.2604816,541.273043 56.2713733,551.308236 68.620434,551.308236 C80.9694946,551.308236 90.9803863,541.273043 90.9803863,528.894005 C90.9803863,516.514966 80.9694946,506.479773 68.620434,506.479773 Z M521.569182,506.479773 C509.220122,506.479773 499.20923,516.514966 499.20923,528.894005 C499.20923,541.273043 509.220122,551.308236 521.569182,551.308236 C533.918243,551.308236 543.929135,541.273043 543.929135,528.894005 C543.929135,516.514966 533.918243,506.479773 521.569182,506.479773 Z M277.807371,358.443382 L241.750351,358.443382 L241.750351,371.616546 L251.524844,371.616546 L251.524844,421.260866 L241.750351,421.260866 L241.750351,434.43403 L277.807371,434.43403 L277.807371,421.260866 L268.032877,421.260866 L268.032877,371.616546 L277.807371,371.616546 L277.807371,358.443382 Z M327.440076,358.443382 L291.600267,358.443382 L291.600267,434.43403 L308.1083,434.43403 L308.1083,406.999011 L327.440076,406.999011 C330.987855,406.999011 334.173616,406.400231 336.997359,405.20267 C339.821101,404.00511 342.228523,402.353928 344.219623,400.249125 C346.210724,398.144322 347.749302,395.604043 348.835356,392.628287 C349.921411,389.652531 350.464439,386.350167 350.464439,382.721196 C350.464439,379.164805 349.921411,375.880587 348.835356,372.868541 C347.749302,369.856495 346.210724,367.298071 344.219623,365.193268 C342.228523,363.088465 339.821101,361.437283 336.997359,360.239722 C334.339719,359.112607 331.361398,358.515899 328.062397,358.449598 L327.440076,358.443382 Z M325.485178,372.814106 C327.946902,372.814106 329.8837,373.449176 331.295571,374.719316 C332.643266,375.931722 333.347743,377.689711 333.409002,379.993283 L333.413378,380.326076 L333.413378,385.116317 C333.413378,387.584017 332.707442,389.452937 331.295571,390.723077 C329.8837,391.993217 327.946902,392.628287 325.485178,392.628287 L308.1083,392.628287 L308.1083,372.814106 L325.485178,372.814106 Z" transform="rotate(-30 295.095 444.52)"/>
          <path d="M528.73947,73.2329942 C537.023741,73.2329942 543.73947,79.9487229 543.73947,88.2329942 L543.73947,152.393096 C543.73947,160.677367 537.023741,167.393096 528.73947,167.393096 L502.213571,167.392994 L502.214392,189.94644 C506.042166,191.429604 509.109658,194.43825 510.670874,198.226383 L612.512986,198.310242 C615.218277,186.874635 625.500166,178.365142 637.771055,178.365142 C652.104786,178.365142 663.724571,189.976156 663.724571,204.299068 C663.724571,218.62198 652.104786,230.232994 637.771055,230.232994 C625.497307,230.232994 615.213485,221.719534 612.511096,210.279899 L510.742118,210.195711 C508.539329,215.740108 503.125767,219.659932 496.796681,219.659932 L496.051747,219.659932 C489.713922,219.659932 484.294151,215.729277 482.097204,210.172736 L379.982391,210.088937 C377.349879,221.624662 367.020035,230.232994 354.678088,230.232994 C340.344356,230.232994 328.724571,218.62198 328.724571,204.299068 C328.724571,189.976156 340.344356,178.365142 354.678088,178.365142 C366.880346,178.365142 377.115792,186.779715 379.890055,198.118642 L482.187496,198.202318 C483.696883,194.558028 486.601297,191.637878 490.234796,190.107809 L490.234571,167.392994 L464.508242,167.393096 C456.223971,167.393096 449.508242,160.677367 449.508242,152.393096 L449.508242,88.2329942 C449.508242,79.9487229 456.223971,73.2329942 464.508242,73.2329942 L528.73947,73.2329942 Z M354.678088,190.334646 C346.959925,190.334646 340.703117,196.586731 340.703117,204.299068 C340.703117,212.011405 346.959925,218.26349 354.678088,218.26349 C362.39625,218.26349 368.653058,212.011405 368.653058,204.299068 C368.653058,196.586731 362.39625,190.334646 354.678088,190.334646 Z M637.771055,190.334646 C630.052892,190.334646 623.796085,196.586731 623.796085,204.299068 C623.796085,212.011405 630.052892,218.26349 637.771055,218.26349 C645.489218,218.26349 651.746026,212.011405 651.746026,204.299068 C651.746026,196.586731 645.489218,190.334646 637.771055,190.334646 Z M485.419923,98.1056244 L462.884285,98.1056244 L462.884285,106.312715 L468.993344,106.312715 L468.993344,137.241914 L462.884285,137.241914 L462.884285,145.449004 L485.419923,145.449004 L485.419923,137.241914 L479.310865,137.241914 L479.310865,106.312715 L485.419923,106.312715 L485.419923,98.1056244 Z M516.440364,98.1056244 L494.040483,98.1056244 L494.040483,145.449004 L504.358004,145.449004 L504.358004,128.356552 L516.440364,128.356552 C518.657726,128.356552 520.648826,127.983502 522.413666,127.237403 C524.178505,126.491304 525.683143,125.462592 526.927581,124.151266 C528.172019,122.83994 529.13363,121.257306 529.812414,119.403363 C530.491198,117.549419 530.83059,115.491995 530.83059,113.231088 C530.83059,111.0154 530.491198,108.96928 529.812414,107.092727 C529.13363,105.216175 528.172019,103.622236 526.927581,102.31091 C525.683143,100.999585 524.178505,99.9708722 522.413666,99.2247731 C520.774886,98.5319668 518.941015,98.1608205 516.91205,98.1113344 L516.440364,98.1056244 Z M515.218552,107.058814 C516.75713,107.058814 517.967629,107.454472 518.850048,108.24579 C519.677317,108.98765 520.116803,110.057385 520.168507,111.454996 L520.173678,111.73889 L520.173678,114.723286 C520.173678,116.260703 519.732468,117.42507 518.850048,118.216387 C517.967629,119.007704 516.75713,119.403363 515.218552,119.403363 L504.358004,119.403363 L504.358004,107.058814 L515.218552,107.058814 Z" transform="rotate(-30 496.225 151.733)"/>
        </g>
      </g>
    </g>
  </g>
</svg>
