<!--
  ~ SPDX-FileCopyrightText: 2024 SAP SE or an SAP affiliate company and Juno contributors
  ~ SPDX-License-Identifier: Apache-2.0
-->

<svg xmlns="http://www.w3.org/2000/svg" width="130" height="64" viewBox="0 0 130 64"><style>
@keyframes la-a0_t { 0% { transform: translate(29.9px,5.7px); animation-timing-function: cubic-bezier(.4,0,.6,1); } 25% { transform: translate(53.8px,-8.4px); animation-timing-function: cubic-bezier(.4,0,.6,1); } 50% { transform: translate(48.4px,2.5px); animation-timing-function: cubic-bezier(.4,0,.6,1); } 75% { transform: translate(32.3px,-7.2px); animation-timing-function: cubic-bezier(.4,0,.6,1); } 100% { transform: translate(29.9px,5.7px); } }
</style><defs></defs><g fill="none" fill-rule="evenodd" transform="translate(-872,-690)"><path fill="#616366" fill-rule="nonzero" d="M952.4 691c1.7 0 3 1.4 3 3v31.2c0 1.7-1.3 3-3 3h-13.1v8.5h.7c1.7 0 3 1.4 3 3v.7h39.1c1.1-4.4 4.9-7.7 9.6-7.8h.2c5.6 0 10.1 4.6 10.1 10.2c0 5.7-4.5 10.2-10.1 10.2c-4.7 0-8.7-3.3-9.8-7.8l-39.1-0.1v.8c0 1.6-1.3 3-3 3h-5.9c-1.6 0-3-1.4-3-3v-0.8h-39.2c-1 4.5-4.9 7.8-9.6 7.9h-0.2c-5.6 0-10.1-4.5-10.1-10.2c0-5.6 4.5-10.2 10.1-10.2c4.7 0 8.7 3.3 9.8 7.8h39.2v-0.7c0-1.6 1.4-3 3-3h.6v-8.5h-12.8c-1.7 0-3-1.3-3-3v-31.2c0-1.6 1.3-3 3-3h30.5Zm-70.3 46.3c-3 0-5.5 2.5-5.5 5.5c0 3.1 2.5 5.5 5.5 5.5c3 0 5.4-2.4 5.4-5.5c0-3-2.4-5.5-5.4-5.5Zm109.8 0c-3 0-5.4 2.5-5.4 5.5c0 3.1 2.4 5.5 5.4 5.5c3 0 5.5-2.4 5.5-5.5c0-3-2.5-5.5-5.5-5.5Zm-59.1-36.4h-8.7v3.2h2.3v12.2h-2.3v3.3h8.7v-3.3h-2.4v-12.2h2.4v-3.2Zm12 0h-8.6v18.7h4v-6.8h4.6c.9 0 1.7-0.1 2.4-0.4c.6-0.3 1.2-0.7 1.7-1.2c.5-0.6 .9-1.2 1.1-1.9c.3-0.7 .4-1.6 .4-2.5c0-0.8-0.1-1.6-0.4-2.4c-0.2-0.7-0.6-1.3-1.1-1.9c-0.5-0.5-1.1-0.9-1.7-1.2c-0.6-0.2-1.3-0.4-2-0.4h-0.4Zm-0.4 3.5c.6 0 1 .2 1.4 .5c.3 .3 .5 .6 .5 1.2v.2v1.1c0 .6-0.2 1.1-0.5 1.4c-0.4 .3-0.8 .5-1.4 .5h-4.2v-4.9h4.2Z"/></g><path fill="#dedfe0" d="M37.7 35h-1.9l-0.7-0.6c2.4-2.8 3.9-6.5 3.9-10.4c0-8.8-7.2-16-16-16c-8.8 0-16 7.2-16 16c0 8.8 7.2 16 16 16c3.9 0 7.6-1.5 10.4-3.9l.6 .7v1.9l12.3 12.3l3.7-3.7l-12.3-12.3Zm-14.7 0c-6.1 0-11.1-4.9-11.1-11c0-6.1 5-11.1 11.1-11.1c6.1 0 11 5 11 11.1c0 6.1-4.9 11-11 11Z" transform="translate(58.4,35.2) translate(-28.5,-29.5)" style="animation: 4s linear infinite both la-a0_t;"/></svg>