<svg xmlns="http://www.w3.org/2000/svg" xmlns:xlink="http://www.w3.org/1999/xlink" viewBox="0 0 585.4 643.8" height="643.9" width="585.4"><style>
@keyframes a0_t { 0% { transform: translate(420.3px,333.7px) rotate(0deg) translate(-160.5px,-165px); } 100% { transform: translate(420.3px,333.7px) rotate(360deg) translate(-160.5px,-165px); } }
@keyframes a1_t { 0% { transform: translate(262.8px,114.7px) rotate(0deg) translate(-89.5px,-88.7px); } 100% { transform: translate(262.8px,114.7px) rotate(-360deg) translate(-89.5px,-88.7px); } }
@keyframes a2_t { 0% { transform: translate(30px,260.2px); animation-timing-function: cubic-bezier(.4,0,.6,1); } 23.3% { transform: translate(0px,260.2px); } 66.64% { transform: translate(0px,260.2px); animation-timing-function: cubic-bezier(.4,0,.6,1); } 100% { transform: translate(30px,260.2px); } }
@keyframes a3_t { 0% { transform: translate(135.9px,353.2px); animation-timing-function: cubic-bezier(.4,0,1,1); } 23.3% { transform: translate(105.9px,353.2px); animation-timing-function: cubic-bezier(0,0,.6,1); } 43.3% { transform: translate(55.9px,353.2px); animation-timing-function: cubic-bezier(.4,0,1,1); } 66.64% { transform: translate(105.9px,353.2px); animation-timing-function: cubic-bezier(0,0,.6,1); } 100% { transform: translate(135.9px,353.2px); } }
</style><defs><symbol id="Symbol-1" preserveAspectRatio="none" width="585.4" height="643.9" viewBox="0 0 585.4 643.9" overflow="visible" fill="none"><g transform="translate(0,-27.1)"><path d="M283.2 181.2c.7-5.2 1.1-10.5 1.1-16.2c0-5.5-0.4-11-1.2-16.1l34.9-27.2c3-2.4 3.9-7.1 2-10.5l-33-57.1c-2-3.7-6.3-4.9-10.1-3.7l-41.1 16.5c-8.6-6.6-17.7-12.1-27.9-16.2l-6.1-43.7c-0.7-4.1-4.2-7-8.3-7h-66c-4.1 0-7.4 2.9-8.1 7l-6.2 43.7c-10.1 4.1-19.4 9.8-27.8 16.2l-41.1-16.5c-3.8-1.4-8.1 0-10.1 3.7l-32.9 57.1c-2 3.6-1.3 8.1 2.1 10.5l34.9 27.2c-0.9 5.1-1.6 10.8-1.6 16.1c0 5.3 .4 11 1.3 16.2l-34.9 27.1c-3.1 2.4-4 7.1-2.1 10.5l33 57.1c2.1 3.8 6.4 5 10.1 3.8l41.1-16.5c8.6 6.5 17.7 12 27.9 16.1l6.2 43.7c.8 4.1 4.1 7 8.2 7h66c4.1 0 7.6-2.9 8.1-7l6.2-43.7c10.1-4.1 19.4-9.6 27.8-16.1l41.1 16.5c3.8 1.3 8.1 0 10.1-3.8l33-57.1c2.1-3.8 1.2-8.1-2-10.5l-34.6-27.1Zm-122.7 45.7c-34 0-61.9-27.9-61.9-61.9c0-34 27.9-61.9 61.9-61.9c34 0 61.9 27.9 61.9 61.9c0 34-27.9 61.9-61.9 61.9Z" fill="#292f36" transform="translate(420.3,333.7) translate(-160.5,-165)" style="animation: 5s linear infinite both a0_t;"/><path d="M147.7 118.7c1.3-2.4 2.4-5 3.4-7.8c1-2.7 1.8-5.5 2.3-8.2l22.3-7.2c1.9-0.7 3.2-2.8 2.9-4.9l-6.3-34.2c-0.3-2.2-2.3-3.6-4.4-3.7l-23.4 .8c-3.1-4.8-6.6-9.1-11-13l4.8-22.8c.4-2.1-0.8-4.2-2.9-4.9l-32.9-11.9c-2-0.7-4.2 .1-5.2 2l-10.9 20.6c-5.8 .2-11.5 1.4-16.8 3l-17.5-15.6c-1.6-1.3-4-1.4-5.7 .1l-26.6 22.4c-1.7 1.4-2.1 3.8-0.8 5.6l12.5 19.7c-1.4 2.4-2.7 5.1-3.7 7.7c-0.9 2.7-1.8 5.6-2.3 8.3l-22.2 7.2c-2 .6-3.2 2.8-2.9 4.8l6.2 34.2c.4 2.3 2.3 3.7 4.4 3.7l23.4-0.8c3.1 4.8 6.7 9.2 11 13l-4.7 22.8c-0.3 2.2 .8 4.2 2.8 5l32.9 11.8c2.1 .8 4.3 0 5.3-2l10.9-20.5c5.8-0.3 11.4-1.3 16.7-3.1l17.6 15.6c1.6 1.4 4 1.5 5.7 0l26.6-22.4c1.7-1.5 2.1-3.8 .9-5.6l-12.4-19.7Zm-69.3 .7c-16.9-6.1-25.8-25-19.8-41.8c6.1-16.9 25-25.7 41.9-19.6c17 6.1 25.9 24.9 19.8 41.8c-6.1 16.9-24.9 25.7-41.9 19.6Z" fill="#292f36" transform="translate(262.8,114.7) translate(-89.5,-88.7)" style="animation: 5s linear infinite both a1_t;"/><g transform="translate(-18,245.2)"><path d="M62 18.7c.1-12.3 28.1-21.2 40-18l393.2 105.3c11.9 3.2 21.5 15.8 21.4 28.1l-2.1 255.2c-0.1 12.4-25.7 31.5-37.6 28.3l-377.3-117.1c-11.9-3.2-21.5-15.7-21.4-28.1l-16.2-253.7Z" fill="#1c232a"/><path d="M220.4 337.8c5.9-5.8 17-8.8 24.9-6.6l110.6 29.6c7.9 2.1 9.7 8.5 3.8 14.4l-40.4 40.4c-5.8 5.8-16.9 8.8-24.9 6.6l-110.5-29.6c-8-2.1-12.4-10.7-6.6-16.6l43.1-38.2Z" fill="#242a31"/><rect width="144.2" height="86.9" rx="14.9" fill="#292f36" transform="translate(268.4,373) rotate(15) skewX(-30) scale(1,.866026) translate(-72.1,-43.5)"/><path d="M53.8 23.7c.1-12.3 28.1-21.2 40-18l393.2 105.3c11.9 3.2 21.5 15.8 21.4 28.1l-2.1 255.2c-0.1 12.4-25.7 31.5-37.6 28.3l-377.3-117.1c-12-3.2-21.5-15.7-21.4-28.1l-16.2-253.7Z" fill="#242a31"/><rect width="451.7" height="299.9" rx="22.3" fill="#292f36" transform="translate(268.3,218.7) rotate(15) skewX(14.5) scale(1,.968016) translate(-225.9,-149.9)"/></g><g transform="translate(251,444.5) translate(-221,-184.3)" style="animation: 5s linear infinite both a2_t;"><path opacity=".6" fill-rule="evenodd" clip-rule="evenodd" d="M7.5 5.4c4-3.5 9.8-4.8 16.2-3.1l393.1 105.3c12 3.2 21.5 15.8 21.4 28.1l-1.9 232.8l3.7-1.3l1.9-233c.1-12.3-9.4-24.9-21.3-28.1l-393.2-105.3c-7.4-2-15-0.1-19.9 4.6Z" fill="#242a31"/><g mask="url(#Mask-1)" transform="translate(0,-13.5)"><path d="M1.9 32.3c.1-12.3 9.8-19.7 21.8-16.5l393.1 105.3c12 3.2 21.5 15.8 21.4 28.1l-1.9 232.9l-436.3-116.9l1.9-232.9Z" fill="#30363c" opacity=".4"/></g></g><g transform="translate(242,459.2) translate(-106.1,-106)" style="animation: 5s linear infinite both a3_t;"><path d="M6 156.8l200 55.1l6.2 .1l-103.1-212h-6.1l-97 156.8Zm112.5 1l-18.8-5v-19.4l18.8 5v19.4Zm0-38.8l-18.8-5v-38.8l18.8 5v38.8Z" fill="#242a31"/><path d="M0 156.8l206.2 55.2l-103.1-212l-103.1 156.8Zm112.5 1l-18.8-5v-19.4l18.8 5v19.4Zm0-38.8l-18.8-5v-38.8l18.8 5v38.8Z" fill="#292f36"/></g></g></symbol><mask id="Mask-1" style="mask-type: alpha;"><path d="M1.9 32.3c.1-12.3 9.8-19.7 21.8-16.5l393.1 105.3c12 3.2 21.5 15.8 21.4 28.1l-1.9 232.9l-436.3-116.9l1.9-232.9Z" fill="#40464b"/></mask></defs><use width="585.4" height="643.9" xlink:href="#Symbol-1" fill="none"/></svg>