<?xml version="1.0" encoding="UTF-8"?>
<!--
  ~ SPDX-FileCopyrightText: 2024 SAP SE or an SAP affiliate company and Juno contributors
  ~ SPDX-License-Identifier: Apache-2.0
-->

<svg width="808px" height="680px" viewBox="0 0 808 680" version="1.1" xmlns="http://www.w3.org/2000/svg" xmlns:xlink="http://www.w3.org/1999/xlink">
    <defs>
        <rect id="path-1" x="0" y="0" width="807" height="679"></rect>
    </defs>
    <g id="Page-1" stroke="none" stroke-width="1" fill="none" fill-rule="evenodd">
        <g id="IP-Background" transform="translate(0.709000, 0.153000)">
            <mask id="mask-2" fill="white">
                <use xlink:href="#path-1"></use>
            </mask>
            <g id="ip-background-b"></g>
            <g id="Group" mask="url(#mask-2)">
                <g transform="translate(-83.999757, -27.999785)">
                    <path d="M879.407928,172.414003 C887.692199,172.414003 894.407928,179.129732 894.407928,187.414003 L894.407928,367.924803 C894.407928,376.209075 887.692199,382.924803 879.407928,382.924803 L801.563125,382.924003 L801.563125,431.092003 L807.989573,431.092529 C816.273844,431.092529 822.989573,437.808258 822.989573,446.092529 L822.989125,451.860003 L1048.17357,452.043712 C1054.15203,426.776922 1076.67602,407.899999 1103.68613,407.462431 L1104.64572,407.454664 C1136.69337,407.454664 1162.67312,433.413046 1162.67312,465.434333 C1162.67312,497.455621 1136.69337,523.414003 1104.64572,523.414003 C1077.20361,523.414003 1054.21069,504.380449 1048.16884,478.804933 L822.989125,478.619003 L822.989573,484.776138 C822.989573,493.060409 816.273844,499.776138 807.989573,499.776138 L769.249406,499.776138 C760.965135,499.776138 754.249406,493.060409 754.249406,484.776138 L754.249125,478.563003 L528.276678,478.377468 C522.45961,503.868554 499.829449,522.966089 472.660128,523.406235 L471.700538,523.414003 C439.652883,523.414003 413.673125,497.455621 413.673125,465.434333 C413.673125,433.413046 439.652883,407.454664 471.700538,407.454664 C498.982582,407.454664 521.86719,426.266834 528.069968,451.616887 L754.249125,451.803003 L754.249406,446.092529 C754.249406,437.808258 760.965135,431.092529 769.249406,431.092529 L774.782125,431.092003 L774.782125,382.924003 L698.72378,382.924803 C690.439509,382.924803 683.72378,376.209075 683.72378,367.924803 L683.72378,187.414003 C683.72378,179.129732 690.439509,172.414003 698.72378,172.414003 L879.407928,172.414003 Z M471.700538,434.214511 C454.444108,434.214511 440.455008,448.192102 440.455008,465.434333 C440.455008,482.676565 454.444108,496.654155 471.700538,496.654155 C488.956968,496.654155 502.946069,482.676565 502.946069,465.434333 C502.946069,448.192102 488.956968,434.214511 471.700538,434.214511 Z M1104.64572,434.214511 C1087.38929,434.214511 1073.40018,448.192102 1073.40018,465.434333 C1073.40018,482.676565 1087.38929,496.654155 1104.64572,496.654155 C1121.90215,496.654155 1135.89125,482.676565 1135.89125,465.434333 C1135.89125,448.192102 1121.90215,434.214511 1104.64572,434.214511 Z M764.015866,228.020966 L713.630216,228.020966 L713.630216,246.369302 L727.288977,246.369302 L727.288977,315.516748 L713.630216,315.516748 L713.630216,333.865083 L764.015866,333.865083 L764.015866,315.516748 L750.357106,315.516748 L750.357106,246.369302 L764.015866,246.369302 L764.015866,228.020966 Z M833.372016,228.020966 L783.289895,228.020966 L783.289895,333.865083 L806.358023,333.865083 L806.358023,295.652021 L833.372016,295.652021 C838.32964,295.652021 842.781385,294.818005 846.727249,293.149975 C850.673113,291.481944 854.037215,289.182084 856.819555,286.250394 C859.601895,283.318704 861.751885,279.780458 863.269525,275.635655 C864.787165,271.490852 865.545985,266.891131 865.545985,261.836493 C865.545985,256.882948 864.787165,252.308501 863.269525,248.113152 C861.751885,243.917802 859.601895,240.354282 856.819555,237.422592 C854.037215,234.490903 850.673113,232.191042 846.727249,230.523012 C842.952944,228.927504 838.715792,228.095066 834.015794,228.025696 L833.372016,228.020966 Z M830.640264,248.037332 C834.080248,248.037332 836.786706,248.921894 838.759638,250.691017 C840.659499,252.394617 841.644612,254.871598 841.714977,258.121959 L841.719037,258.500432 L841.719037,265.172554 C841.719037,268.609708 840.73257,271.212847 838.759638,272.98197 C836.786706,274.751093 834.080248,275.635655 830.640264,275.635655 L806.358023,275.635655 L806.358023,248.037332 L830.640264,248.037332 Z" id="Shape" fill="#F4F4F4" fill-rule="nonzero" transform="translate(788.173125, 347.914003) rotate(-30.000000) translate(-788.173125, -347.914003) "></path>
                    <path d="M356.118646,318.520256 C364.402917,318.520256 371.118646,325.235985 371.118646,333.520256 L371.118646,454.656215 C371.118646,462.940487 364.402917,469.656215 356.118646,469.656215 L304.676808,469.655256 L304.676808,504.237256 L305.010184,504.238172 C313.264302,504.238172 319.961276,510.905103 320.009917,519.147777 L481.156567,519.279936 C485.485485,500.925326 501.936206,487.267397 521.569182,487.267397 C544.503152,487.267397 563.094808,505.904184 563.094808,528.893827 C563.094808,551.883469 544.503152,570.520256 521.569182,570.520256 C501.930988,570.520256 485.476741,556.855066 481.153118,538.493081 L320.009808,538.359256 L320.010184,538.549481 C320.010184,546.833752 313.294455,553.549481 305.010184,553.549481 L285.818289,553.549481 C277.534017,553.549481 270.818289,546.833752 270.818289,538.549481 L270.817808,538.318256 L109.107675,538.185554 C104.945143,556.487237 88.750344,570.198672 69.3071361,570.514679 L68.620434,570.520256 C45.6864641,570.520256 27.0948082,551.883469 27.0948082,528.893827 C27.0948082,505.904184 45.6864641,487.267397 68.620434,487.267397 C88.143912,487.267397 104.520532,500.773404 108.959489,518.973271 L270.818808,519.107256 L270.821506,518.924344 C270.986471,510.886651 277.473717,504.40201 285.512437,504.241228 L285.511808,469.655256 L235.348682,469.656215 C227.064411,469.656215 220.348682,462.940487 220.348682,454.656215 L220.348682,333.520256 C220.348682,325.235985 227.064411,318.520256 235.348682,318.520256 L356.118646,318.520256 Z M68.620434,506.479595 C56.2713733,506.479595 46.2604816,516.514788 46.2604816,528.893827 C46.2604816,541.272865 56.2713733,551.308058 68.620434,551.308058 C80.9694946,551.308058 90.9803863,541.272865 90.9803863,528.893827 C90.9803863,516.514788 80.9694946,506.479595 68.620434,506.479595 Z M521.569182,506.479595 C509.220122,506.479595 499.20923,516.514788 499.20923,528.893827 C499.20923,541.272865 509.220122,551.308058 521.569182,551.308058 C533.918243,551.308058 543.929135,541.272865 543.929135,528.893827 C543.929135,516.514788 533.918243,506.479595 521.569182,506.479595 Z M277.807371,358.443204 L241.750351,358.443204 L241.750351,371.616368 L251.524844,371.616368 L251.524844,421.260688 L241.750351,421.260688 L241.750351,434.433852 L277.807371,434.433852 L277.807371,421.260688 L268.032877,421.260688 L268.032877,371.616368 L277.807371,371.616368 L277.807371,358.443204 Z M327.440076,358.443204 L291.600267,358.443204 L291.600267,434.433852 L308.1083,434.433852 L308.1083,406.998833 L327.440076,406.998833 C330.987855,406.998833 334.173616,406.400053 336.997359,405.202492 C339.821101,404.004932 342.228523,402.35375 344.219623,400.248947 C346.210724,398.144144 347.749302,395.603865 348.835356,392.628109 C349.921411,389.652353 350.464439,386.349989 350.464439,382.721018 C350.464439,379.164627 349.921411,375.880409 348.835356,372.868363 C347.749302,369.856317 346.210724,367.297893 344.219623,365.19309 C342.228523,363.088287 339.821101,361.437105 336.997359,360.239544 C334.339719,359.112429 331.361398,358.515721 328.062397,358.44942 L327.440076,358.443204 Z M325.485178,372.813928 C327.946902,372.813928 329.8837,373.448998 331.295571,374.719138 C332.643266,375.931544 333.347743,377.689533 333.409002,379.993105 L333.413378,380.325898 L333.413378,385.116139 C333.413378,387.583839 332.707442,389.452759 331.295571,390.722899 C329.8837,391.993039 327.946902,392.628109 325.485178,392.628109 L308.1083,392.628109 L308.1083,372.813928 L325.485178,372.813928 Z" id="Shape" fill="#F4F4F4" fill-rule="nonzero" transform="translate(295.094808, 444.520256) rotate(-30.000000) translate(-295.094808, -444.520256) "></path>
                    <path d="M528.739282,73.2329942 C537.023553,73.2329942 543.739282,79.9487229 543.739282,88.2329942 L543.739282,152.393096 C543.739282,160.677367 537.023553,167.393096 528.739282,167.393096 L502.213383,167.392994 L502.214204,189.94644 C506.041978,191.429604 509.10947,194.43825 510.670686,198.226383 L612.512798,198.310242 C615.218089,186.874635 625.499978,178.365142 637.770867,178.365142 C652.104598,178.365142 663.724383,189.976156 663.724383,204.299068 C663.724383,218.62198 652.104598,230.232994 637.770867,230.232994 C625.497119,230.232994 615.213297,221.719534 612.510908,210.279899 L510.74193,210.195711 C508.539141,215.740108 503.125579,219.659932 496.796493,219.659932 L496.051559,219.659932 C489.713734,219.659932 484.293963,215.729277 482.097016,210.172736 L379.982203,210.088937 C377.349691,221.624662 367.019847,230.232994 354.6779,230.232994 C340.344168,230.232994 328.724383,218.62198 328.724383,204.299068 C328.724383,189.976156 340.344168,178.365142 354.6779,178.365142 C366.880158,178.365142 377.115604,186.779715 379.889867,198.118642 L482.187308,198.202318 C483.696695,194.558028 486.601109,191.637878 490.234608,190.107809 L490.234383,167.392994 L464.508054,167.393096 C456.223783,167.393096 449.508054,160.677367 449.508054,152.393096 L449.508054,88.2329942 C449.508054,79.9487229 456.223783,73.2329942 464.508054,73.2329942 L528.739282,73.2329942 Z M354.6779,190.334646 C346.959737,190.334646 340.702929,196.586731 340.702929,204.299068 C340.702929,212.011405 346.959737,218.26349 354.6779,218.26349 C362.396062,218.26349 368.65287,212.011405 368.65287,204.299068 C368.65287,196.586731 362.396062,190.334646 354.6779,190.334646 Z M637.770867,190.334646 C630.052704,190.334646 623.795897,196.586731 623.795897,204.299068 C623.795897,212.011405 630.052704,218.26349 637.770867,218.26349 C645.48903,218.26349 651.745838,212.011405 651.745838,204.299068 C651.745838,196.586731 645.48903,190.334646 637.770867,190.334646 Z M485.419735,98.1056244 L462.884097,98.1056244 L462.884097,106.312715 L468.993156,106.312715 L468.993156,137.241914 L462.884097,137.241914 L462.884097,145.449004 L485.419735,145.449004 L485.419735,137.241914 L479.310677,137.241914 L479.310677,106.312715 L485.419735,106.312715 L485.419735,98.1056244 Z M516.440176,98.1056244 L494.040295,98.1056244 L494.040295,145.449004 L504.357816,145.449004 L504.357816,128.356552 L516.440176,128.356552 C518.657538,128.356552 520.648638,127.983502 522.413478,127.237403 C524.178317,126.491304 525.682955,125.462592 526.927393,124.151266 C528.171831,122.83994 529.133442,121.257306 529.812226,119.403363 C530.49101,117.549419 530.830402,115.491995 530.830402,113.231088 C530.830402,111.0154 530.49101,108.96928 529.812226,107.092727 C529.133442,105.216175 528.171831,103.622236 526.927393,102.31091 C525.682955,100.999585 524.178317,99.9708722 522.413478,99.2247731 C520.774698,98.5319668 518.940827,98.1608205 516.911862,98.1113344 L516.440176,98.1056244 Z M515.218364,107.058814 C516.756942,107.058814 517.967441,107.454472 518.84986,108.24579 C519.677129,108.98765 520.116615,110.057385 520.168319,111.454996 L520.17349,111.73889 L520.17349,114.723286 C520.17349,116.260703 519.73228,117.42507 518.84986,118.216387 C517.967441,119.007704 516.756942,119.403363 515.218364,119.403363 L504.357816,119.403363 L504.357816,107.058814 L515.218364,107.058814 Z" id="Shape" fill="#F4F4F4" fill-rule="nonzero" transform="translate(496.224383, 151.732994) rotate(-30.000000) translate(-496.224383, -151.732994) "></path>
                </g>
            </g>
        </g>
    </g>
</svg>