<svg xmlns="http://www.w3.org/2000/svg" width="130" height="64" viewBox="0 0 130 64">
  <defs>
    <filter id="loading_placeholder-a" color-interpolation-filters="auto">
      <feColorMatrix in="SourceGraphic" values="0 0 0 0 0.588235 0 0 0 0 0.588235 0 0 0 0 0.588235 0 0 0 1.000000 0"/>
    </filter>
  </defs>
  <g fill="none" fill-rule="evenodd" filter="url(#loading_placeholder-a)" transform="translate(-872 -690)">
    <path fill="#141B22" fill-rule="nonzero" d="M80.2386174,0.15 C81.8954717,0.15 83.2386174,1.49314575 83.2386174,3.15 L83.2386174,34.334244 C83.2386174,35.9910982 81.8954717,37.334244 80.2386174,37.334244 L67.124,37.334 L67.124,45.842 L67.8429082,45.8425032 C69.4997625,45.8425032 70.8429082,47.1856489 70.8429082,48.8425032 L70.842,49.51 L109.926936,49.5431801 C110.956446,45.1153187 114.812539,41.7984332 119.451263,41.6709585 L119.728486,41.6671537 C125.29083,41.6671537 129.8,46.2523951 129.8,51.9085769 C129.8,57.5647587 125.29083,62.15 119.728486,62.15 C114.965379,62.15 110.974533,58.7877701 109.926008,54.2699771 L70.842,54.237 L70.8429082,54.9746506 C70.8429082,56.6315048 69.4997625,57.9746506 67.8429082,57.9746506 L61.9120381,57.9746506 C60.2551839,57.9746506 58.9120381,56.6315048 58.9120381,54.9746506 L58.912,54.227 L19.6908899,54.1959322 C18.6887703,58.6628087 14.8146739,62.0179727 10.1487372,62.1461952 L9.87151371,62.15 C4.30917028,62.15 -0.2,57.5647587 -0.2,51.9085769 C-0.2,46.2523951 4.30917028,41.6671537 9.87151371,41.6671537 C14.6068799,41.6671537 18.5789531,44.9903328 19.6553723,49.4683566 L58.912,49.501 L58.9120381,48.8425032 C58.9120381,47.1856489 60.2551839,45.8425032 61.9120381,45.8425032 L62.475,45.842 L62.475,37.334 L49.6712753,37.334244 C48.0144211,37.334244 46.6712753,35.9910982 46.6712753,34.334244 L46.6712753,3.15 C46.6712753,1.49314575 48.0144211,0.15 49.6712753,0.15 L80.2386174,0.15 Z M9.87151371,46.3939644 C6.87640571,46.3939644 4.44839094,48.8629405 4.44839094,51.9085769 C4.44839094,54.9542132 6.87640571,57.4231893 9.87151371,57.4231893 C12.8666217,57.4231893 15.2946365,54.9542132 15.2946365,51.9085769 C15.2946365,48.8629405 12.8666217,46.3939644 9.87151371,46.3939644 Z M119.728486,46.3939644 C116.733378,46.3939644 114.305364,48.8629405 114.305364,51.9085769 C114.305364,54.9542132 116.733378,57.4231893 119.728486,57.4231893 C122.723594,57.4231893 125.151609,54.9542132 125.151609,51.9085769 C125.151609,48.8629405 122.723594,46.3939644 119.728486,46.3939644 Z M60.6071514,9.97231258 L51.8619785,9.97231258 L51.8619785,13.2133291 L54.2326579,13.2133291 L54.2326579,25.4274079 L51.8619785,25.4274079 L51.8619785,28.6684244 L60.6071514,28.6684244 L60.6071514,25.4274079 L58.236472,25.4274079 L58.236472,13.2133291 L60.6071514,13.2133291 L60.6071514,9.97231258 Z M72.6449344,9.97231258 L63.9524434,9.97231258 L63.9524434,28.6684244 L67.9562574,28.6684244 L67.9562574,21.9185388 L72.6449344,21.9185388 C73.5054033,21.9185388 74.2780691,21.7712198 74.9629321,21.476582 C75.647795,21.1819441 76.2316845,20.775701 76.7146007,20.2578526 C77.1975169,19.7400042 77.5706794,19.1150148 77.8340882,18.3828844 C78.097497,17.6507539 78.2292014,16.8382677 78.2292014,15.9454257 C78.2292014,15.0704405 78.097497,14.2624185 77.8340882,13.5213596 C77.5706794,12.7803007 77.1975169,12.1508471 76.7146007,11.6329987 C76.2316845,11.1151504 75.647795,10.7089072 74.9629321,10.4142694 C74.363677,10.1564612 73.6971978,10.0114442 72.9634945,9.97921815 L72.6449344,9.97231258 Z M72.1707986,13.507967 C72.7678586,13.507967 73.2376043,13.6642143 73.5800358,13.976709 C73.8844193,14.2544821 74.0535212,14.6486553 74.0873416,15.1592287 L74.093683,15.3561499 L74.093683,16.5347014 C74.093683,17.141834 73.9224672,17.6016476 73.5800358,17.9141423 C73.2376043,18.226637 72.7678586,18.3828844 72.1707986,18.3828844 L67.9562574,18.3828844 L67.9562574,13.507967 L72.1707986,13.507967 Z" transform="translate(872.2 690.85)"/>
  </g>
</svg>
